<svg width="168" height="69" viewBox="0 0 168 69" fill="none" xmlns="http://www.w3.org/2000/svg">
<rect width="168" height="69" rx="8" fill="#53BBDC"/>
<path d="M89.2225 21.2V32H88.33C88.195 32 88.08 31.9775 87.985 31.9325C87.89 31.8825 87.8 31.8025 87.715 31.6925L81.7825 24.0725C81.7975 24.2175 81.8075 24.3625 81.8125 24.5075C81.8225 24.6475 81.8275 24.7775 81.8275 24.8975V32H80.2825V21.2H81.1975C81.2725 21.2 81.335 21.205 81.385 21.215C81.44 21.22 81.49 21.2325 81.535 21.2525C81.58 21.2725 81.6225 21.3025 81.6625 21.3425C81.7025 21.3825 81.745 21.4325 81.79 21.4925L87.73 29.12C87.715 28.965 87.7025 28.8125 87.6925 28.6625C87.6875 28.5125 87.685 28.3725 87.685 28.2425V21.2H89.2225ZM93.5587 22.6175V26.075H97.7812V27.4925H93.5587V32H91.7962V21.2H98.5312V22.6175H93.5587ZM107.71 22.6625H104.343V32H102.595V22.6625H99.2201V21.2H107.71V22.6625ZM114.257 22.6175V26.075H118.479V27.4925H114.257V32H112.494V21.2H119.229V22.6175H114.257ZM123.324 24.23C123.889 24.23 124.399 24.3225 124.854 24.5075C125.314 24.6925 125.704 24.955 126.024 25.295C126.349 25.635 126.599 26.0475 126.774 26.5325C126.949 27.0175 127.037 27.5625 127.037 28.1675C127.037 28.7725 126.949 29.3175 126.774 29.8025C126.599 30.2875 126.349 30.7025 126.024 31.0475C125.704 31.3875 125.314 31.65 124.854 31.835C124.399 32.02 123.889 32.1125 123.324 32.1125C122.754 32.1125 122.239 32.02 121.779 31.835C121.324 31.65 120.934 31.3875 120.609 31.0475C120.284 30.7025 120.034 30.2875 119.859 29.8025C119.684 29.3175 119.597 28.7725 119.597 28.1675C119.597 27.5625 119.684 27.0175 119.859 26.5325C120.034 26.0475 120.284 25.635 120.609 25.295C120.934 24.955 121.324 24.6925 121.779 24.5075C122.239 24.3225 122.754 24.23 123.324 24.23ZM123.324 30.8525C124.014 30.8525 124.527 30.6225 124.862 30.1625C125.202 29.6975 125.372 29.035 125.372 28.175C125.372 27.315 125.202 26.6525 124.862 26.1875C124.527 25.7175 124.014 25.4825 123.324 25.4825C122.624 25.4825 122.104 25.7175 121.764 26.1875C121.424 26.6525 121.254 27.315 121.254 28.175C121.254 29.035 121.424 29.6975 121.764 30.1625C122.104 30.6225 122.624 30.8525 123.324 30.8525ZM130.109 25.7675C130.349 25.2825 130.639 24.9025 130.979 24.6275C131.319 24.3475 131.726 24.2075 132.201 24.2075C132.366 24.2075 132.521 24.2275 132.666 24.2675C132.811 24.3025 132.941 24.3575 133.056 24.4325L132.944 25.6475C132.924 25.7325 132.891 25.7925 132.846 25.8275C132.806 25.8575 132.751 25.8725 132.681 25.8725C132.606 25.8725 132.499 25.86 132.359 25.835C132.219 25.805 132.071 25.79 131.916 25.79C131.691 25.79 131.491 25.8225 131.316 25.8875C131.146 25.9525 130.991 26.0475 130.851 26.1725C130.716 26.2975 130.596 26.45 130.491 26.63C130.386 26.81 130.289 27.015 130.199 27.245V32H128.586V24.35H129.524C129.694 24.35 129.811 24.3825 129.876 24.4475C129.941 24.5075 129.986 24.615 130.011 24.77L130.109 25.7675ZM85.93 41.045C85.875 41.135 85.8175 41.2025 85.7575 41.2475C85.6975 41.2875 85.6225 41.3075 85.5325 41.3075C85.4375 41.3075 85.33 41.2675 85.21 41.1875C85.095 41.1075 84.95 41.02 84.775 40.925C84.605 40.825 84.4025 40.735 84.1675 40.655C83.9325 40.57 83.6525 40.5275 83.3275 40.5275C83.0275 40.5275 82.7625 40.565 82.5325 40.64C82.3075 40.715 82.1175 40.82 81.9625 40.955C81.8075 41.09 81.69 41.25 81.61 41.435C81.535 41.615 81.4975 41.8125 81.4975 42.0275C81.4975 42.3025 81.57 42.5325 81.715 42.7175C81.86 42.8975 82.05 43.0525 82.285 43.1825C82.525 43.3125 82.7975 43.4275 83.1025 43.5275C83.4075 43.6225 83.7175 43.725 84.0325 43.835C84.3525 43.945 84.665 44.07 84.97 44.21C85.275 44.35 85.545 44.5275 85.78 44.7425C86.02 44.9575 86.2125 45.22 86.3575 45.53C86.5025 45.84 86.575 46.2175 86.575 46.6625C86.575 47.1425 86.4925 47.5925 86.3275 48.0125C86.1625 48.4325 85.9225 48.8 85.6075 49.115C85.2975 49.425 84.9125 49.67 84.4525 49.85C83.9975 50.03 83.4775 50.12 82.8925 50.12C82.5475 50.12 82.21 50.085 81.88 50.015C81.555 49.95 81.2425 49.8575 80.9425 49.7375C80.6475 49.6125 80.37 49.4625 80.11 49.2875C79.85 49.1125 79.6175 48.9175 79.4125 48.7025L79.9225 47.8625C79.9675 47.7925 80.025 47.7375 80.095 47.6975C80.165 47.6575 80.2425 47.6375 80.3275 47.6375C80.4425 47.6375 80.57 47.6925 80.71 47.8025C80.85 47.9075 81.0175 48.025 81.2125 48.155C81.4125 48.28 81.6525 48.3975 81.9325 48.5075C82.2125 48.6125 82.5475 48.665 82.9375 48.665C83.5725 48.665 84.0625 48.51 84.4075 48.2C84.7575 47.89 84.9325 47.4625 84.9325 46.9175C84.9325 46.6125 84.86 46.365 84.715 46.175C84.57 45.98 84.3775 45.8175 84.1375 45.6875C83.9025 45.5575 83.6325 45.4475 83.3275 45.3575C83.0225 45.2675 82.7125 45.1725 82.3975 45.0725C82.0825 44.9675 81.7725 44.8475 81.4675 44.7125C81.1625 44.5725 80.89 44.3925 80.65 44.1725C80.415 43.9475 80.225 43.6725 80.08 43.3475C79.935 43.0175 79.8625 42.6075 79.8625 42.1175C79.8625 41.7275 79.9375 41.35 80.0875 40.985C80.2425 40.62 80.465 40.2975 80.755 40.0175C81.05 39.7325 81.4125 39.505 81.8425 39.335C82.2725 39.165 82.7625 39.08 83.3125 39.08C83.9325 39.08 84.5 39.1775 85.015 39.3725C85.535 39.5675 85.9825 39.845 86.3575 40.205L85.93 41.045ZM89.637 48.08C89.862 48.37 90.107 48.575 90.372 48.695C90.642 48.81 90.9395 48.8675 91.2645 48.8675C91.8945 48.8675 92.3845 48.6375 92.7345 48.1775C93.0895 47.7175 93.267 47.0325 93.267 46.1225C93.267 45.6525 93.227 45.2525 93.147 44.9225C93.067 44.5875 92.952 44.315 92.802 44.105C92.652 43.895 92.4695 43.7425 92.2545 43.6475C92.0395 43.5525 91.797 43.505 91.527 43.505C91.117 43.505 90.762 43.595 90.462 43.775C90.167 43.95 89.892 44.2025 89.637 44.5325V48.08ZM89.5545 43.46C89.8745 43.085 90.237 42.7825 90.642 42.5525C91.052 42.3225 91.527 42.2075 92.067 42.2075C92.497 42.2075 92.887 42.295 93.237 42.47C93.587 42.64 93.887 42.89 94.137 43.22C94.387 43.55 94.5795 43.96 94.7145 44.45C94.8545 44.935 94.9245 45.4925 94.9245 46.1225C94.9245 46.6875 94.847 47.215 94.692 47.705C94.542 48.19 94.3245 48.6125 94.0395 48.9725C93.7545 49.3275 93.4095 49.6075 93.0045 49.8125C92.5995 50.0125 92.142 50.1125 91.632 50.1125C91.182 50.1125 90.7995 50.04 90.4845 49.895C90.1745 49.75 89.892 49.55 89.637 49.295V52.5425H88.0245V42.35H88.9995C89.2195 42.35 89.3595 42.4525 89.4195 42.6575L89.5545 43.46ZM99.7988 42.23C100.364 42.23 100.874 42.3225 101.329 42.5075C101.789 42.6925 102.179 42.955 102.499 43.295C102.824 43.635 103.074 44.0475 103.249 44.5325C103.424 45.0175 103.511 45.5625 103.511 46.1675C103.511 46.7725 103.424 47.3175 103.249 47.8025C103.074 48.2875 102.824 48.7025 102.499 49.0475C102.179 49.3875 101.789 49.65 101.329 49.835C100.874 50.02 100.364 50.1125 99.7988 50.1125C99.2288 50.1125 98.7138 50.02 98.2538 49.835C97.7988 49.65 97.4088 49.3875 97.0838 49.0475C96.7588 48.7025 96.5088 48.2875 96.3338 47.8025C96.1588 47.3175 96.0713 46.7725 96.0713 46.1675C96.0713 45.5625 96.1588 45.0175 96.3338 44.5325C96.5088 44.0475 96.7588 43.635 97.0838 43.295C97.4088 42.955 97.7988 42.6925 98.2538 42.5075C98.7138 42.3225 99.2288 42.23 99.7988 42.23ZM99.7988 48.8525C100.489 48.8525 101.001 48.6225 101.336 48.1625C101.676 47.6975 101.846 47.035 101.846 46.175C101.846 45.315 101.676 44.6525 101.336 44.1875C101.001 43.7175 100.489 43.4825 99.7988 43.4825C99.0988 43.4825 98.5788 43.7175 98.2388 44.1875C97.8988 44.6525 97.7288 45.315 97.7288 46.175C97.7288 47.035 97.8988 47.6975 98.2388 48.1625C98.5788 48.6225 99.0988 48.8525 99.7988 48.8525ZM106.583 43.7675C106.823 43.2825 107.113 42.9025 107.453 42.6275C107.793 42.3475 108.201 42.2075 108.676 42.2075C108.841 42.2075 108.996 42.2275 109.141 42.2675C109.286 42.3025 109.416 42.3575 109.531 42.4325L109.418 43.6475C109.398 43.7325 109.366 43.7925 109.321 43.8275C109.281 43.8575 109.226 43.8725 109.156 43.8725C109.081 43.8725 108.973 43.86 108.833 43.835C108.693 43.805 108.546 43.79 108.391 43.79C108.166 43.79 107.966 43.8225 107.791 43.8875C107.621 43.9525 107.466 44.0475 107.326 44.1725C107.191 44.2975 107.071 44.45 106.966 44.63C106.861 44.81 106.763 45.015 106.673 45.245V50H105.061V42.35H105.998C106.168 42.35 106.286 42.3825 106.351 42.4475C106.416 42.5075 106.461 42.615 106.486 42.77L106.583 43.7675ZM113.05 50.12C112.415 50.12 111.925 49.9425 111.58 49.5875C111.24 49.2275 111.07 48.7225 111.07 48.0725V43.6175H110.23C110.14 43.6175 110.063 43.59 109.998 43.535C109.933 43.475 109.9 43.3875 109.9 43.2725V42.62L111.138 42.44L111.49 40.2275C111.515 40.1425 111.558 40.075 111.618 40.025C111.678 39.97 111.758 39.9425 111.858 39.9425H112.683V42.455H114.805V43.6175H112.683V47.96C112.683 48.235 112.75 48.445 112.885 48.59C113.02 48.735 113.2 48.8075 113.425 48.8075C113.55 48.8075 113.658 48.7925 113.748 48.7625C113.838 48.7275 113.915 48.6925 113.98 48.6575C114.045 48.6175 114.1 48.5825 114.145 48.5525C114.195 48.5175 114.243 48.5 114.288 48.5C114.378 48.5 114.45 48.55 114.505 48.65L114.985 49.4375C114.735 49.6575 114.44 49.8275 114.1 49.9475C113.76 50.0625 113.41 50.12 113.05 50.12Z" fill="white"/>
<path d="M29.5562 27.1583C27.8937 29.5208 26.9166 32.3937 26.9166 35.5C26.9166 38.6062 27.8937 41.4792 29.5562 43.8417C33.0854 42.7187 35.6666 39.4083 35.6666 35.5C35.6666 31.5917 33.0854 28.2812 29.5562 27.1583ZM53.4437 27.1583C49.9145 28.2812 47.3333 31.5917 47.3333 35.5C47.3333 39.4083 49.9145 42.7187 53.4437 43.8417C55.1062 41.4792 56.0833 38.6062 56.0833 35.5C56.0833 32.3937 55.1062 29.5208 53.4437 27.1583Z" fill="white"/>
<path d="M44.4167 35.5C44.4167 30.7166 47.2896 26.6187 51.4021 24.8104C48.8062 22.4041 45.3354 20.9166 41.5 20.9166C37.6646 20.9166 34.1937 22.4041 31.5979 24.8104C35.7104 26.6187 38.5833 30.7166 38.5833 35.5C38.5833 40.2833 35.7104 44.3812 31.5979 46.1895C34.1937 48.5958 37.6646 50.0833 41.5 50.0833C45.3354 50.0833 48.8062 48.5958 51.4021 46.1895C49.325 45.2792 47.5581 43.7834 46.3175 41.885C45.0769 39.9866 44.4164 37.7678 44.4167 35.5Z" fill="white"/>
</svg>
