<svg width="168" height="69" viewBox="0 0 168 69" fill="none" xmlns="http://www.w3.org/2000/svg">
<rect width="168" height="69" rx="8" fill="#C4C4C4"/>
<rect width="168" height="69" rx="8" fill="#C4C4C4"/>
<rect width="168" height="69" rx="8" fill="#D62828"/>
<path d="M70.2225 21.2V32H69.33C69.195 32 69.08 31.9775 68.985 31.9325C68.89 31.8825 68.8 31.8025 68.715 31.6925L62.7825 24.0725C62.7975 24.2175 62.8075 24.3625 62.8125 24.5075C62.8225 24.6475 62.8275 24.7775 62.8275 24.8975V32H61.2825V21.2H62.1975C62.2725 21.2 62.335 21.205 62.385 21.215C62.44 21.22 62.49 21.2325 62.535 21.2525C62.58 21.2725 62.6225 21.3025 62.6625 21.3425C62.7025 21.3825 62.745 21.4325 62.79 21.4925L68.73 29.12C68.715 28.965 68.7025 28.8125 68.6925 28.6625C68.6875 28.5125 68.685 28.3725 68.685 28.2425V21.2H70.2225ZM74.5587 22.6175V26.075H78.7812V27.4925H74.5587V32H72.7962V21.2H79.5312V22.6175H74.5587ZM88.7101 22.6625H85.3426V32H83.5951V22.6625H80.2201V21.2H88.7101V22.6625ZM95.2569 22.6175V26.075H99.4794V27.4925H95.2569V32H93.4944V21.2H100.229V22.6175H95.2569ZM104.324 24.23C104.889 24.23 105.399 24.3225 105.854 24.5075C106.314 24.6925 106.704 24.955 107.024 25.295C107.349 25.635 107.599 26.0475 107.774 26.5325C107.949 27.0175 108.037 27.5625 108.037 28.1675C108.037 28.7725 107.949 29.3175 107.774 29.8025C107.599 30.2875 107.349 30.7025 107.024 31.0475C106.704 31.3875 106.314 31.65 105.854 31.835C105.399 32.02 104.889 32.1125 104.324 32.1125C103.754 32.1125 103.239 32.02 102.779 31.835C102.324 31.65 101.934 31.3875 101.609 31.0475C101.284 30.7025 101.034 30.2875 100.859 29.8025C100.684 29.3175 100.597 28.7725 100.597 28.1675C100.597 27.5625 100.684 27.0175 100.859 26.5325C101.034 26.0475 101.284 25.635 101.609 25.295C101.934 24.955 102.324 24.6925 102.779 24.5075C103.239 24.3225 103.754 24.23 104.324 24.23ZM104.324 30.8525C105.014 30.8525 105.527 30.6225 105.862 30.1625C106.202 29.6975 106.372 29.035 106.372 28.175C106.372 27.315 106.202 26.6525 105.862 26.1875C105.527 25.7175 105.014 25.4825 104.324 25.4825C103.624 25.4825 103.104 25.7175 102.764 26.1875C102.424 26.6525 102.254 27.315 102.254 28.175C102.254 29.035 102.424 29.6975 102.764 30.1625C103.104 30.6225 103.624 30.8525 104.324 30.8525ZM111.109 25.7675C111.349 25.2825 111.639 24.9025 111.979 24.6275C112.319 24.3475 112.726 24.2075 113.201 24.2075C113.366 24.2075 113.521 24.2275 113.666 24.2675C113.811 24.3025 113.941 24.3575 114.056 24.4325L113.944 25.6475C113.924 25.7325 113.891 25.7925 113.846 25.8275C113.806 25.8575 113.751 25.8725 113.681 25.8725C113.606 25.8725 113.499 25.86 113.359 25.835C113.219 25.805 113.071 25.79 112.916 25.79C112.691 25.79 112.491 25.8225 112.316 25.8875C112.146 25.9525 111.991 26.0475 111.851 26.1725C111.716 26.2975 111.596 26.45 111.491 26.63C111.386 26.81 111.289 27.015 111.199 27.245V32H109.586V24.35H110.524C110.694 24.35 110.811 24.3825 110.876 24.4475C110.941 24.5075 110.986 24.615 111.011 24.77L111.109 25.7675ZM63.045 40.6175V44.075H67.2675V45.4925H63.045V50H61.2825V39.2H68.0175V40.6175H63.045ZM72.5114 46.655C71.9364 46.675 71.4514 46.7225 71.0564 46.7975C70.6614 46.8675 70.3414 46.96 70.0964 47.075C69.8514 47.185 69.6739 47.3175 69.5639 47.4725C69.4589 47.6275 69.4064 47.7975 69.4064 47.9825C69.4064 48.1625 69.4339 48.3175 69.4889 48.4475C69.5489 48.5725 69.6289 48.6775 69.7289 48.7625C69.8339 48.8425 69.9539 48.9025 70.0889 48.9425C70.2289 48.9775 70.3814 48.995 70.5464 48.995C70.9664 48.995 71.3264 48.9175 71.6264 48.7625C71.9314 48.6025 72.2264 48.3725 72.5114 48.0725V46.655ZM68.2364 43.415C69.1014 42.61 70.1314 42.2075 71.3264 42.2075C71.7664 42.2075 72.1564 42.28 72.4964 42.425C72.8414 42.565 73.1289 42.765 73.3589 43.025C73.5939 43.285 73.7714 43.595 73.8914 43.955C74.0164 44.31 74.0789 44.705 74.0789 45.14V50H73.3589C73.2039 50 73.0864 49.9775 73.0064 49.9325C72.9264 49.8825 72.8589 49.785 72.8039 49.64L72.6464 49.0175C72.4514 49.1925 72.2589 49.35 72.0689 49.49C71.8789 49.625 71.6814 49.74 71.4764 49.835C71.2764 49.93 71.0589 50 70.8239 50.045C70.5939 50.095 70.3389 50.12 70.0589 50.12C69.7489 50.12 69.4589 50.0775 69.1889 49.9925C68.9239 49.9075 68.6939 49.78 68.4989 49.61C68.3039 49.435 68.1489 49.22 68.0339 48.965C67.9239 48.71 67.8689 48.41 67.8689 48.065C67.8689 47.77 67.9464 47.4825 68.1014 47.2025C68.2614 46.9225 68.5214 46.6725 68.8814 46.4525C69.2464 46.2275 69.7239 46.0425 70.3139 45.8975C70.9089 45.7525 71.6414 45.67 72.5114 45.65V45.14C72.5114 44.59 72.3939 44.18 72.1589 43.91C71.9239 43.64 71.5789 43.505 71.1239 43.505C70.8139 43.505 70.5539 43.545 70.3439 43.625C70.1339 43.7 69.9514 43.7825 69.7964 43.8725C69.6414 43.9625 69.5039 44.0475 69.3839 44.1275C69.2639 44.2025 69.1364 44.24 69.0014 44.24C68.8914 44.24 68.7964 44.2125 68.7164 44.1575C68.6414 44.0975 68.5789 44.025 68.5289 43.94L68.2364 43.415ZM77.4754 43.3625C77.6404 43.1925 77.8104 43.04 77.9854 42.905C78.1654 42.765 78.3554 42.645 78.5554 42.545C78.7554 42.445 78.9679 42.3675 79.1929 42.3125C79.4179 42.2575 79.6629 42.23 79.9279 42.23C80.3479 42.23 80.7154 42.3 81.0304 42.44C81.3504 42.58 81.6179 42.7775 81.8329 43.0325C82.0529 43.2875 82.2179 43.595 82.3279 43.955C82.4379 44.31 82.4929 44.7025 82.4929 45.1325V50H80.8879V45.1325C80.8879 44.6175 80.7679 44.2175 80.5279 43.9325C80.2929 43.6475 79.9329 43.505 79.4479 43.505C79.0879 43.505 78.7529 43.5875 78.4429 43.7525C78.1379 43.9175 77.8504 44.1425 77.5804 44.4275V50H75.9679V42.35H76.9429C77.1629 42.35 77.3029 42.4525 77.3629 42.6575L77.4754 43.3625ZM86.726 50.12C86.091 50.12 85.601 49.9425 85.256 49.5875C84.916 49.2275 84.746 48.7225 84.746 48.0725V43.6175H83.906C83.816 43.6175 83.7385 43.59 83.6735 43.535C83.6085 43.475 83.576 43.3875 83.576 43.2725V42.62L84.8135 42.44L85.166 40.2275C85.191 40.1425 85.2335 40.075 85.2935 40.025C85.3535 39.97 85.4335 39.9425 85.5335 39.9425H86.3585V42.455H88.481V43.6175H86.3585V47.96C86.3585 48.235 86.426 48.445 86.561 48.59C86.696 48.735 86.876 48.8075 87.101 48.8075C87.226 48.8075 87.3335 48.7925 87.4235 48.7625C87.5135 48.7275 87.591 48.6925 87.656 48.6575C87.721 48.6175 87.776 48.5825 87.821 48.5525C87.871 48.5175 87.9185 48.5 87.9635 48.5C88.0535 48.5 88.126 48.55 88.181 48.65L88.661 49.4375C88.411 49.6575 88.116 49.8275 87.776 49.9475C87.436 50.0625 87.086 50.12 86.726 50.12ZM93.8395 46.655C93.2645 46.675 92.7795 46.7225 92.3845 46.7975C91.9895 46.8675 91.6695 46.96 91.4245 47.075C91.1795 47.185 91.002 47.3175 90.892 47.4725C90.787 47.6275 90.7345 47.7975 90.7345 47.9825C90.7345 48.1625 90.762 48.3175 90.817 48.4475C90.877 48.5725 90.957 48.6775 91.057 48.7625C91.162 48.8425 91.282 48.9025 91.417 48.9425C91.557 48.9775 91.7095 48.995 91.8745 48.995C92.2945 48.995 92.6545 48.9175 92.9545 48.7625C93.2595 48.6025 93.5545 48.3725 93.8395 48.0725V46.655ZM89.5645 43.415C90.4295 42.61 91.4595 42.2075 92.6545 42.2075C93.0945 42.2075 93.4845 42.28 93.8245 42.425C94.1695 42.565 94.457 42.765 94.687 43.025C94.922 43.285 95.0995 43.595 95.2195 43.955C95.3445 44.31 95.407 44.705 95.407 45.14V50H94.687C94.532 50 94.4145 49.9775 94.3345 49.9325C94.2545 49.8825 94.187 49.785 94.132 49.64L93.9745 49.0175C93.7795 49.1925 93.587 49.35 93.397 49.49C93.207 49.625 93.0095 49.74 92.8045 49.835C92.6045 49.93 92.387 50 92.152 50.045C91.922 50.095 91.667 50.12 91.387 50.12C91.077 50.12 90.787 50.0775 90.517 49.9925C90.252 49.9075 90.022 49.78 89.827 49.61C89.632 49.435 89.477 49.22 89.362 48.965C89.252 48.71 89.197 48.41 89.197 48.065C89.197 47.77 89.2745 47.4825 89.4295 47.2025C89.5895 46.9225 89.8495 46.6725 90.2095 46.4525C90.5745 46.2275 91.052 46.0425 91.642 45.8975C92.237 45.7525 92.9695 45.67 93.8395 45.65V45.14C93.8395 44.59 93.722 44.18 93.487 43.91C93.252 43.64 92.907 43.505 92.452 43.505C92.142 43.505 91.882 43.545 91.672 43.625C91.462 43.7 91.2795 43.7825 91.1245 43.8725C90.9695 43.9625 90.832 44.0475 90.712 44.1275C90.592 44.2025 90.4645 44.24 90.3295 44.24C90.2195 44.24 90.1245 44.2125 90.0445 44.1575C89.9695 44.0975 89.907 44.025 89.857 43.94L89.5645 43.415ZM101.863 43.7375C101.823 43.8075 101.778 43.8575 101.728 43.8875C101.678 43.9175 101.616 43.9325 101.541 43.9325C101.456 43.9325 101.363 43.9075 101.263 43.8575C101.163 43.8025 101.046 43.7425 100.911 43.6775C100.776 43.6125 100.616 43.555 100.431 43.505C100.251 43.45 100.038 43.4225 99.7935 43.4225C99.5935 43.4225 99.411 43.4475 99.246 43.4975C99.086 43.5425 98.9485 43.61 98.8335 43.7C98.7235 43.785 98.6385 43.8875 98.5785 44.0075C98.5185 44.1225 98.4885 44.2475 98.4885 44.3825C98.4885 44.5625 98.5435 44.7125 98.6535 44.8325C98.7635 44.9525 98.9085 45.0575 99.0885 45.1475C99.2685 45.2325 99.4735 45.31 99.7035 45.38C99.9335 45.45 100.168 45.525 100.408 45.605C100.648 45.685 100.883 45.7775 101.113 45.8825C101.343 45.9875 101.548 46.1175 101.728 46.2725C101.908 46.4225 102.053 46.6075 102.163 46.8275C102.273 47.0425 102.328 47.305 102.328 47.615C102.328 47.975 102.263 48.3075 102.133 48.6125C102.003 48.9175 101.813 49.1825 101.563 49.4075C101.313 49.6325 101.001 49.8075 100.626 49.9325C100.256 50.0575 99.831 50.12 99.351 50.12C99.086 50.12 98.8285 50.095 98.5785 50.045C98.3335 50 98.0985 49.9375 97.8735 49.8575C97.6535 49.7725 97.446 49.6725 97.251 49.5575C97.061 49.4425 96.891 49.3175 96.741 49.1825L97.116 48.5675C97.161 48.4925 97.216 48.435 97.281 48.395C97.351 48.35 97.436 48.3275 97.536 48.3275C97.641 48.3275 97.7435 48.3625 97.8435 48.4325C97.9485 48.4975 98.0685 48.57 98.2035 48.65C98.3435 48.73 98.511 48.805 98.706 48.875C98.901 48.94 99.1435 48.9725 99.4335 48.9725C99.6735 48.9725 99.881 48.945 100.056 48.89C100.231 48.83 100.376 48.75 100.491 48.65C100.606 48.55 100.691 48.4375 100.746 48.3125C100.801 48.1825 100.828 48.045 100.828 47.9C100.828 47.705 100.773 47.545 100.663 47.42C100.553 47.295 100.406 47.1875 100.221 47.0975C100.041 47.0075 99.8335 46.9275 99.5985 46.8575C99.3685 46.7875 99.1335 46.7125 98.8935 46.6325C98.6535 46.5525 98.416 46.46 98.181 46.355C97.951 46.25 97.7435 46.1175 97.5585 45.9575C97.3785 45.7925 97.2335 45.595 97.1235 45.365C97.0135 45.13 96.9585 44.845 96.9585 44.51C96.9585 44.205 97.0185 43.915 97.1385 43.64C97.2635 43.365 97.4435 43.1225 97.6785 42.9125C97.9185 42.7025 98.211 42.5375 98.556 42.4175C98.906 42.2925 99.3085 42.23 99.7635 42.23C100.278 42.23 100.746 42.3125 101.166 42.4775C101.586 42.6425 101.938 42.8675 102.223 43.1525L101.863 43.7375ZM110.485 42.35L106.27 52.175C106.215 52.29 106.147 52.38 106.067 52.445C105.992 52.51 105.875 52.5425 105.715 52.5425H104.522L105.932 49.4825L102.812 42.35H104.215C104.35 42.35 104.452 42.3825 104.522 42.4475C104.597 42.5075 104.652 42.58 104.687 42.665L106.51 47.0075C106.555 47.1325 106.595 47.2575 106.63 47.3825C106.67 47.5025 106.707 47.6275 106.742 47.7575C106.782 47.6275 106.822 47.5 106.862 47.375C106.902 47.25 106.947 47.125 106.997 47L108.745 42.665C108.78 42.575 108.837 42.5 108.917 42.44C109.002 42.38 109.095 42.35 109.195 42.35H110.485ZM120.851 41.045C120.796 41.135 120.738 41.2025 120.678 41.2475C120.618 41.2875 120.543 41.3075 120.453 41.3075C120.358 41.3075 120.251 41.2675 120.131 41.1875C120.016 41.1075 119.871 41.02 119.696 40.925C119.526 40.825 119.323 40.735 119.088 40.655C118.853 40.57 118.573 40.5275 118.248 40.5275C117.948 40.5275 117.683 40.565 117.453 40.64C117.228 40.715 117.038 40.82 116.883 40.955C116.728 41.09 116.611 41.25 116.531 41.435C116.456 41.615 116.418 41.8125 116.418 42.0275C116.418 42.3025 116.491 42.5325 116.636 42.7175C116.781 42.8975 116.971 43.0525 117.206 43.1825C117.446 43.3125 117.718 43.4275 118.023 43.5275C118.328 43.6225 118.638 43.725 118.953 43.835C119.273 43.945 119.586 44.07 119.891 44.21C120.196 44.35 120.466 44.5275 120.701 44.7425C120.941 44.9575 121.133 45.22 121.278 45.53C121.423 45.84 121.496 46.2175 121.496 46.6625C121.496 47.1425 121.413 47.5925 121.248 48.0125C121.083 48.4325 120.843 48.8 120.528 49.115C120.218 49.425 119.833 49.67 119.373 49.85C118.918 50.03 118.398 50.12 117.813 50.12C117.468 50.12 117.131 50.085 116.801 50.015C116.476 49.95 116.163 49.8575 115.863 49.7375C115.568 49.6125 115.291 49.4625 115.031 49.2875C114.771 49.1125 114.538 48.9175 114.333 48.7025L114.843 47.8625C114.888 47.7925 114.946 47.7375 115.016 47.6975C115.086 47.6575 115.163 47.6375 115.248 47.6375C115.363 47.6375 115.491 47.6925 115.631 47.8025C115.771 47.9075 115.938 48.025 116.133 48.155C116.333 48.28 116.573 48.3975 116.853 48.5075C117.133 48.6125 117.468 48.665 117.858 48.665C118.493 48.665 118.983 48.51 119.328 48.2C119.678 47.89 119.853 47.4625 119.853 46.9175C119.853 46.6125 119.781 46.365 119.636 46.175C119.491 45.98 119.298 45.8175 119.058 45.6875C118.823 45.5575 118.553 45.4475 118.248 45.3575C117.943 45.2675 117.633 45.1725 117.318 45.0725C117.003 44.9675 116.693 44.8475 116.388 44.7125C116.083 44.5725 115.811 44.3925 115.571 44.1725C115.336 43.9475 115.146 43.6725 115.001 43.3475C114.856 43.0175 114.783 42.6075 114.783 42.1175C114.783 41.7275 114.858 41.35 115.008 40.985C115.163 40.62 115.386 40.2975 115.676 40.0175C115.971 39.7325 116.333 39.505 116.763 39.335C117.193 39.165 117.683 39.08 118.233 39.08C118.853 39.08 119.421 39.1775 119.936 39.3725C120.456 39.5675 120.903 39.845 121.278 40.205L120.851 41.045ZM124.558 48.08C124.783 48.37 125.028 48.575 125.293 48.695C125.563 48.81 125.86 48.8675 126.185 48.8675C126.815 48.8675 127.305 48.6375 127.655 48.1775C128.01 47.7175 128.188 47.0325 128.188 46.1225C128.188 45.6525 128.148 45.2525 128.068 44.9225C127.988 44.5875 127.873 44.315 127.723 44.105C127.573 43.895 127.39 43.7425 127.175 43.6475C126.96 43.5525 126.718 43.505 126.448 43.505C126.038 43.505 125.683 43.595 125.383 43.775C125.088 43.95 124.813 44.2025 124.558 44.5325V48.08ZM124.475 43.46C124.795 43.085 125.158 42.7825 125.563 42.5525C125.973 42.3225 126.448 42.2075 126.988 42.2075C127.418 42.2075 127.808 42.295 128.158 42.47C128.508 42.64 128.808 42.89 129.058 43.22C129.308 43.55 129.5 43.96 129.635 44.45C129.775 44.935 129.845 45.4925 129.845 46.1225C129.845 46.6875 129.768 47.215 129.613 47.705C129.463 48.19 129.245 48.6125 128.96 48.9725C128.675 49.3275 128.33 49.6075 127.925 49.8125C127.52 50.0125 127.063 50.1125 126.553 50.1125C126.103 50.1125 125.72 50.04 125.405 49.895C125.095 49.75 124.813 49.55 124.558 49.295V52.5425H122.945V42.35H123.92C124.14 42.35 124.28 42.4525 124.34 42.6575L124.475 43.46ZM134.72 42.23C135.285 42.23 135.795 42.3225 136.25 42.5075C136.71 42.6925 137.1 42.955 137.42 43.295C137.745 43.635 137.995 44.0475 138.17 44.5325C138.345 45.0175 138.432 45.5625 138.432 46.1675C138.432 46.7725 138.345 47.3175 138.17 47.8025C137.995 48.2875 137.745 48.7025 137.42 49.0475C137.1 49.3875 136.71 49.65 136.25 49.835C135.795 50.02 135.285 50.1125 134.72 50.1125C134.15 50.1125 133.635 50.02 133.175 49.835C132.72 49.65 132.33 49.3875 132.005 49.0475C131.68 48.7025 131.43 48.2875 131.255 47.8025C131.08 47.3175 130.992 46.7725 130.992 46.1675C130.992 45.5625 131.08 45.0175 131.255 44.5325C131.43 44.0475 131.68 43.635 132.005 43.295C132.33 42.955 132.72 42.6925 133.175 42.5075C133.635 42.3225 134.15 42.23 134.72 42.23ZM134.72 48.8525C135.41 48.8525 135.922 48.6225 136.257 48.1625C136.597 47.6975 136.767 47.035 136.767 46.175C136.767 45.315 136.597 44.6525 136.257 44.1875C135.922 43.7175 135.41 43.4825 134.72 43.4825C134.02 43.4825 133.5 43.7175 133.16 44.1875C132.82 44.6525 132.65 45.315 132.65 46.175C132.65 47.035 132.82 47.6975 133.16 48.1625C133.5 48.6225 134.02 48.8525 134.72 48.8525ZM141.504 43.7675C141.744 43.2825 142.034 42.9025 142.374 42.6275C142.714 42.3475 143.122 42.2075 143.597 42.2075C143.762 42.2075 143.917 42.2275 144.062 42.2675C144.207 42.3025 144.337 42.3575 144.452 42.4325L144.339 43.6475C144.319 43.7325 144.287 43.7925 144.242 43.8275C144.202 43.8575 144.147 43.8725 144.077 43.8725C144.002 43.8725 143.894 43.86 143.754 43.835C143.614 43.805 143.467 43.79 143.312 43.79C143.087 43.79 142.887 43.8225 142.712 43.8875C142.542 43.9525 142.387 44.0475 142.247 44.1725C142.112 44.2975 141.992 44.45 141.887 44.63C141.782 44.81 141.684 45.015 141.594 45.245V50H139.982V42.35H140.919C141.089 42.35 141.207 42.3825 141.272 42.4475C141.337 42.5075 141.382 42.615 141.407 42.77L141.504 43.7675ZM147.971 50.12C147.336 50.12 146.846 49.9425 146.501 49.5875C146.161 49.2275 145.991 48.7225 145.991 48.0725V43.6175H145.151C145.061 43.6175 144.984 43.59 144.919 43.535C144.854 43.475 144.821 43.3875 144.821 43.2725V42.62L146.059 42.44L146.411 40.2275C146.436 40.1425 146.479 40.075 146.539 40.025C146.599 39.97 146.679 39.9425 146.779 39.9425H147.604V42.455H149.726V43.6175H147.604V47.96C147.604 48.235 147.671 48.445 147.806 48.59C147.941 48.735 148.121 48.8075 148.346 48.8075C148.471 48.8075 148.579 48.7925 148.669 48.7625C148.759 48.7275 148.836 48.6925 148.901 48.6575C148.966 48.6175 149.021 48.5825 149.066 48.5525C149.116 48.5175 149.164 48.5 149.209 48.5C149.299 48.5 149.371 48.55 149.426 48.65L149.906 49.4375C149.656 49.6575 149.361 49.8275 149.021 49.9475C148.681 50.0625 148.331 50.12 147.971 50.12ZM155.565 43.7375C155.525 43.8075 155.48 43.8575 155.43 43.8875C155.38 43.9175 155.317 43.9325 155.242 43.9325C155.157 43.9325 155.065 43.9075 154.965 43.8575C154.865 43.8025 154.747 43.7425 154.612 43.6775C154.477 43.6125 154.317 43.555 154.132 43.505C153.952 43.45 153.74 43.4225 153.495 43.4225C153.295 43.4225 153.112 43.4475 152.947 43.4975C152.787 43.5425 152.65 43.61 152.535 43.7C152.425 43.785 152.34 43.8875 152.28 44.0075C152.22 44.1225 152.19 44.2475 152.19 44.3825C152.19 44.5625 152.245 44.7125 152.355 44.8325C152.465 44.9525 152.61 45.0575 152.79 45.1475C152.97 45.2325 153.175 45.31 153.405 45.38C153.635 45.45 153.87 45.525 154.11 45.605C154.35 45.685 154.585 45.7775 154.815 45.8825C155.045 45.9875 155.25 46.1175 155.43 46.2725C155.61 46.4225 155.755 46.6075 155.865 46.8275C155.975 47.0425 156.03 47.305 156.03 47.615C156.03 47.975 155.965 48.3075 155.835 48.6125C155.705 48.9175 155.515 49.1825 155.265 49.4075C155.015 49.6325 154.702 49.8075 154.327 49.9325C153.957 50.0575 153.532 50.12 153.052 50.12C152.787 50.12 152.53 50.095 152.28 50.045C152.035 50 151.8 49.9375 151.575 49.8575C151.355 49.7725 151.147 49.6725 150.952 49.5575C150.762 49.4425 150.592 49.3175 150.442 49.1825L150.817 48.5675C150.862 48.4925 150.917 48.435 150.982 48.395C151.052 48.35 151.137 48.3275 151.237 48.3275C151.342 48.3275 151.445 48.3625 151.545 48.4325C151.65 48.4975 151.77 48.57 151.905 48.65C152.045 48.73 152.212 48.805 152.407 48.875C152.602 48.94 152.845 48.9725 153.135 48.9725C153.375 48.9725 153.582 48.945 153.757 48.89C153.932 48.83 154.077 48.75 154.192 48.65C154.307 48.55 154.392 48.4375 154.447 48.3125C154.502 48.1825 154.53 48.045 154.53 47.9C154.53 47.705 154.475 47.545 154.365 47.42C154.255 47.295 154.107 47.1875 153.922 47.0975C153.742 47.0075 153.535 46.9275 153.3 46.8575C153.07 46.7875 152.835 46.7125 152.595 46.6325C152.355 46.5525 152.117 46.46 151.882 46.355C151.652 46.25 151.445 46.1175 151.26 45.9575C151.08 45.7925 150.935 45.595 150.825 45.365C150.715 45.13 150.66 44.845 150.66 44.51C150.66 44.205 150.72 43.915 150.84 43.64C150.965 43.365 151.145 43.1225 151.38 42.9125C151.62 42.7025 151.912 42.5375 152.257 42.4175C152.607 42.2925 153.01 42.23 153.465 42.23C153.98 42.23 154.447 42.3125 154.867 42.4775C155.287 42.6425 155.64 42.8675 155.925 43.1525L155.565 43.7375Z" fill="white"/>
<path d="M43.135 25.455C43.783 26.232 44.32 27.069 44.749 27.9465C44.1832 28.8345 43.2995 29.4726 42.2786 29.7303C41.2576 29.988 40.1769 29.8456 39.2575 29.3325L43.135 25.455Z" fill="white"/>
<path d="M41.545 23.865L37.6675 27.7425C37.1543 26.8231 37.012 25.7423 37.2696 24.7214C37.5273 23.7005 38.1655 22.8167 39.0535 22.251C39.9455 22.6866 40.7816 23.2285 41.5435 23.865H41.545Z" fill="white"/>
<path d="M43.7845 40.4429C44.7921 38.9939 45.4784 37.3462 45.7974 35.6104C46.1163 33.8745 46.0606 32.0905 45.634 30.3779C44.5684 31.378 43.1916 31.9818 41.7341 32.0883C40.2766 32.1948 38.8267 31.7975 37.627 30.9629L35.9665 32.6249L43.7845 40.4429Z" fill="white"/>
<path d="M36.0355 29.373C35.2011 28.1732 34.8041 26.7232 34.9108 25.2656C35.0176 23.8081 35.6217 22.4314 36.622 21.366C34.9094 20.9393 33.1254 20.8836 31.3896 21.2026C29.6537 21.5216 28.006 22.2079 26.557 23.2155L34.375 31.0335L36.0355 29.373Z" fill="white"/>
<path d="M32.785 32.625L24.829 24.6705C23.4755 26.0336 22.4594 27.6943 21.862 29.52C24.7315 29.9625 28.5295 31.0545 31.657 33.75L32.785 32.6235V32.625Z" fill="white"/>
<path d="M30.592 34.8165C31.165 35.3021 31.6973 35.8339 32.1835 36.4065C34.6285 39.2865 35.6215 42.8205 36.0175 45.5175C36.109 46.1355 36.169 46.71 36.208 47.2215C36.2531 47.7233 36.1874 48.2288 36.0156 48.7025C35.8439 49.1761 35.5702 49.6062 35.2139 49.9624C34.8577 50.3187 34.4276 50.5924 33.954 50.7641C33.4803 50.9359 32.9748 51.0016 32.473 50.9565C29.506 50.7315 24.463 49.8045 20.83 46.1715C17.1955 42.537 16.267 37.4955 16.042 34.527C15.9969 34.0252 16.0626 33.5196 16.2344 33.046C16.4061 32.5724 16.6798 32.1423 17.036 31.786C17.3923 31.4298 17.8224 31.1561 18.296 30.9844C18.7696 30.8126 19.2752 30.7469 19.777 30.792C20.29 30.831 20.8645 30.891 21.4825 30.9825C24.1795 31.38 27.712 32.373 30.592 34.8165ZM25.045 38.2035C24.8327 37.9987 24.5485 37.8854 24.2535 37.8881C23.9585 37.8908 23.6764 38.0093 23.4679 38.2179C23.2595 38.4266 23.1413 38.7088 23.1389 39.0038C23.1364 39.2988 23.25 39.5829 23.455 39.795L27.205 43.545C27.308 43.6555 27.4322 43.7442 27.5702 43.8057C27.7082 43.8672 27.8572 43.9002 28.0082 43.9029C28.1593 43.9055 28.3093 43.8778 28.4494 43.8212C28.5895 43.7646 28.7167 43.6804 28.8235 43.5735C28.9304 43.4667 29.0146 43.3395 29.0712 43.1994C29.1278 43.0593 29.1555 42.9093 29.1529 42.7582C29.1502 42.6072 29.1172 42.4582 29.0557 42.3202C28.9942 42.1822 28.9055 42.058 28.795 41.955L25.045 38.205V38.2035Z" fill="white"/>
<path d="M37.4785 45.138C37.036 42.2685 35.944 38.4705 33.2485 35.343L34.375 34.215L42.3295 42.171C40.966 43.5247 39.3047 44.5407 37.4785 45.138Z" fill="white"/>
</svg>
