<svg width="168" height="79" viewBox="0 0 168 79" fill="none" xmlns="http://www.w3.org/2000/svg">
<rect width="168" height="69" rx="8" fill="#81BF37"/>
<path d="M82.2225 11.2V22H81.33C81.195 22 81.08 21.9775 80.985 21.9325C80.89 21.8825 80.8 21.8025 80.715 21.6925L74.7825 14.0725C74.7975 14.2175 74.8075 14.3625 74.8125 14.5075C74.8225 14.6475 74.8275 14.7775 74.8275 14.8975V22H73.2825V11.2H74.1975C74.2725 11.2 74.335 11.205 74.385 11.215C74.44 11.22 74.49 11.2325 74.535 11.2525C74.58 11.2725 74.6225 11.3025 74.6625 11.3425C74.7025 11.3825 74.745 11.4325 74.79 11.4925L80.73 19.12C80.715 18.965 80.7025 18.8125 80.6925 18.6625C80.6875 18.5125 80.685 18.3725 80.685 18.2425V11.2H82.2225ZM86.5587 12.6175V16.075H90.7812V17.4925H86.5587V22H84.7962V11.2H91.5312V12.6175H86.5587ZM100.71 12.6625H97.3426V22H95.5951V12.6625H92.2201V11.2H100.71V12.6625ZM107.257 12.6175V16.075H111.479V17.4925H107.257V22H105.494V11.2H112.229V12.6175H107.257ZM116.324 14.23C116.889 14.23 117.399 14.3225 117.854 14.5075C118.314 14.6925 118.704 14.955 119.024 15.295C119.349 15.635 119.599 16.0475 119.774 16.5325C119.949 17.0175 120.037 17.5625 120.037 18.1675C120.037 18.7725 119.949 19.3175 119.774 19.8025C119.599 20.2875 119.349 20.7025 119.024 21.0475C118.704 21.3875 118.314 21.65 117.854 21.835C117.399 22.02 116.889 22.1125 116.324 22.1125C115.754 22.1125 115.239 22.02 114.779 21.835C114.324 21.65 113.934 21.3875 113.609 21.0475C113.284 20.7025 113.034 20.2875 112.859 19.8025C112.684 19.3175 112.597 18.7725 112.597 18.1675C112.597 17.5625 112.684 17.0175 112.859 16.5325C113.034 16.0475 113.284 15.635 113.609 15.295C113.934 14.955 114.324 14.6925 114.779 14.5075C115.239 14.3225 115.754 14.23 116.324 14.23ZM116.324 20.8525C117.014 20.8525 117.527 20.6225 117.862 20.1625C118.202 19.6975 118.372 19.035 118.372 18.175C118.372 17.315 118.202 16.6525 117.862 16.1875C117.527 15.7175 117.014 15.4825 116.324 15.4825C115.624 15.4825 115.104 15.7175 114.764 16.1875C114.424 16.6525 114.254 17.315 114.254 18.175C114.254 19.035 114.424 19.6975 114.764 20.1625C115.104 20.6225 115.624 20.8525 116.324 20.8525ZM123.109 15.7675C123.349 15.2825 123.639 14.9025 123.979 14.6275C124.319 14.3475 124.726 14.2075 125.201 14.2075C125.366 14.2075 125.521 14.2275 125.666 14.2675C125.811 14.3025 125.941 14.3575 126.056 14.4325L125.944 15.6475C125.924 15.7325 125.891 15.7925 125.846 15.8275C125.806 15.8575 125.751 15.8725 125.681 15.8725C125.606 15.8725 125.499 15.86 125.359 15.835C125.219 15.805 125.071 15.79 124.916 15.79C124.691 15.79 124.491 15.8225 124.316 15.8875C124.146 15.9525 123.991 16.0475 123.851 16.1725C123.716 16.2975 123.596 16.45 123.491 16.63C123.386 16.81 123.289 17.015 123.199 17.245V22H121.586V14.35H122.524C122.694 14.35 122.811 14.3825 122.876 14.4475C122.941 14.5075 122.986 14.615 123.011 14.77L123.109 15.7675ZM75.045 40H73.2825V29.2H75.045V40ZM78.6941 33.3625C78.8591 33.1925 79.0291 33.04 79.2041 32.905C79.3841 32.765 79.5741 32.645 79.7741 32.545C79.9741 32.445 80.1866 32.3675 80.4116 32.3125C80.6366 32.2575 80.8816 32.23 81.1466 32.23C81.5666 32.23 81.9341 32.3 82.2491 32.44C82.5691 32.58 82.8366 32.7775 83.0516 33.0325C83.2716 33.2875 83.4366 33.595 83.5466 33.955C83.6566 34.31 83.7116 34.7025 83.7116 35.1325V40H82.1066V35.1325C82.1066 34.6175 81.9866 34.2175 81.7466 33.9325C81.5116 33.6475 81.1516 33.505 80.6666 33.505C80.3066 33.505 79.9716 33.5875 79.6616 33.7525C79.3566 33.9175 79.0691 34.1425 78.7991 34.4275V40H77.1866V32.35H78.1616C78.3816 32.35 78.5216 32.4525 78.5816 32.6575L78.6941 33.3625ZM85.9805 40V33.6325L85.2305 33.5275C85.1055 33.5025 85.003 33.4575 84.923 33.3925C84.848 33.3275 84.8105 33.235 84.8105 33.115V32.455H85.9805V31.81C85.9805 31.375 86.043 30.985 86.168 30.64C86.298 30.295 86.4805 30.0025 86.7155 29.7625C86.9555 29.5225 87.2455 29.34 87.5855 29.215C87.9255 29.085 88.308 29.02 88.733 29.02C88.908 29.02 89.073 29.0325 89.228 29.0575C89.388 29.0825 89.543 29.12 89.693 29.17L89.663 29.98C89.653 30.115 89.5855 30.195 89.4605 30.22C89.3405 30.245 89.188 30.2575 89.003 30.2575C88.778 30.2575 88.5755 30.285 88.3955 30.34C88.2155 30.39 88.0605 30.4775 87.9305 30.6025C87.8055 30.7275 87.708 30.8925 87.638 31.0975C87.573 31.3025 87.5405 31.5575 87.5405 31.8625V32.455H89.633V33.6175H87.593V40H85.9805ZM92.3029 33.7675C92.5429 33.2825 92.8329 32.9025 93.1729 32.6275C93.5129 32.3475 93.9204 32.2075 94.3954 32.2075C94.5604 32.2075 94.7154 32.2275 94.8604 32.2675C95.0054 32.3025 95.1354 32.3575 95.2504 32.4325L95.1379 33.6475C95.1179 33.7325 95.0854 33.7925 95.0404 33.8275C95.0004 33.8575 94.9454 33.8725 94.8754 33.8725C94.8004 33.8725 94.6929 33.86 94.5529 33.835C94.4129 33.805 94.2654 33.79 94.1104 33.79C93.8854 33.79 93.6854 33.8225 93.5104 33.8875C93.3404 33.9525 93.1854 34.0475 93.0454 34.1725C92.9104 34.2975 92.7904 34.45 92.6854 34.63C92.5804 34.81 92.4829 35.015 92.3929 35.245V40H90.7804V32.35H91.7179C91.8879 32.35 92.0054 32.3825 92.0704 32.4475C92.1354 32.5075 92.1804 32.615 92.2054 32.77L92.3029 33.7675ZM100.288 36.655C99.7128 36.675 99.2278 36.7225 98.8328 36.7975C98.4378 36.8675 98.1178 36.96 97.8728 37.075C97.6278 37.185 97.4503 37.3175 97.3403 37.4725C97.2353 37.6275 97.1828 37.7975 97.1828 37.9825C97.1828 38.1625 97.2103 38.3175 97.2653 38.4475C97.3253 38.5725 97.4053 38.6775 97.5053 38.7625C97.6103 38.8425 97.7303 38.9025 97.8653 38.9425C98.0053 38.9775 98.1578 38.995 98.3228 38.995C98.7428 38.995 99.1028 38.9175 99.4028 38.7625C99.7078 38.6025 100.003 38.3725 100.288 38.0725V36.655ZM96.0128 33.415C96.8778 32.61 97.9078 32.2075 99.1028 32.2075C99.5428 32.2075 99.9328 32.28 100.273 32.425C100.618 32.565 100.905 32.765 101.135 33.025C101.37 33.285 101.548 33.595 101.668 33.955C101.793 34.31 101.855 34.705 101.855 35.14V40H101.135C100.98 40 100.863 39.9775 100.783 39.9325C100.703 39.8825 100.635 39.785 100.58 39.64L100.423 39.0175C100.228 39.1925 100.035 39.35 99.8453 39.49C99.6553 39.625 99.4578 39.74 99.2528 39.835C99.0528 39.93 98.8353 40 98.6003 40.045C98.3703 40.095 98.1153 40.12 97.8353 40.12C97.5253 40.12 97.2353 40.0775 96.9653 39.9925C96.7003 39.9075 96.4703 39.78 96.2753 39.61C96.0803 39.435 95.9253 39.22 95.8103 38.965C95.7003 38.71 95.6453 38.41 95.6453 38.065C95.6453 37.77 95.7228 37.4825 95.8778 37.2025C96.0378 36.9225 96.2978 36.6725 96.6578 36.4525C97.0228 36.2275 97.5003 36.0425 98.0903 35.8975C98.6853 35.7525 99.4178 35.67 100.288 35.65V35.14C100.288 34.59 100.17 34.18 99.9353 33.91C99.7003 33.64 99.3553 33.505 98.9003 33.505C98.5903 33.505 98.3303 33.545 98.1203 33.625C97.9103 33.7 97.7278 33.7825 97.5728 33.8725C97.4178 33.9625 97.2803 34.0475 97.1603 34.1275C97.0403 34.2025 96.9128 34.24 96.7778 34.24C96.6678 34.24 96.5728 34.2125 96.4928 34.1575C96.4178 34.0975 96.3553 34.025 96.3053 33.94L96.0128 33.415ZM108.312 33.7375C108.272 33.8075 108.227 33.8575 108.177 33.8875C108.127 33.9175 108.064 33.9325 107.989 33.9325C107.904 33.9325 107.812 33.9075 107.712 33.8575C107.612 33.8025 107.494 33.7425 107.359 33.6775C107.224 33.6125 107.064 33.555 106.879 33.505C106.699 33.45 106.487 33.4225 106.242 33.4225C106.042 33.4225 105.859 33.4475 105.694 33.4975C105.534 33.5425 105.397 33.61 105.282 33.7C105.172 33.785 105.087 33.8875 105.027 34.0075C104.967 34.1225 104.937 34.2475 104.937 34.3825C104.937 34.5625 104.992 34.7125 105.102 34.8325C105.212 34.9525 105.357 35.0575 105.537 35.1475C105.717 35.2325 105.922 35.31 106.152 35.38C106.382 35.45 106.617 35.525 106.857 35.605C107.097 35.685 107.332 35.7775 107.562 35.8825C107.792 35.9875 107.997 36.1175 108.177 36.2725C108.357 36.4225 108.502 36.6075 108.612 36.8275C108.722 37.0425 108.777 37.305 108.777 37.615C108.777 37.975 108.712 38.3075 108.582 38.6125C108.452 38.9175 108.262 39.1825 108.012 39.4075C107.762 39.6325 107.449 39.8075 107.074 39.9325C106.704 40.0575 106.279 40.12 105.799 40.12C105.534 40.12 105.277 40.095 105.027 40.045C104.782 40 104.547 39.9375 104.322 39.8575C104.102 39.7725 103.894 39.6725 103.699 39.5575C103.509 39.4425 103.339 39.3175 103.189 39.1825L103.564 38.5675C103.609 38.4925 103.664 38.435 103.729 38.395C103.799 38.35 103.884 38.3275 103.984 38.3275C104.089 38.3275 104.192 38.3625 104.292 38.4325C104.397 38.4975 104.517 38.57 104.652 38.65C104.792 38.73 104.959 38.805 105.154 38.875C105.349 38.94 105.592 38.9725 105.882 38.9725C106.122 38.9725 106.329 38.945 106.504 38.89C106.679 38.83 106.824 38.75 106.939 38.65C107.054 38.55 107.139 38.4375 107.194 38.3125C107.249 38.1825 107.277 38.045 107.277 37.9C107.277 37.705 107.222 37.545 107.112 37.42C107.002 37.295 106.854 37.1875 106.669 37.0975C106.489 37.0075 106.282 36.9275 106.047 36.8575C105.817 36.7875 105.582 36.7125 105.342 36.6325C105.102 36.5525 104.864 36.46 104.629 36.355C104.399 36.25 104.192 36.1175 104.007 35.9575C103.827 35.7925 103.682 35.595 103.572 35.365C103.462 35.13 103.407 34.845 103.407 34.51C103.407 34.205 103.467 33.915 103.587 33.64C103.712 33.365 103.892 33.1225 104.127 32.9125C104.367 32.7025 104.659 32.5375 105.004 32.4175C105.354 32.2925 105.757 32.23 106.212 32.23C106.727 32.23 107.194 32.3125 107.614 32.4775C108.034 32.6425 108.387 32.8675 108.672 33.1525L108.312 33.7375ZM112.745 40.12C112.11 40.12 111.62 39.9425 111.275 39.5875C110.935 39.2275 110.765 38.7225 110.765 38.0725V33.6175H109.925C109.835 33.6175 109.757 33.59 109.692 33.535C109.627 33.475 109.595 33.3875 109.595 33.2725V32.62L110.832 32.44L111.185 30.2275C111.21 30.1425 111.252 30.075 111.312 30.025C111.372 29.97 111.452 29.9425 111.552 29.9425H112.377V32.455H114.5V33.6175H112.377V37.96C112.377 38.235 112.445 38.445 112.58 38.59C112.715 38.735 112.895 38.8075 113.12 38.8075C113.245 38.8075 113.352 38.7925 113.442 38.7625C113.532 38.7275 113.61 38.6925 113.675 38.6575C113.74 38.6175 113.795 38.5825 113.84 38.5525C113.89 38.5175 113.937 38.5 113.982 38.5C114.072 38.5 114.145 38.55 114.2 38.65L114.68 39.4375C114.43 39.6575 114.135 39.8275 113.795 39.9475C113.455 40.0625 113.105 40.12 112.745 40.12ZM117.293 33.7675C117.533 33.2825 117.823 32.9025 118.163 32.6275C118.503 32.3475 118.911 32.2075 119.386 32.2075C119.551 32.2075 119.706 32.2275 119.851 32.2675C119.996 32.3025 120.126 32.3575 120.241 32.4325L120.128 33.6475C120.108 33.7325 120.076 33.7925 120.031 33.8275C119.991 33.8575 119.936 33.8725 119.866 33.8725C119.791 33.8725 119.683 33.86 119.543 33.835C119.403 33.805 119.256 33.79 119.101 33.79C118.876 33.79 118.676 33.8225 118.501 33.8875C118.331 33.9525 118.176 34.0475 118.036 34.1725C117.901 34.2975 117.781 34.45 117.676 34.63C117.571 34.81 117.473 35.015 117.383 35.245V40H115.771V32.35H116.708C116.878 32.35 116.996 32.3825 117.061 32.4475C117.126 32.5075 117.171 32.615 117.196 32.77L117.293 33.7675ZM127.758 32.35V40H126.783C126.568 40 126.43 39.8975 126.37 39.6925L126.25 38.98C126.09 39.15 125.92 39.305 125.74 39.445C125.565 39.585 125.378 39.705 125.178 39.805C124.978 39.905 124.763 39.9825 124.533 40.0375C124.308 40.0925 124.065 40.12 123.805 40.12C123.385 40.12 123.015 40.05 122.695 39.91C122.375 39.77 122.105 39.5725 121.885 39.3175C121.67 39.0625 121.508 38.7575 121.398 38.4025C121.288 38.0425 121.233 37.6475 121.233 37.2175V32.35H122.845V37.2175C122.845 37.7325 122.963 38.1325 123.198 38.4175C123.438 38.7025 123.8 38.845 124.285 38.845C124.64 38.845 124.97 38.765 125.275 38.605C125.585 38.44 125.875 38.215 126.145 37.93V32.35H127.758ZM135.123 33.85C135.073 33.915 135.026 33.965 134.981 34C134.936 34.035 134.871 34.0525 134.786 34.0525C134.701 34.0525 134.611 34.0225 134.516 33.9625C134.426 33.9025 134.316 33.8375 134.186 33.7675C134.061 33.6925 133.908 33.625 133.728 33.565C133.548 33.505 133.323 33.475 133.053 33.475C132.703 33.475 132.396 33.5375 132.131 33.6625C131.871 33.7875 131.651 33.9675 131.471 34.2025C131.296 34.4325 131.163 34.715 131.073 35.05C130.988 35.38 130.946 35.7525 130.946 36.1675C130.946 36.5975 130.993 36.98 131.088 37.315C131.183 37.65 131.318 37.9325 131.493 38.1625C131.673 38.3925 131.888 38.5675 132.138 38.6875C132.393 38.8075 132.678 38.8675 132.993 38.8675C133.303 38.8675 133.556 38.83 133.751 38.755C133.946 38.68 134.108 38.5975 134.238 38.5075C134.368 38.4175 134.478 38.335 134.568 38.26C134.663 38.185 134.763 38.1475 134.868 38.1475C134.998 38.1475 135.098 38.1975 135.168 38.2975L135.626 38.89C135.441 39.115 135.236 39.305 135.011 39.46C134.786 39.615 134.548 39.7425 134.298 39.8425C134.048 39.9375 133.788 40.005 133.518 40.045C133.248 40.09 132.976 40.1125 132.701 40.1125C132.226 40.1125 131.781 40.025 131.366 39.85C130.956 39.67 130.596 39.4125 130.286 39.0775C129.981 38.7375 129.738 38.325 129.558 37.84C129.383 37.35 129.296 36.7925 129.296 36.1675C129.296 35.6025 129.376 35.08 129.536 34.6C129.696 34.115 129.928 33.6975 130.233 33.3475C130.543 32.9975 130.926 32.725 131.381 32.53C131.836 32.33 132.361 32.23 132.956 32.23C133.511 32.23 133.998 32.32 134.418 32.5C134.843 32.68 135.221 32.935 135.551 33.265L135.123 33.85ZM139.375 40.12C138.74 40.12 138.25 39.9425 137.905 39.5875C137.565 39.2275 137.395 38.7225 137.395 38.0725V33.6175H136.555C136.465 33.6175 136.388 33.59 136.323 33.535C136.258 33.475 136.225 33.3875 136.225 33.2725V32.62L137.463 32.44L137.815 30.2275C137.84 30.1425 137.883 30.075 137.943 30.025C138.003 29.97 138.083 29.9425 138.183 29.9425H139.008V32.455H141.13V33.6175H139.008V37.96C139.008 38.235 139.075 38.445 139.21 38.59C139.345 38.735 139.525 38.8075 139.75 38.8075C139.875 38.8075 139.983 38.7925 140.073 38.7625C140.163 38.7275 140.24 38.6925 140.305 38.6575C140.37 38.6175 140.425 38.5825 140.47 38.5525C140.52 38.5175 140.568 38.5 140.613 38.5C140.703 38.5 140.775 38.55 140.83 38.65L141.31 39.4375C141.06 39.6575 140.765 39.8275 140.425 39.9475C140.085 40.0625 139.735 40.12 139.375 40.12ZM148.851 32.35V40H147.876C147.661 40 147.524 39.8975 147.464 39.6925L147.344 38.98C147.184 39.15 147.014 39.305 146.834 39.445C146.659 39.585 146.471 39.705 146.271 39.805C146.071 39.905 145.856 39.9825 145.626 40.0375C145.401 40.0925 145.159 40.12 144.899 40.12C144.479 40.12 144.109 40.05 143.789 39.91C143.469 39.77 143.199 39.5725 142.979 39.3175C142.764 39.0625 142.601 38.7575 142.491 38.4025C142.381 38.0425 142.326 37.6475 142.326 37.2175V32.35H143.939V37.2175C143.939 37.7325 144.056 38.1325 144.291 38.4175C144.531 38.7025 144.894 38.845 145.379 38.845C145.734 38.845 146.064 38.765 146.369 38.605C146.679 38.44 146.969 38.215 147.239 37.93V32.35H148.851ZM152.332 33.7675C152.572 33.2825 152.862 32.9025 153.202 32.6275C153.542 32.3475 153.95 32.2075 154.425 32.2075C154.59 32.2075 154.745 32.2275 154.89 32.2675C155.035 32.3025 155.165 32.3575 155.28 32.4325L155.167 33.6475C155.147 33.7325 155.115 33.7925 155.07 33.8275C155.03 33.8575 154.975 33.8725 154.905 33.8725C154.83 33.8725 154.722 33.86 154.582 33.835C154.442 33.805 154.295 33.79 154.14 33.79C153.915 33.79 153.715 33.8225 153.54 33.8875C153.37 33.9525 153.215 34.0475 153.075 34.1725C152.94 34.2975 152.82 34.45 152.715 34.63C152.61 34.81 152.512 35.015 152.422 35.245V40H150.81V32.35H151.747C151.917 32.35 152.035 32.3825 152.1 32.4475C152.165 32.5075 152.21 32.615 152.235 32.77L152.332 33.7675ZM161.101 35.3125C161.101 35.0425 161.061 34.7925 160.981 34.5625C160.906 34.3275 160.793 34.125 160.643 33.955C160.493 33.78 160.306 33.645 160.081 33.55C159.861 33.45 159.606 33.4 159.316 33.4C158.731 33.4 158.271 33.5675 157.936 33.9025C157.601 34.2375 157.388 34.7075 157.298 35.3125H161.101ZM157.253 36.3025C157.273 36.7375 157.341 37.115 157.456 37.435C157.571 37.75 157.723 38.0125 157.913 38.2225C158.108 38.4325 158.338 38.59 158.603 38.695C158.873 38.795 159.173 38.845 159.503 38.845C159.818 38.845 160.091 38.81 160.321 38.74C160.551 38.665 160.751 38.585 160.921 38.5C161.091 38.41 161.236 38.33 161.356 38.26C161.476 38.185 161.586 38.1475 161.686 38.1475C161.816 38.1475 161.916 38.1975 161.986 38.2975L162.443 38.89C162.253 39.115 162.038 39.305 161.798 39.46C161.558 39.615 161.303 39.7425 161.033 39.8425C160.763 39.9375 160.486 40.005 160.201 40.045C159.916 40.09 159.638 40.1125 159.368 40.1125C158.838 40.1125 158.346 40.025 157.891 39.85C157.441 39.67 157.048 39.4075 156.713 39.0625C156.383 38.7175 156.123 38.29 155.933 37.78C155.748 37.27 155.656 36.6825 155.656 36.0175C155.656 35.4875 155.738 34.9925 155.903 34.5325C156.073 34.0725 156.313 33.6725 156.623 33.3325C156.938 32.9925 157.318 32.725 157.763 32.53C158.213 32.33 158.721 32.23 159.286 32.23C159.756 32.23 160.191 32.3075 160.591 32.4625C160.991 32.6125 161.336 32.835 161.626 33.13C161.916 33.425 162.141 33.7875 162.301 34.2175C162.466 34.6425 162.548 35.1275 162.548 35.6725C162.548 35.9225 162.521 36.09 162.466 36.175C162.411 36.26 162.311 36.3025 162.166 36.3025H157.253ZM82.7625 52.6C82.7625 53.4 82.6325 54.1325 82.3725 54.7975C82.1125 55.4575 81.745 56.025 81.27 56.5C80.8 56.975 80.2325 57.345 79.5675 57.61C78.9075 57.87 78.1725 58 77.3625 58H73.2825V47.2H77.3625C78.1725 47.2 78.9075 47.3325 79.5675 47.5975C80.2325 47.8575 80.8 48.225 81.27 48.7C81.745 49.175 82.1125 49.745 82.3725 50.41C82.6325 51.07 82.7625 51.8 82.7625 52.6ZM80.97 52.6C80.97 51.98 80.885 51.4225 80.715 50.9275C80.55 50.4325 80.31 50.015 79.995 49.675C79.685 49.335 79.3075 49.075 78.8625 48.895C78.4175 48.71 77.9175 48.6175 77.3625 48.6175H75.045V56.5825H77.3625C77.9175 56.5825 78.4175 56.4925 78.8625 56.3125C79.3075 56.1325 79.685 55.8725 79.995 55.5325C80.31 55.1875 80.55 54.77 80.715 54.28C80.885 53.785 80.97 53.225 80.97 52.6ZM89.3086 53.3125C89.3086 53.0425 89.2686 52.7925 89.1886 52.5625C89.1136 52.3275 89.0011 52.125 88.8511 51.955C88.7011 51.78 88.5136 51.645 88.2886 51.55C88.0686 51.45 87.8136 51.4 87.5236 51.4C86.9386 51.4 86.4786 51.5675 86.1436 51.9025C85.8086 52.2375 85.5961 52.7075 85.5061 53.3125H89.3086ZM85.4611 54.3025C85.4811 54.7375 85.5486 55.115 85.6636 55.435C85.7786 55.75 85.9311 56.0125 86.1211 56.2225C86.3161 56.4325 86.5461 56.59 86.8111 56.695C87.0811 56.795 87.3811 56.845 87.7111 56.845C88.0261 56.845 88.2986 56.81 88.5286 56.74C88.7586 56.665 88.9586 56.585 89.1286 56.5C89.2986 56.41 89.4436 56.33 89.5636 56.26C89.6836 56.185 89.7936 56.1475 89.8936 56.1475C90.0236 56.1475 90.1236 56.1975 90.1936 56.2975L90.6511 56.89C90.4611 57.115 90.2461 57.305 90.0061 57.46C89.7661 57.615 89.5111 57.7425 89.2411 57.8425C88.9711 57.9375 88.6936 58.005 88.4086 58.045C88.1236 58.09 87.8461 58.1125 87.5761 58.1125C87.0461 58.1125 86.5536 58.025 86.0986 57.85C85.6486 57.67 85.2561 57.4075 84.9211 57.0625C84.5911 56.7175 84.3311 56.29 84.1411 55.78C83.9561 55.27 83.8636 54.6825 83.8636 54.0175C83.8636 53.4875 83.9461 52.9925 84.1111 52.5325C84.2811 52.0725 84.5211 51.6725 84.8311 51.3325C85.1461 50.9925 85.5261 50.725 85.9711 50.53C86.4211 50.33 86.9286 50.23 87.4936 50.23C87.9636 50.23 88.3986 50.3075 88.7986 50.4625C89.1986 50.6125 89.5436 50.835 89.8336 51.13C90.1236 51.425 90.3486 51.7875 90.5086 52.2175C90.6736 52.6425 90.7561 53.1275 90.7561 53.6725C90.7561 53.9225 90.7286 54.09 90.6736 54.175C90.6186 54.26 90.5186 54.3025 90.3736 54.3025H85.4611ZM98.8191 50.35L95.7441 58H94.2891L91.2141 50.35H92.5416C92.6666 50.35 92.7691 50.3825 92.8491 50.4475C92.9341 50.5075 92.9891 50.58 93.0141 50.665L94.7091 55.12C94.7791 55.33 94.8416 55.5375 94.8966 55.7425C94.9516 55.9475 94.9991 56.155 95.0391 56.365C95.0791 56.155 95.1266 55.95 95.1816 55.75C95.2416 55.545 95.3066 55.335 95.3766 55.12L97.1016 50.665C97.1316 50.575 97.1866 50.5 97.2666 50.44C97.3466 50.38 97.4441 50.35 97.5591 50.35H98.8191ZM104.719 53.3125C104.719 53.0425 104.679 52.7925 104.599 52.5625C104.524 52.3275 104.411 52.125 104.261 51.955C104.111 51.78 103.924 51.645 103.699 51.55C103.479 51.45 103.224 51.4 102.934 51.4C102.349 51.4 101.889 51.5675 101.554 51.9025C101.219 52.2375 101.006 52.7075 100.916 53.3125H104.719ZM100.871 54.3025C100.891 54.7375 100.959 55.115 101.074 55.435C101.189 55.75 101.341 56.0125 101.531 56.2225C101.726 56.4325 101.956 56.59 102.221 56.695C102.491 56.795 102.791 56.845 103.121 56.845C103.436 56.845 103.709 56.81 103.939 56.74C104.169 56.665 104.369 56.585 104.539 56.5C104.709 56.41 104.854 56.33 104.974 56.26C105.094 56.185 105.204 56.1475 105.304 56.1475C105.434 56.1475 105.534 56.1975 105.604 56.2975L106.061 56.89C105.871 57.115 105.656 57.305 105.416 57.46C105.176 57.615 104.921 57.7425 104.651 57.8425C104.381 57.9375 104.104 58.005 103.819 58.045C103.534 58.09 103.256 58.1125 102.986 58.1125C102.456 58.1125 101.964 58.025 101.509 57.85C101.059 57.67 100.666 57.4075 100.331 57.0625C100.001 56.7175 99.7413 56.29 99.5513 55.78C99.3663 55.27 99.2738 54.6825 99.2738 54.0175C99.2738 53.4875 99.3563 52.9925 99.5213 52.5325C99.6913 52.0725 99.9313 51.6725 100.241 51.3325C100.556 50.9925 100.936 50.725 101.381 50.53C101.831 50.33 102.339 50.23 102.904 50.23C103.374 50.23 103.809 50.3075 104.209 50.4625C104.609 50.6125 104.954 50.835 105.244 51.13C105.534 51.425 105.759 51.7875 105.919 52.2175C106.084 52.6425 106.166 53.1275 106.166 53.6725C106.166 53.9225 106.139 54.09 106.084 54.175C106.029 54.26 105.929 54.3025 105.784 54.3025H100.871ZM109.313 46.9V58H107.7V46.9H109.313ZM114.61 50.23C115.175 50.23 115.685 50.3225 116.14 50.5075C116.6 50.6925 116.99 50.955 117.31 51.295C117.635 51.635 117.885 52.0475 118.06 52.5325C118.235 53.0175 118.323 53.5625 118.323 54.1675C118.323 54.7725 118.235 55.3175 118.06 55.8025C117.885 56.2875 117.635 56.7025 117.31 57.0475C116.99 57.3875 116.6 57.65 116.14 57.835C115.685 58.02 115.175 58.1125 114.61 58.1125C114.04 58.1125 113.525 58.02 113.065 57.835C112.61 57.65 112.22 57.3875 111.895 57.0475C111.57 56.7025 111.32 56.2875 111.145 55.8025C110.97 55.3175 110.883 54.7725 110.883 54.1675C110.883 53.5625 110.97 53.0175 111.145 52.5325C111.32 52.0475 111.57 51.635 111.895 51.295C112.22 50.955 112.61 50.6925 113.065 50.5075C113.525 50.3225 114.04 50.23 114.61 50.23ZM114.61 56.8525C115.3 56.8525 115.813 56.6225 116.148 56.1625C116.488 55.6975 116.658 55.035 116.658 54.175C116.658 53.315 116.488 52.6525 116.148 52.1875C115.813 51.7175 115.3 51.4825 114.61 51.4825C113.91 51.4825 113.39 51.7175 113.05 52.1875C112.71 52.6525 112.54 53.315 112.54 54.175C112.54 55.035 112.71 55.6975 113.05 56.1625C113.39 56.6225 113.91 56.8525 114.61 56.8525ZM121.485 56.08C121.71 56.37 121.955 56.575 122.22 56.695C122.49 56.81 122.787 56.8675 123.112 56.8675C123.742 56.8675 124.232 56.6375 124.582 56.1775C124.937 55.7175 125.115 55.0325 125.115 54.1225C125.115 53.6525 125.075 53.2525 124.995 52.9225C124.915 52.5875 124.8 52.315 124.65 52.105C124.5 51.895 124.317 51.7425 124.102 51.6475C123.887 51.5525 123.645 51.505 123.375 51.505C122.965 51.505 122.61 51.595 122.31 51.775C122.015 51.95 121.74 52.2025 121.485 52.5325V56.08ZM121.402 51.46C121.722 51.085 122.085 50.7825 122.49 50.5525C122.9 50.3225 123.375 50.2075 123.915 50.2075C124.345 50.2075 124.735 50.295 125.085 50.47C125.435 50.64 125.735 50.89 125.985 51.22C126.235 51.55 126.427 51.96 126.562 52.45C126.702 52.935 126.772 53.4925 126.772 54.1225C126.772 54.6875 126.695 55.215 126.54 55.705C126.39 56.19 126.172 56.6125 125.887 56.9725C125.602 57.3275 125.257 57.6075 124.852 57.8125C124.447 58.0125 123.99 58.1125 123.48 58.1125C123.03 58.1125 122.647 58.04 122.332 57.895C122.022 57.75 121.74 57.55 121.485 57.295V60.5425H119.872V50.35H120.847C121.067 50.35 121.207 50.4525 121.267 50.6575L121.402 51.46ZM128.339 58V50.35H129.314C129.534 50.35 129.674 50.4525 129.734 50.6575L129.839 51.325C129.979 51.165 130.124 51.02 130.274 50.89C130.424 50.755 130.584 50.64 130.754 50.545C130.929 50.445 131.114 50.3675 131.309 50.3125C131.509 50.2575 131.724 50.23 131.954 50.23C132.199 50.23 132.424 50.265 132.629 50.335C132.834 50.405 133.014 50.505 133.169 50.635C133.329 50.765 133.466 50.9225 133.581 51.1075C133.696 51.2925 133.791 51.5 133.866 51.73C133.981 51.465 134.126 51.2375 134.301 51.0475C134.476 50.8575 134.671 50.7025 134.886 50.5825C135.101 50.4625 135.329 50.375 135.569 50.32C135.814 50.26 136.061 50.23 136.311 50.23C136.721 50.23 137.086 50.295 137.406 50.425C137.731 50.555 138.004 50.745 138.224 50.995C138.449 51.24 138.619 51.5425 138.734 51.9025C138.849 52.2625 138.906 52.6725 138.906 53.1325V58H137.294V53.1325C137.294 52.5925 137.176 52.1875 136.941 51.9175C136.711 51.6425 136.369 51.505 135.914 51.505C135.709 51.505 135.516 51.54 135.336 51.61C135.156 51.68 134.999 51.7825 134.864 51.9175C134.729 52.0525 134.621 52.2225 134.541 52.4275C134.466 52.6275 134.429 52.8625 134.429 53.1325V58H132.816V53.1325C132.816 52.5725 132.704 52.1625 132.479 51.9025C132.254 51.6375 131.924 51.505 131.489 51.505C131.189 51.505 130.911 51.5825 130.656 51.7375C130.401 51.8875 130.166 52.095 129.951 52.36V58H128.339ZM145.808 53.3125C145.808 53.0425 145.768 52.7925 145.688 52.5625C145.613 52.3275 145.5 52.125 145.35 51.955C145.2 51.78 145.013 51.645 144.788 51.55C144.568 51.45 144.313 51.4 144.023 51.4C143.438 51.4 142.978 51.5675 142.643 51.9025C142.308 52.2375 142.095 52.7075 142.005 53.3125H145.808ZM141.96 54.3025C141.98 54.7375 142.048 55.115 142.163 55.435C142.278 55.75 142.43 56.0125 142.62 56.2225C142.815 56.4325 143.045 56.59 143.31 56.695C143.58 56.795 143.88 56.845 144.21 56.845C144.525 56.845 144.798 56.81 145.028 56.74C145.258 56.665 145.458 56.585 145.628 56.5C145.798 56.41 145.943 56.33 146.063 56.26C146.183 56.185 146.293 56.1475 146.393 56.1475C146.523 56.1475 146.623 56.1975 146.693 56.2975L147.15 56.89C146.96 57.115 146.745 57.305 146.505 57.46C146.265 57.615 146.01 57.7425 145.74 57.8425C145.47 57.9375 145.193 58.005 144.908 58.045C144.623 58.09 144.345 58.1125 144.075 58.1125C143.545 58.1125 143.053 58.025 142.598 57.85C142.148 57.67 141.755 57.4075 141.42 57.0625C141.09 56.7175 140.83 56.29 140.64 55.78C140.455 55.27 140.363 54.6825 140.363 54.0175C140.363 53.4875 140.445 52.9925 140.61 52.5325C140.78 52.0725 141.02 51.6725 141.33 51.3325C141.645 50.9925 142.025 50.725 142.47 50.53C142.92 50.33 143.428 50.23 143.993 50.23C144.463 50.23 144.898 50.3075 145.298 50.4625C145.698 50.6125 146.043 50.835 146.333 51.13C146.623 51.425 146.848 51.7875 147.008 52.2175C147.173 52.6425 147.255 53.1275 147.255 53.6725C147.255 53.9225 147.228 54.09 147.173 54.175C147.118 54.26 147.018 54.3025 146.873 54.3025H141.96ZM150.266 51.3625C150.431 51.1925 150.601 51.04 150.776 50.905C150.956 50.765 151.146 50.645 151.346 50.545C151.546 50.445 151.759 50.3675 151.984 50.3125C152.209 50.2575 152.454 50.23 152.719 50.23C153.139 50.23 153.506 50.3 153.821 50.44C154.141 50.58 154.409 50.7775 154.624 51.0325C154.844 51.2875 155.009 51.595 155.119 51.955C155.229 52.31 155.284 52.7025 155.284 53.1325V58H153.679V53.1325C153.679 52.6175 153.559 52.2175 153.319 51.9325C153.084 51.6475 152.724 51.505 152.239 51.505C151.879 51.505 151.544 51.5875 151.234 51.7525C150.929 51.9175 150.641 52.1425 150.371 52.4275V58H148.759V50.35H149.734C149.954 50.35 150.094 50.4525 150.154 50.6575L150.266 51.3625ZM159.517 58.12C158.882 58.12 158.392 57.9425 158.047 57.5875C157.707 57.2275 157.537 56.7225 157.537 56.0725V51.6175H156.697C156.607 51.6175 156.53 51.59 156.465 51.535C156.4 51.475 156.367 51.3875 156.367 51.2725V50.62L157.605 50.44L157.957 48.2275C157.982 48.1425 158.025 48.075 158.085 48.025C158.145 47.97 158.225 47.9425 158.325 47.9425H159.15V50.455H161.272V51.6175H159.15V55.96C159.15 56.235 159.217 56.445 159.352 56.59C159.487 56.735 159.667 56.8075 159.892 56.8075C160.017 56.8075 160.125 56.7925 160.215 56.7625C160.305 56.7275 160.382 56.6925 160.447 56.6575C160.512 56.6175 160.567 56.5825 160.612 56.5525C160.662 56.5175 160.71 56.5 160.755 56.5C160.845 56.5 160.917 56.55 160.972 56.65L161.452 57.4375C161.202 57.6575 160.907 57.8275 160.567 57.9475C160.227 58.0625 159.877 58.12 159.517 58.12Z" fill="white"/>
<path d="M27.8333 36.6667V31.0017C26.5133 30.3967 25.285 29.6634 24.1666 28.8017V36.6667H27.8333ZM24.1666 44H20.5V40.3334H16.8333V36.6667H20.5V23.8334H24.1666V26.455C27.4666 29.3334 31.995 31.1667 37 31.1667C42.005 31.1667 46.5333 29.3334 49.8333 26.455V23.8334H53.5V36.6667H57.1666V40.3334H53.5V44H49.8333V40.3334H24.1666V44ZM46.1666 31.0017V36.6667H49.8333V28.8017C48.715 29.6634 47.4866 30.3967 46.1666 31.0017ZM44.3333 36.6667V31.7534C43.16 32.175 41.9316 32.4867 40.6666 32.7067V36.6667H44.3333ZM38.8333 36.6667V32.9267L37 33L35.1666 32.9267V36.6667H38.8333ZM33.3333 36.6667V32.7067C32.0683 32.4867 30.84 32.175 29.6666 31.7534V36.6667H33.3333Z" fill="white"/>
</svg>
