<svg width="168" height="69" viewBox="0 0 168 69" fill="none" xmlns="http://www.w3.org/2000/svg">
<rect width="168" height="69" rx="8" fill="#5AC6CA"/>
<path d="M70.2225 30.2V41H69.33C69.195 41 69.08 40.9775 68.985 40.9325C68.89 40.8825 68.8 40.8025 68.715 40.6925L62.7825 33.0725C62.7975 33.2175 62.8075 33.3625 62.8125 33.5075C62.8225 33.6475 62.8275 33.7775 62.8275 33.8975V41H61.2825V30.2H62.1975C62.2725 30.2 62.335 30.205 62.385 30.215C62.44 30.22 62.49 30.2325 62.535 30.2525C62.58 30.2725 62.6225 30.3025 62.6625 30.3425C62.7025 30.3825 62.745 30.4325 62.79 30.4925L68.73 38.12C68.715 37.965 68.7025 37.8125 68.6925 37.6625C68.6875 37.5125 68.685 37.3725 68.685 37.2425V30.2H70.2225ZM74.5587 31.6175V35.075H78.7812V36.4925H74.5587V41H72.7962V30.2H79.5312V31.6175H74.5587ZM88.7101 31.6625H85.3426V41H83.5951V31.6625H80.2201V30.2H88.7101V31.6625ZM93.7119 41V34.6325L92.9619 34.5275C92.8369 34.5025 92.7344 34.4575 92.6544 34.3925C92.5794 34.3275 92.5419 34.235 92.5419 34.115V33.455H93.7119V32.81C93.7119 32.375 93.7744 31.985 93.8994 31.64C94.0294 31.295 94.2119 31.0025 94.4469 30.7625C94.6869 30.5225 94.9769 30.34 95.3169 30.215C95.6569 30.085 96.0394 30.02 96.4644 30.02C96.6394 30.02 96.8044 30.0325 96.9594 30.0575C97.1194 30.0825 97.2744 30.12 97.4244 30.17L97.3944 30.98C97.3844 31.115 97.3169 31.195 97.1919 31.22C97.0719 31.245 96.9194 31.2575 96.7344 31.2575C96.5094 31.2575 96.3069 31.285 96.1269 31.34C95.9469 31.39 95.7919 31.4775 95.6619 31.6025C95.5369 31.7275 95.4394 31.8925 95.3694 32.0975C95.3044 32.3025 95.2719 32.5575 95.2719 32.8625V33.455H97.3644V34.6175H95.3244V41H93.7119ZM101.6 33.23C102.165 33.23 102.675 33.3225 103.13 33.5075C103.59 33.6925 103.98 33.955 104.3 34.295C104.625 34.635 104.875 35.0475 105.05 35.5325C105.225 36.0175 105.312 36.5625 105.312 37.1675C105.312 37.7725 105.225 38.3175 105.05 38.8025C104.875 39.2875 104.625 39.7025 104.3 40.0475C103.98 40.3875 103.59 40.65 103.13 40.835C102.675 41.02 102.165 41.1125 101.6 41.1125C101.03 41.1125 100.515 41.02 100.055 40.835C99.5996 40.65 99.2096 40.3875 98.8846 40.0475C98.5596 39.7025 98.3096 39.2875 98.1346 38.8025C97.9596 38.3175 97.8721 37.7725 97.8721 37.1675C97.8721 36.5625 97.9596 36.0175 98.1346 35.5325C98.3096 35.0475 98.5596 34.635 98.8846 34.295C99.2096 33.955 99.5996 33.6925 100.055 33.5075C100.515 33.3225 101.03 33.23 101.6 33.23ZM101.6 39.8525C102.29 39.8525 102.802 39.6225 103.137 39.1625C103.477 38.6975 103.647 38.035 103.647 37.175C103.647 36.315 103.477 35.6525 103.137 35.1875C102.802 34.7175 102.29 34.4825 101.6 34.4825C100.9 34.4825 100.38 34.7175 100.04 35.1875C99.6996 35.6525 99.5296 36.315 99.5296 37.175C99.5296 38.035 99.6996 38.6975 100.04 39.1625C100.38 39.6225 100.9 39.8525 101.6 39.8525ZM108.384 34.7675C108.624 34.2825 108.914 33.9025 109.254 33.6275C109.594 33.3475 110.001 33.2075 110.476 33.2075C110.641 33.2075 110.796 33.2275 110.941 33.2675C111.086 33.3025 111.216 33.3575 111.331 33.4325L111.219 34.6475C111.199 34.7325 111.166 34.7925 111.121 34.8275C111.081 34.8575 111.026 34.8725 110.956 34.8725C110.881 34.8725 110.774 34.86 110.634 34.835C110.494 34.805 110.346 34.79 110.191 34.79C109.966 34.79 109.766 34.8225 109.591 34.8875C109.421 34.9525 109.266 35.0475 109.126 35.1725C108.991 35.2975 108.871 35.45 108.766 35.63C108.661 35.81 108.564 36.015 108.474 36.245V41H106.861V33.35H107.799C107.969 33.35 108.086 33.3825 108.151 33.4475C108.216 33.5075 108.261 33.615 108.286 33.77L108.384 34.7675ZM127.602 30.2V41H126.057V33.5975C126.057 33.4775 126.059 33.3475 126.064 33.2075C126.074 33.0625 126.087 32.9175 126.102 32.7725L122.629 39.185C122.494 39.45 122.287 39.5825 122.007 39.5825H121.759C121.474 39.5825 121.267 39.45 121.137 39.185L117.612 32.7575C117.627 32.9025 117.637 33.0475 117.642 33.1925C117.652 33.3375 117.657 33.4725 117.657 33.5975V41H116.112V30.2H117.424C117.579 30.2 117.699 30.215 117.784 30.245C117.869 30.27 117.947 30.3525 118.017 30.4925L121.482 36.77C121.557 36.915 121.627 37.065 121.692 37.22C121.762 37.37 121.824 37.525 121.879 37.685C121.939 37.525 122.002 37.3675 122.067 37.2125C122.137 37.0525 122.209 36.9 122.284 36.755L125.697 30.4925C125.767 30.3525 125.844 30.27 125.929 30.245C126.014 30.215 126.134 30.2 126.289 30.2H127.602ZM136.163 33.35V41H135.188C134.973 41 134.835 40.8975 134.775 40.6925L134.655 39.98C134.495 40.15 134.325 40.305 134.145 40.445C133.97 40.585 133.783 40.705 133.583 40.805C133.383 40.905 133.168 40.9825 132.938 41.0375C132.713 41.0925 132.47 41.12 132.21 41.12C131.79 41.12 131.42 41.05 131.1 40.91C130.78 40.77 130.51 40.5725 130.29 40.3175C130.075 40.0625 129.913 39.7575 129.803 39.4025C129.693 39.0425 129.638 38.6475 129.638 38.2175V33.35H131.25V38.2175C131.25 38.7325 131.368 39.1325 131.603 39.4175C131.843 39.7025 132.205 39.845 132.69 39.845C133.045 39.845 133.375 39.765 133.68 39.605C133.99 39.44 134.28 39.215 134.55 38.93V33.35H136.163ZM142.689 34.7375C142.649 34.8075 142.604 34.8575 142.554 34.8875C142.504 34.9175 142.441 34.9325 142.366 34.9325C142.281 34.9325 142.189 34.9075 142.089 34.8575C141.989 34.8025 141.871 34.7425 141.736 34.6775C141.601 34.6125 141.441 34.555 141.256 34.505C141.076 34.45 140.864 34.4225 140.619 34.4225C140.419 34.4225 140.236 34.4475 140.071 34.4975C139.911 34.5425 139.774 34.61 139.659 34.7C139.549 34.785 139.464 34.8875 139.404 35.0075C139.344 35.1225 139.314 35.2475 139.314 35.3825C139.314 35.5625 139.369 35.7125 139.479 35.8325C139.589 35.9525 139.734 36.0575 139.914 36.1475C140.094 36.2325 140.299 36.31 140.529 36.38C140.759 36.45 140.994 36.525 141.234 36.605C141.474 36.685 141.709 36.7775 141.939 36.8825C142.169 36.9875 142.374 37.1175 142.554 37.2725C142.734 37.4225 142.879 37.6075 142.989 37.8275C143.099 38.0425 143.154 38.305 143.154 38.615C143.154 38.975 143.089 39.3075 142.959 39.6125C142.829 39.9175 142.639 40.1825 142.389 40.4075C142.139 40.6325 141.826 40.8075 141.451 40.9325C141.081 41.0575 140.656 41.12 140.176 41.12C139.911 41.12 139.654 41.095 139.404 41.045C139.159 41 138.924 40.9375 138.699 40.8575C138.479 40.7725 138.271 40.6725 138.076 40.5575C137.886 40.4425 137.716 40.3175 137.566 40.1825L137.941 39.5675C137.986 39.4925 138.041 39.435 138.106 39.395C138.176 39.35 138.261 39.3275 138.361 39.3275C138.466 39.3275 138.569 39.3625 138.669 39.4325C138.774 39.4975 138.894 39.57 139.029 39.65C139.169 39.73 139.336 39.805 139.531 39.875C139.726 39.94 139.969 39.9725 140.259 39.9725C140.499 39.9725 140.706 39.945 140.881 39.89C141.056 39.83 141.201 39.75 141.316 39.65C141.431 39.55 141.516 39.4375 141.571 39.3125C141.626 39.1825 141.654 39.045 141.654 38.9C141.654 38.705 141.599 38.545 141.489 38.42C141.379 38.295 141.231 38.1875 141.046 38.0975C140.866 38.0075 140.659 37.9275 140.424 37.8575C140.194 37.7875 139.959 37.7125 139.719 37.6325C139.479 37.5525 139.241 37.46 139.006 37.355C138.776 37.25 138.569 37.1175 138.384 36.9575C138.204 36.7925 138.059 36.595 137.949 36.365C137.839 36.13 137.784 35.845 137.784 35.51C137.784 35.205 137.844 34.915 137.964 34.64C138.089 34.365 138.269 34.1225 138.504 33.9125C138.744 33.7025 139.036 33.5375 139.381 33.4175C139.731 33.2925 140.134 33.23 140.589 33.23C141.104 33.23 141.571 33.3125 141.991 33.4775C142.411 33.6425 142.764 33.8675 143.049 34.1525L142.689 34.7375ZM146.349 33.35V41H144.737V33.35H146.349ZM146.619 31.04C146.619 31.185 146.589 31.3225 146.529 31.4525C146.474 31.5825 146.397 31.6975 146.297 31.7975C146.197 31.8925 146.079 31.97 145.944 32.03C145.814 32.085 145.674 32.1125 145.524 32.1125C145.379 32.1125 145.242 32.085 145.112 32.03C144.987 31.97 144.877 31.8925 144.782 31.7975C144.687 31.6975 144.609 31.5825 144.549 31.4525C144.494 31.3225 144.467 31.185 144.467 31.04C144.467 30.89 144.494 30.75 144.549 30.62C144.609 30.49 144.687 30.3775 144.782 30.2825C144.877 30.1825 144.987 30.105 145.112 30.05C145.242 29.99 145.379 29.96 145.524 29.96C145.674 29.96 145.814 29.99 145.944 30.05C146.079 30.105 146.197 30.1825 146.297 30.2825C146.397 30.3775 146.474 30.49 146.529 30.62C146.589 30.75 146.619 30.89 146.619 31.04ZM153.783 34.85C153.733 34.915 153.685 34.965 153.64 35C153.595 35.035 153.53 35.0525 153.445 35.0525C153.36 35.0525 153.27 35.0225 153.175 34.9625C153.085 34.9025 152.975 34.8375 152.845 34.7675C152.72 34.6925 152.568 34.625 152.388 34.565C152.208 34.505 151.983 34.475 151.713 34.475C151.363 34.475 151.055 34.5375 150.79 34.6625C150.53 34.7875 150.31 34.9675 150.13 35.2025C149.955 35.4325 149.823 35.715 149.733 36.05C149.648 36.38 149.605 36.7525 149.605 37.1675C149.605 37.5975 149.653 37.98 149.748 38.315C149.843 38.65 149.978 38.9325 150.153 39.1625C150.333 39.3925 150.548 39.5675 150.798 39.6875C151.053 39.8075 151.338 39.8675 151.653 39.8675C151.963 39.8675 152.215 39.83 152.41 39.755C152.605 39.68 152.768 39.5975 152.898 39.5075C153.028 39.4175 153.138 39.335 153.228 39.26C153.323 39.185 153.423 39.1475 153.528 39.1475C153.658 39.1475 153.758 39.1975 153.828 39.2975L154.285 39.89C154.1 40.115 153.895 40.305 153.67 40.46C153.445 40.615 153.208 40.7425 152.958 40.8425C152.708 40.9375 152.448 41.005 152.178 41.045C151.908 41.09 151.635 41.1125 151.36 41.1125C150.885 41.1125 150.44 41.025 150.025 40.85C149.615 40.67 149.255 40.4125 148.945 40.0775C148.64 39.7375 148.398 39.325 148.218 38.84C148.043 38.35 147.955 37.7925 147.955 37.1675C147.955 36.6025 148.035 36.08 148.195 35.6C148.355 35.115 148.588 34.6975 148.893 34.3475C149.203 33.9975 149.585 33.725 150.04 33.53C150.495 33.33 151.02 33.23 151.615 33.23C152.17 33.23 152.658 33.32 153.078 33.5C153.503 33.68 153.88 33.935 154.21 34.265L153.783 34.85Z" fill="white"/>
<path d="M45.3742 21.4995V41.187C45.3761 42.3181 44.9998 43.4174 44.3052 44.3101C43.6105 45.2028 42.6374 45.8377 41.5404 46.1137C40.4435 46.3897 39.2858 46.2911 38.2513 45.8335C37.2169 45.3758 36.3651 44.5855 35.8315 43.5882C35.2979 42.5908 35.113 41.4437 35.3063 40.3292C35.4996 39.2147 36.0599 38.1968 36.8982 37.4374C37.7365 36.678 38.8047 36.2206 39.9328 36.1381C41.0609 36.0555 42.1842 36.3525 43.1242 36.9817V28.5648L27.3742 32.5023V45.687C27.3761 46.8181 26.9999 47.9174 26.3052 48.8101C25.6105 49.7028 24.6374 50.3377 23.5404 50.6137C22.4435 50.8897 21.2858 50.7911 20.2513 50.3335C19.2169 49.8758 18.3651 49.0855 17.8315 48.0882C17.2979 47.0908 17.113 45.9437 17.3063 44.8292C17.4996 43.7147 18.0599 42.6968 18.8982 41.9374C19.7365 41.178 20.8047 40.7206 21.9328 40.6381C23.0609 40.5555 24.1842 40.8525 25.1242 41.4817V25.9995C25.1242 25.7486 25.2082 25.5049 25.3627 25.3072C25.5171 25.1095 25.7333 24.9692 25.9768 24.9085L43.9768 20.4085C44.1424 20.366 44.3157 20.3623 44.483 20.3978C44.6503 20.4332 44.8071 20.5068 44.9413 20.6129C45.076 20.7181 45.1849 20.8527 45.2599 21.0063C45.3349 21.1599 45.374 21.3286 45.3742 21.4995Z" fill="white"/>
</svg>
