<svg width="168" height="69" viewBox="0 0 168 69" fill="none" xmlns="http://www.w3.org/2000/svg">
<rect width="168" height="69" rx="8" fill="#F77F00"/>
<path d="M67.8595 12.64V22H67.086C66.969 22 66.8693 21.9805 66.787 21.9415C66.7047 21.8982 66.6267 21.8288 66.553 21.7335L61.4115 15.1295C61.4245 15.2552 61.4332 15.3808 61.4375 15.5065C61.4462 15.6278 61.4505 15.7405 61.4505 15.8445V22H60.1115V12.64H60.9045C60.9695 12.64 61.0237 12.6443 61.067 12.653C61.1147 12.6573 61.158 12.6682 61.197 12.6855C61.236 12.7028 61.2728 12.7288 61.3075 12.7635C61.3422 12.7982 61.379 12.8415 61.418 12.8935L66.566 19.504C66.553 19.3697 66.5422 19.2375 66.5335 19.1075C66.5292 18.9775 66.527 18.8562 66.527 18.7435V12.64H67.8595ZM71.6175 13.8685V16.865H75.277V18.0935H71.6175V22H70.09V12.64H75.927V13.8685H71.6175ZM83.8821 13.9075H80.9636V22H79.4491V13.9075H76.5241V12.64H83.8821V13.9075ZM88.217 22V16.4815L87.567 16.3905C87.4587 16.3688 87.3698 16.3298 87.3005 16.2735C87.2355 16.2172 87.203 16.137 87.203 16.033V15.461H88.217V14.902C88.217 14.525 88.2712 14.187 88.3795 13.888C88.4922 13.589 88.6503 13.3355 88.854 13.1275C89.062 12.9195 89.3133 12.7613 89.608 12.653C89.9027 12.5403 90.2342 12.484 90.6025 12.484C90.7542 12.484 90.8972 12.4948 91.0315 12.5165C91.1702 12.5382 91.3045 12.5707 91.4345 12.614L91.4085 13.316C91.3998 13.433 91.3413 13.5023 91.233 13.524C91.129 13.5457 90.9968 13.5565 90.8365 13.5565C90.6415 13.5565 90.466 13.5803 90.31 13.628C90.154 13.6713 90.0197 13.7472 89.907 13.8555C89.7987 13.9638 89.7142 14.1068 89.6535 14.2845C89.5972 14.4622 89.569 14.6832 89.569 14.9475V15.461H91.3825V16.4685H89.6145V22H88.217ZM95.053 15.266C95.5426 15.266 95.9846 15.3462 96.379 15.5065C96.7776 15.6668 97.1156 15.8943 97.393 16.189C97.6746 16.4837 97.8913 16.8412 98.043 17.2615C98.1946 17.6818 98.2705 18.1542 98.2705 18.6785C98.2705 19.2028 98.1946 19.6752 98.043 20.0955C97.8913 20.5158 97.6746 20.8755 97.393 21.1745C97.1156 21.4692 96.7776 21.6967 96.379 21.857C95.9846 22.0173 95.5426 22.0975 95.053 22.0975C94.559 22.0975 94.1126 22.0173 93.714 21.857C93.3196 21.6967 92.9816 21.4692 92.7 21.1745C92.4183 20.8755 92.2016 20.5158 92.05 20.0955C91.8983 19.6752 91.8225 19.2028 91.8225 18.6785C91.8225 18.1542 91.8983 17.6818 92.05 17.2615C92.2016 16.8412 92.4183 16.4837 92.7 16.189C92.9816 15.8943 93.3196 15.6668 93.714 15.5065C94.1126 15.3462 94.559 15.266 95.053 15.266ZM95.053 21.0055C95.651 21.0055 96.0951 20.8062 96.3855 20.4075C96.6801 20.0045 96.8275 19.4303 96.8275 18.685C96.8275 17.9397 96.6801 17.3655 96.3855 16.9625C96.0951 16.5552 95.651 16.3515 95.053 16.3515C94.4463 16.3515 93.9956 16.5552 93.701 16.9625C93.4063 17.3655 93.259 17.9397 93.259 18.685C93.259 19.4303 93.4063 20.0045 93.701 20.4075C93.9956 20.8062 94.4463 21.0055 95.053 21.0055ZM100.933 16.5985C101.141 16.1782 101.392 15.8488 101.687 15.6105C101.981 15.3678 102.335 15.2465 102.746 15.2465C102.889 15.2465 103.024 15.2638 103.149 15.2985C103.275 15.3288 103.388 15.3765 103.487 15.4415L103.39 16.4945C103.372 16.5682 103.344 16.6202 103.305 16.6505C103.271 16.6765 103.223 16.6895 103.162 16.6895C103.097 16.6895 103.004 16.6787 102.883 16.657C102.761 16.631 102.634 16.618 102.499 16.618C102.304 16.618 102.131 16.6462 101.979 16.7025C101.832 16.7588 101.698 16.8412 101.576 16.9495C101.459 17.0578 101.355 17.19 101.264 17.346C101.173 17.502 101.089 17.6797 101.011 17.879V22H99.6132V15.37H100.426C100.573 15.37 100.675 15.3982 100.731 15.4545C100.788 15.5065 100.827 15.5997 100.848 15.734L100.933 16.5985ZM62.8285 33.125C63.1752 33.125 63.4785 33.0838 63.7385 33.0015C63.9985 32.9148 64.2152 32.7957 64.3885 32.644C64.5618 32.4923 64.6918 32.3125 64.7785 32.1045C64.8652 31.8922 64.9085 31.6582 64.9085 31.4025C64.9085 30.8912 64.7395 30.5012 64.4015 30.2325C64.0635 29.9638 63.5522 29.8295 62.8675 29.8295H61.6325V33.125H62.8285ZM67.2355 38H65.877C65.6083 38 65.4133 37.896 65.292 37.688L63.108 34.5355C63.0343 34.4272 62.9542 34.3492 62.8675 34.3015C62.7808 34.2538 62.6508 34.23 62.4775 34.23H61.6325V38H60.1115V28.64H62.8675C63.4828 28.64 64.0115 28.7028 64.4535 28.8285C64.8998 28.9542 65.266 29.134 65.552 29.368C65.838 29.5977 66.0482 29.875 66.1825 30.2C66.3212 30.525 66.3905 30.8868 66.3905 31.2855C66.3905 31.6105 66.3407 31.9138 66.241 32.1955C66.1457 32.4772 66.0048 32.7328 65.8185 32.9625C65.6365 33.1922 65.4112 33.3915 65.1425 33.5605C64.8738 33.7295 64.5683 33.8617 64.226 33.957C64.4123 34.0697 64.5727 34.2278 64.707 34.4315L67.2355 38ZM72.0203 33.9375C72.0203 33.7035 71.9856 33.4868 71.9163 33.2875C71.8513 33.0838 71.7538 32.9083 71.6238 32.761C71.4938 32.6093 71.3313 32.4923 71.1363 32.41C70.9456 32.3233 70.7246 32.28 70.4733 32.28C69.9663 32.28 69.5676 32.4252 69.2773 32.7155C68.987 33.0058 68.8028 33.4132 68.7248 33.9375H72.0203ZM68.6858 34.7955C68.7031 35.1725 68.7616 35.4997 68.8613 35.777C68.961 36.05 69.0931 36.2775 69.2578 36.4595C69.4268 36.6415 69.6261 36.778 69.8558 36.869C70.0898 36.9557 70.3498 36.999 70.6358 36.999C70.9088 36.999 71.145 36.9687 71.3443 36.908C71.5436 36.843 71.717 36.7737 71.8643 36.7C72.0116 36.622 72.1373 36.5527 72.2413 36.492C72.3453 36.427 72.4406 36.3945 72.5273 36.3945C72.64 36.3945 72.7266 36.4378 72.7873 36.5245L73.1838 37.038C73.0191 37.233 72.8328 37.3977 72.6248 37.532C72.4168 37.6663 72.1958 37.7768 71.9618 37.8635C71.7278 37.9458 71.4873 38.0043 71.2403 38.039C70.9933 38.078 70.7528 38.0975 70.5188 38.0975C70.0595 38.0975 69.6326 38.0217 69.2383 37.87C68.8483 37.714 68.5081 37.4865 68.2178 37.1875C67.9318 36.8885 67.7065 36.518 67.5418 36.076C67.3815 35.634 67.3013 35.1248 67.3013 34.5485C67.3013 34.0892 67.3728 33.6602 67.5158 33.2615C67.6631 32.8628 67.8711 32.5162 68.1398 32.2215C68.4128 31.9268 68.7421 31.695 69.1278 31.526C69.5178 31.3527 69.9576 31.266 70.4473 31.266C70.8546 31.266 71.2316 31.3332 71.5783 31.4675C71.925 31.5975 72.224 31.7903 72.4753 32.046C72.7266 32.3017 72.9216 32.6158 73.0603 32.9885C73.2033 33.3568 73.2748 33.7772 73.2748 34.2495C73.2748 34.4662 73.251 34.6113 73.2033 34.685C73.1556 34.7587 73.069 34.7955 72.9433 34.7955H68.6858ZM78.1206 35.101C77.6222 35.1183 77.2019 35.1595 76.8596 35.2245C76.5172 35.2852 76.2399 35.3653 76.0276 35.465C75.8152 35.5603 75.6614 35.6752 75.5661 35.8095C75.4751 35.9438 75.4296 36.0912 75.4296 36.2515C75.4296 36.4075 75.4534 36.5418 75.5011 36.6545C75.5531 36.7628 75.6224 36.8538 75.7091 36.9275C75.8001 36.9968 75.9041 37.0488 76.0211 37.0835C76.1424 37.1138 76.2746 37.129 76.4176 37.129C76.7816 37.129 77.0936 37.0618 77.3536 36.9275C77.6179 36.7888 77.8736 36.5895 78.1206 36.3295V35.101ZM74.4156 32.293C75.1652 31.5953 76.0579 31.2465 77.0936 31.2465C77.4749 31.2465 77.8129 31.3093 78.1076 31.435C78.4066 31.5563 78.6557 31.7297 78.8551 31.955C79.0587 32.1803 79.2126 32.449 79.3166 32.761C79.4249 33.0687 79.4791 33.411 79.4791 33.788V38H78.8551C78.7207 38 78.6189 37.9805 78.5496 37.9415C78.4802 37.8982 78.4217 37.8137 78.3741 37.688L78.2376 37.1485C78.0686 37.3002 77.9017 37.4367 77.7371 37.558C77.5724 37.675 77.4012 37.7747 77.2236 37.857C77.0502 37.9393 76.8617 38 76.6581 38.039C76.4587 38.0823 76.2377 38.104 75.9951 38.104C75.7264 38.104 75.4751 38.0672 75.2411 37.9935C75.0114 37.9198 74.8121 37.8093 74.6431 37.662C74.4741 37.5103 74.3397 37.324 74.2401 37.103C74.1447 36.882 74.0971 36.622 74.0971 36.323C74.0971 36.0673 74.1642 35.8182 74.2986 35.5755C74.4372 35.3328 74.6626 35.1162 74.9746 34.9255C75.2909 34.7305 75.7047 34.5702 76.2161 34.4445C76.7317 34.3188 77.3666 34.2473 78.1206 34.23V33.788C78.1206 33.3113 78.0187 32.956 77.8151 32.722C77.6114 32.488 77.3124 32.371 76.9181 32.371C76.6494 32.371 76.4241 32.4057 76.2421 32.475C76.0601 32.54 75.9019 32.6115 75.7676 32.6895C75.6332 32.7675 75.5141 32.8412 75.4101 32.9105C75.3061 32.9755 75.1956 33.008 75.0786 33.008C74.9832 33.008 74.9009 32.9842 74.8316 32.9365C74.7666 32.8845 74.7124 32.8217 74.6691 32.748L74.4156 32.293ZM82.5396 28.38V38H81.1421V28.38H82.5396ZM93.6054 36.7715L93.5989 38H87.7619V28.64H93.5989V29.8685H89.2894V32.6895H92.7344V33.879H89.2894V36.7715H93.6054ZM98.8491 32.5725C98.8144 32.6332 98.7754 32.6765 98.7321 32.7025C98.6887 32.7285 98.6346 32.7415 98.5696 32.7415C98.4959 32.7415 98.4157 32.7198 98.3291 32.6765C98.2424 32.6288 98.1406 32.5768 98.0236 32.5205C97.9066 32.4642 97.7679 32.4143 97.6076 32.371C97.4516 32.3233 97.2674 32.2995 97.0551 32.2995C96.8817 32.2995 96.7236 32.3212 96.5806 32.3645C96.4419 32.4035 96.3227 32.462 96.2231 32.54C96.1277 32.6137 96.0541 32.7025 96.0021 32.8065C95.9501 32.9062 95.9241 33.0145 95.9241 33.1315C95.9241 33.2875 95.9717 33.4175 96.0671 33.5215C96.1624 33.6255 96.2881 33.7165 96.4441 33.7945C96.6001 33.8682 96.7777 33.9353 96.9771 33.996C97.1764 34.0567 97.3801 34.1217 97.5881 34.191C97.7961 34.2603 97.9997 34.3405 98.1991 34.4315C98.3984 34.5225 98.5761 34.6352 98.7321 34.7695C98.8881 34.8995 99.0137 35.0598 99.1091 35.2505C99.2044 35.4368 99.2521 35.6643 99.2521 35.933C99.2521 36.245 99.1957 36.5332 99.0831 36.7975C98.9704 37.0618 98.8057 37.2915 98.5891 37.4865C98.3724 37.6815 98.1016 37.8332 97.7766 37.9415C97.4559 38.0498 97.0876 38.104 96.6716 38.104C96.4419 38.104 96.2187 38.0823 96.0021 38.039C95.7897 38 95.5861 37.9458 95.3911 37.8765C95.2004 37.8028 95.0206 37.7162 94.8516 37.6165C94.6869 37.5168 94.5396 37.4085 94.4096 37.2915L94.7346 36.7585C94.7736 36.6935 94.8212 36.6437 94.8776 36.609C94.9382 36.57 95.0119 36.5505 95.0986 36.5505C95.1896 36.5505 95.2784 36.5808 95.3651 36.6415C95.4561 36.6978 95.5601 36.7607 95.6771 36.83C95.7984 36.8993 95.9436 36.9643 96.1126 37.025C96.2816 37.0813 96.4917 37.1095 96.7431 37.1095C96.9511 37.1095 97.1309 37.0857 97.2826 37.038C97.4342 36.986 97.5599 36.9167 97.6596 36.83C97.7592 36.7433 97.8329 36.6458 97.8806 36.5375C97.9282 36.4248 97.9521 36.3057 97.9521 36.18C97.9521 36.011 97.9044 35.8723 97.8091 35.764C97.7137 35.6557 97.5859 35.5625 97.4256 35.4845C97.2696 35.4065 97.0897 35.3372 96.8861 35.2765C96.6867 35.2158 96.4831 35.1508 96.2751 35.0815C96.0671 35.0122 95.8612 34.932 95.6576 34.841C95.4582 34.75 95.2784 34.6352 95.1181 34.4965C94.9621 34.3535 94.8364 34.1823 94.7411 33.983C94.6457 33.7793 94.5981 33.5323 94.5981 33.242C94.5981 32.9777 94.6501 32.7263 94.7541 32.488C94.8624 32.2497 95.0184 32.0395 95.2221 31.8575C95.4301 31.6755 95.6836 31.5325 95.9826 31.4285C96.2859 31.3202 96.6347 31.266 97.0291 31.266C97.4754 31.266 97.8806 31.3375 98.2446 31.4805C98.6086 31.6235 98.9141 31.8185 99.1611 32.0655L98.8491 32.5725ZM102.691 38.104C102.141 38.104 101.716 37.9502 101.417 37.6425C101.122 37.3305 100.975 36.8928 100.975 36.3295V32.4685H100.247C100.169 32.4685 100.102 32.4447 100.045 32.397C99.989 32.345 99.9609 32.2692 99.9609 32.1695V31.604L101.033 31.448L101.339 29.5305C101.361 29.4568 101.397 29.3983 101.449 29.355C101.501 29.3073 101.571 29.2835 101.657 29.2835H102.372V31.461H104.212V32.4685H102.372V36.232C102.372 36.4703 102.431 36.6523 102.548 36.778C102.665 36.9037 102.821 36.9665 103.016 36.9665C103.124 36.9665 103.217 36.9535 103.295 36.9275C103.373 36.8972 103.441 36.8668 103.497 36.8365C103.553 36.8018 103.601 36.7715 103.64 36.7455C103.683 36.7152 103.724 36.7 103.763 36.7C103.841 36.7 103.904 36.7433 103.952 36.83L104.368 37.5125C104.151 37.7032 103.896 37.8505 103.601 37.9545C103.306 38.0542 103.003 38.104 102.691 38.104ZM108.856 35.101C108.358 35.1183 107.937 35.1595 107.595 35.2245C107.253 35.2852 106.975 35.3653 106.763 35.465C106.551 35.5603 106.397 35.6752 106.301 35.8095C106.21 35.9438 106.165 36.0912 106.165 36.2515C106.165 36.4075 106.189 36.5418 106.236 36.6545C106.288 36.7628 106.358 36.8538 106.444 36.9275C106.535 36.9968 106.639 37.0488 106.756 37.0835C106.878 37.1138 107.01 37.129 107.153 37.129C107.517 37.129 107.829 37.0618 108.089 36.9275C108.353 36.7888 108.609 36.5895 108.856 36.3295V35.101ZM105.151 32.293C105.901 31.5953 106.793 31.2465 107.829 31.2465C108.21 31.2465 108.548 31.3093 108.843 31.435C109.142 31.5563 109.391 31.7297 109.59 31.955C109.794 32.1803 109.948 32.449 110.052 32.761C110.16 33.0687 110.214 33.411 110.214 33.788V38H109.59C109.456 38 109.354 37.9805 109.285 37.9415C109.216 37.8982 109.157 37.8137 109.109 37.688L108.973 37.1485C108.804 37.3002 108.637 37.4367 108.472 37.558C108.308 37.675 108.137 37.7747 107.959 37.857C107.786 37.9393 107.597 38 107.393 38.039C107.194 38.0823 106.973 38.104 106.73 38.104C106.462 38.104 106.21 38.0672 105.976 37.9935C105.747 37.9198 105.547 37.8093 105.378 37.662C105.209 37.5103 105.075 37.324 104.975 37.103C104.88 36.882 104.832 36.622 104.832 36.323C104.832 36.0673 104.9 35.8182 105.034 35.5755C105.173 35.3328 105.398 35.1162 105.71 34.9255C106.026 34.7305 106.44 34.5702 106.951 34.4445C107.467 34.3188 108.102 34.2473 108.856 34.23V33.788C108.856 33.3113 108.754 32.956 108.55 32.722C108.347 32.488 108.048 32.371 107.653 32.371C107.385 32.371 107.159 32.4057 106.977 32.475C106.795 32.54 106.637 32.6115 106.503 32.6895C106.369 32.7675 106.249 32.8412 106.145 32.9105C106.041 32.9755 105.931 33.008 105.814 33.008C105.719 33.008 105.636 32.9842 105.567 32.9365C105.502 32.8845 105.448 32.8217 105.404 32.748L105.151 32.293ZM113.888 38.104C113.338 38.104 112.913 37.9502 112.614 37.6425C112.319 37.3305 112.172 36.8928 112.172 36.3295V32.4685H111.444C111.366 32.4685 111.299 32.4447 111.243 32.397C111.186 32.345 111.158 32.2692 111.158 32.1695V31.604L112.231 31.448L112.536 29.5305C112.558 29.4568 112.595 29.3983 112.647 29.355C112.699 29.3073 112.768 29.2835 112.855 29.2835H113.57V31.461H115.409V32.4685H113.57V36.232C113.57 36.4703 113.628 36.6523 113.745 36.778C113.862 36.9037 114.018 36.9665 114.213 36.9665C114.321 36.9665 114.415 36.9535 114.493 36.9275C114.571 36.8972 114.638 36.8668 114.694 36.8365C114.75 36.8018 114.798 36.7715 114.837 36.7455C114.88 36.7152 114.922 36.7 114.961 36.7C115.039 36.7 115.101 36.7433 115.149 36.83L115.565 37.5125C115.348 37.7032 115.093 37.8505 114.798 37.9545C114.503 38.0542 114.2 38.104 113.888 38.104ZM120.808 33.9375C120.808 33.7035 120.774 33.4868 120.704 33.2875C120.639 33.0838 120.542 32.9083 120.412 32.761C120.282 32.6093 120.119 32.4923 119.924 32.41C119.734 32.3233 119.513 32.28 119.261 32.28C118.754 32.28 118.356 32.4252 118.065 32.7155C117.775 33.0058 117.591 33.4132 117.513 33.9375H120.808ZM117.474 34.7955C117.491 35.1725 117.55 35.4997 117.649 35.777C117.749 36.05 117.881 36.2775 118.046 36.4595C118.215 36.6415 118.414 36.778 118.644 36.869C118.878 36.9557 119.138 36.999 119.424 36.999C119.697 36.999 119.933 36.9687 120.132 36.908C120.332 36.843 120.505 36.7737 120.652 36.7C120.8 36.622 120.925 36.5527 121.029 36.492C121.133 36.427 121.229 36.3945 121.315 36.3945C121.428 36.3945 121.515 36.4378 121.575 36.5245L121.972 37.038C121.807 37.233 121.621 37.3977 121.413 37.532C121.205 37.6663 120.984 37.7768 120.75 37.8635C120.516 37.9458 120.275 38.0043 120.028 38.039C119.781 38.078 119.541 38.0975 119.307 38.0975C118.848 38.0975 118.421 38.0217 118.026 37.87C117.636 37.714 117.296 37.4865 117.006 37.1875C116.72 36.8885 116.495 36.518 116.33 36.076C116.17 35.634 116.089 35.1248 116.089 34.5485C116.089 34.0892 116.161 33.6602 116.304 33.2615C116.451 32.8628 116.659 32.5162 116.928 32.2215C117.201 31.9268 117.53 31.695 117.916 31.526C118.306 31.3527 118.746 31.266 119.235 31.266C119.643 31.266 120.02 31.3332 120.366 31.4675C120.713 31.5975 121.012 31.7903 121.263 32.046C121.515 32.3017 121.71 32.6158 121.848 32.9885C121.991 33.3568 122.063 33.7772 122.063 34.2495C122.063 34.4662 122.039 34.6113 121.991 34.685C121.944 34.7587 121.857 34.7955 121.731 34.7955H117.474ZM128.865 33.515C128.467 33.749 128.172 34.022 127.981 34.334C127.791 34.646 127.695 34.984 127.695 35.348C127.695 35.6037 127.741 35.8333 127.832 36.037C127.927 36.2363 128.051 36.4053 128.202 36.544C128.358 36.6827 128.536 36.7888 128.735 36.8625C128.939 36.9362 129.149 36.973 129.366 36.973C129.795 36.973 130.185 36.9015 130.536 36.7585C130.887 36.6112 131.199 36.414 131.472 36.167L128.865 33.515ZM135.014 38H133.656C133.582 38 133.515 37.9957 133.454 37.987C133.398 37.9783 133.344 37.9653 133.292 37.948C133.244 37.9263 133.197 37.8982 133.149 37.8635C133.106 37.8288 133.058 37.7833 133.006 37.727L132.226 36.934C131.814 37.298 131.346 37.584 130.822 37.792C130.302 38 129.736 38.104 129.125 38.104C128.77 38.104 128.421 38.0433 128.079 37.922C127.741 37.8007 127.438 37.6273 127.169 37.402C126.9 37.1723 126.684 36.895 126.519 36.57C126.354 36.2407 126.272 35.8702 126.272 35.4585C126.272 35.1595 126.32 34.8778 126.415 34.6135C126.515 34.3492 126.651 34.1043 126.824 33.879C127.002 33.6493 127.21 33.4435 127.448 33.2615C127.687 33.0795 127.949 32.9235 128.235 32.7935C127.988 32.4642 127.808 32.1435 127.695 31.8315C127.583 31.5195 127.526 31.2032 127.526 30.8825C127.526 30.5618 127.585 30.2585 127.702 29.9725C127.819 29.6865 127.988 29.4373 128.209 29.225C128.434 29.0127 128.705 28.8458 129.021 28.7245C129.342 28.5988 129.704 28.536 130.107 28.536C130.471 28.536 130.798 28.5923 131.088 28.705C131.383 28.8177 131.634 28.9693 131.842 29.16C132.055 29.3507 132.219 29.5695 132.336 29.8165C132.458 30.0635 132.529 30.3192 132.551 30.5835L131.667 30.7655C131.589 30.7828 131.515 30.772 131.446 30.733C131.381 30.694 131.331 30.629 131.296 30.538C131.262 30.4253 131.212 30.3148 131.147 30.2065C131.082 30.0938 131.002 29.9942 130.906 29.9075C130.811 29.8208 130.696 29.7515 130.562 29.6995C130.432 29.6432 130.28 29.615 130.107 29.615C129.908 29.615 129.728 29.6475 129.567 29.7125C129.411 29.7775 129.277 29.8685 129.164 29.9855C129.056 30.0982 128.972 30.2303 128.911 30.382C128.855 30.5337 128.826 30.6962 128.826 30.8695C128.826 31.0082 128.842 31.1425 128.872 31.2725C128.902 31.4025 128.952 31.5325 129.021 31.6625C129.091 31.7925 129.177 31.9268 129.281 32.0655C129.39 32.1998 129.52 32.345 129.671 32.501L132.252 35.1595C132.408 34.8735 132.531 34.5767 132.622 34.269C132.713 33.957 132.774 33.6428 132.804 33.3265C132.813 33.2355 132.843 33.164 132.895 33.112C132.947 33.0557 133.017 33.0275 133.103 33.0275H133.968C133.964 33.5692 133.881 34.0913 133.721 34.594C133.565 35.0923 133.344 35.556 133.058 35.985L135.014 38ZM65.0645 50.49L63.7775 47.071C63.6735 46.8067 63.5673 46.4708 63.459 46.0635C63.4113 46.2672 63.3593 46.4557 63.303 46.629C63.2467 46.798 63.1947 46.9475 63.147 47.0775L61.86 50.49H65.0645ZM67.944 54H66.7675C66.6332 54 66.5248 53.9675 66.4425 53.9025C66.3602 53.8332 66.2973 53.7487 66.254 53.649L65.474 51.582H61.444L60.664 53.649C60.6293 53.7357 60.5687 53.8158 60.482 53.8895C60.3953 53.9632 60.287 54 60.157 54H58.9805L62.692 44.64H64.2325L67.944 54ZM73.2851 48.67C73.2417 48.7263 73.2006 48.7697 73.1616 48.8C73.1226 48.8303 73.0662 48.8455 72.9926 48.8455C72.9189 48.8455 72.8409 48.8195 72.7586 48.7675C72.6806 48.7155 72.5852 48.6592 72.4726 48.5985C72.3642 48.5335 72.2321 48.475 72.0761 48.423C71.9201 48.371 71.7251 48.345 71.4911 48.345C71.1877 48.345 70.9212 48.3992 70.6916 48.5075C70.4662 48.6158 70.2756 48.7718 70.1196 48.9755C69.9679 49.1748 69.8531 49.4197 69.7751 49.71C69.7014 49.996 69.6646 50.3188 69.6646 50.6785C69.6646 51.0512 69.7057 51.3827 69.7881 51.673C69.8704 51.9633 69.9874 52.2082 70.1391 52.4075C70.2951 52.6068 70.4814 52.7585 70.6981 52.8625C70.9191 52.9665 71.1661 53.0185 71.4391 53.0185C71.7077 53.0185 71.9266 52.986 72.0956 52.921C72.2646 52.856 72.4054 52.7845 72.5181 52.7065C72.6307 52.6285 72.7261 52.557 72.8041 52.492C72.8864 52.427 72.9731 52.3945 73.0641 52.3945C73.1767 52.3945 73.2634 52.4378 73.3241 52.5245L73.7206 53.038C73.5602 53.233 73.3826 53.3977 73.1876 53.532C72.9926 53.6663 72.7867 53.7768 72.5701 53.8635C72.3534 53.9458 72.1281 54.0043 71.8941 54.039C71.6601 54.078 71.4239 54.0975 71.1856 54.0975C70.7739 54.0975 70.3882 54.0217 70.0286 53.87C69.6732 53.714 69.3612 53.4908 69.0926 53.2005C68.8282 52.9058 68.6181 52.5483 68.4621 52.128C68.3104 51.7033 68.2346 51.2202 68.2346 50.6785C68.2346 50.1888 68.3039 49.736 68.4426 49.32C68.5812 48.8997 68.7827 48.5378 69.0471 48.2345C69.3157 47.9312 69.6472 47.695 70.0416 47.526C70.4359 47.3527 70.8909 47.266 71.4066 47.266C71.8876 47.266 72.3101 47.344 72.6741 47.5C73.0424 47.656 73.3696 47.877 73.6556 48.163L73.2851 48.67ZM76.9702 54.104C76.4198 54.104 75.9952 53.9502 75.6962 53.6425C75.4015 53.3305 75.2542 52.8928 75.2542 52.3295V48.4685H74.5262C74.4482 48.4685 74.381 48.4447 74.3247 48.397C74.2683 48.345 74.2402 48.2692 74.2402 48.1695V47.604L75.3127 47.448L75.6182 45.5305C75.6398 45.4568 75.6767 45.3983 75.7287 45.355C75.7807 45.3073 75.85 45.2835 75.9367 45.2835H76.6517V47.461H78.4912V48.4685H76.6517V52.232C76.6517 52.4703 76.7102 52.6523 76.8272 52.778C76.9442 52.9037 77.1002 52.9665 77.2952 52.9665C77.4035 52.9665 77.4967 52.9535 77.5747 52.9275C77.6527 52.8972 77.7198 52.8668 77.7762 52.8365C77.8325 52.8018 77.8802 52.7715 77.9192 52.7455C77.9625 52.7152 78.0037 52.7 78.0427 52.7C78.1207 52.7 78.1835 52.7433 78.2312 52.83L78.6472 53.5125C78.4305 53.7032 78.1748 53.8505 77.8802 53.9545C77.5855 54.0542 77.2822 54.104 76.9702 54.104ZM85.1827 47.37V54H84.3377C84.1514 54 84.0322 53.9112 83.9802 53.7335L83.8762 53.116C83.7375 53.2633 83.5902 53.3977 83.4342 53.519C83.2825 53.6403 83.12 53.7443 82.9467 53.831C82.7734 53.9177 82.587 53.9848 82.3877 54.0325C82.1927 54.0802 81.9825 54.104 81.7572 54.104C81.3932 54.104 81.0725 54.0433 80.7952 53.922C80.5179 53.8007 80.2839 53.6295 80.0932 53.4085C79.9069 53.1875 79.766 52.9232 79.6707 52.6155C79.5754 52.3035 79.5277 51.9612 79.5277 51.5885V47.37H80.9252V51.5885C80.9252 52.0348 81.027 52.3815 81.2307 52.6285C81.4387 52.8755 81.7529 52.999 82.1732 52.999C82.4809 52.999 82.7669 52.9297 83.0312 52.791C83.2999 52.648 83.5512 52.453 83.7852 52.206V47.37H85.1827ZM90.4223 51.101C89.924 51.1183 89.5037 51.1595 89.1613 51.2245C88.819 51.2852 88.5417 51.3653 88.3293 51.465C88.117 51.5603 87.9632 51.6752 87.8678 51.8095C87.7768 51.9438 87.7313 52.0912 87.7313 52.2515C87.7313 52.4075 87.7552 52.5418 87.8028 52.6545C87.8548 52.7628 87.9242 52.8538 88.0108 52.9275C88.1018 52.9968 88.2058 53.0488 88.3228 53.0835C88.4442 53.1138 88.5763 53.129 88.7193 53.129C89.0833 53.129 89.3953 53.0618 89.6553 52.9275C89.9197 52.7888 90.1753 52.5895 90.4223 52.3295V51.101ZM86.7173 48.293C87.467 47.5953 88.3597 47.2465 89.3953 47.2465C89.7767 47.2465 90.1147 47.3093 90.4093 47.435C90.7083 47.5563 90.9575 47.7297 91.1568 47.955C91.3605 48.1803 91.5143 48.449 91.6183 48.761C91.7267 49.0687 91.7808 49.411 91.7808 49.788V54H91.1568C91.0225 54 90.9207 53.9805 90.8513 53.9415C90.782 53.8982 90.7235 53.8137 90.6758 53.688L90.5393 53.1485C90.3703 53.3002 90.2035 53.4367 90.0388 53.558C89.8742 53.675 89.703 53.7747 89.5253 53.857C89.352 53.9393 89.1635 54 88.9598 54.039C88.7605 54.0823 88.5395 54.104 88.2968 54.104C88.0282 54.104 87.7768 54.0672 87.5428 53.9935C87.3132 53.9198 87.1138 53.8093 86.9448 53.662C86.7758 53.5103 86.6415 53.324 86.5418 53.103C86.4465 52.882 86.3988 52.622 86.3988 52.323C86.3988 52.0673 86.466 51.8182 86.6003 51.5755C86.739 51.3328 86.9643 51.1162 87.2763 50.9255C87.5927 50.7305 88.0065 50.5702 88.5178 50.4445C89.0335 50.3188 89.6683 50.2473 90.4223 50.23V49.788C90.4223 49.3113 90.3205 48.956 90.1168 48.722C89.9132 48.488 89.6142 48.371 89.2198 48.371C88.9512 48.371 88.7258 48.4057 88.5438 48.475C88.3618 48.54 88.2037 48.6115 88.0693 48.6895C87.935 48.7675 87.8158 48.8412 87.7118 48.9105C87.6078 48.9755 87.4973 49.008 87.3803 49.008C87.285 49.008 87.2027 48.9842 87.1333 48.9365C87.0683 48.8845 87.0142 48.8217 86.9708 48.748L86.7173 48.293ZM94.8414 44.38V54H93.4439V44.38H94.8414ZM102.781 49.125C103.127 49.125 103.431 49.0838 103.691 49.0015C103.951 48.9148 104.167 48.7957 104.341 48.644C104.514 48.4923 104.644 48.3125 104.731 48.1045C104.817 47.8922 104.861 47.6582 104.861 47.4025C104.861 46.8912 104.692 46.5012 104.354 46.2325C104.016 45.9638 103.504 45.8295 102.82 45.8295H101.585V49.125H102.781ZM107.188 54H105.829C105.56 54 105.365 53.896 105.244 53.688L103.06 50.5355C102.986 50.4272 102.906 50.3492 102.82 50.3015C102.733 50.2538 102.603 50.23 102.43 50.23H101.585V54H100.064V44.64H102.82C103.435 44.64 103.964 44.7028 104.406 44.8285C104.852 44.9542 105.218 45.134 105.504 45.368C105.79 45.5977 106 45.875 106.135 46.2C106.273 46.525 106.343 46.8868 106.343 47.2855C106.343 47.6105 106.293 47.9138 106.193 48.1955C106.098 48.4772 105.957 48.7328 105.771 48.9625C105.589 49.1922 105.363 49.3915 105.095 49.5605C104.826 49.7295 104.52 49.8617 104.178 49.957C104.364 50.0697 104.525 50.2278 104.659 50.4315L107.188 54ZM111.972 49.9375C111.972 49.7035 111.938 49.4868 111.868 49.2875C111.803 49.0838 111.706 48.9083 111.576 48.761C111.446 48.6093 111.283 48.4923 111.088 48.41C110.898 48.3233 110.677 48.28 110.425 48.28C109.918 48.28 109.52 48.4252 109.229 48.7155C108.939 49.0058 108.755 49.4132 108.677 49.9375H111.972ZM108.638 50.7955C108.655 51.1725 108.714 51.4997 108.813 51.777C108.913 52.05 109.045 52.2775 109.21 52.4595C109.379 52.6415 109.578 52.778 109.808 52.869C110.042 52.9557 110.302 52.999 110.588 52.999C110.861 52.999 111.097 52.9687 111.296 52.908C111.496 52.843 111.669 52.7737 111.816 52.7C111.964 52.622 112.089 52.5527 112.193 52.492C112.297 52.427 112.393 52.3945 112.479 52.3945C112.592 52.3945 112.679 52.4378 112.739 52.5245L113.136 53.038C112.971 53.233 112.785 53.3977 112.577 53.532C112.369 53.6663 112.148 53.7768 111.914 53.8635C111.68 53.9458 111.439 54.0043 111.192 54.039C110.945 54.078 110.705 54.0975 110.471 54.0975C110.012 54.0975 109.585 54.0217 109.19 53.87C108.8 53.714 108.46 53.4865 108.17 53.1875C107.884 52.8885 107.659 52.518 107.494 52.076C107.334 51.634 107.253 51.1248 107.253 50.5485C107.253 50.0892 107.325 49.6602 107.468 49.2615C107.615 48.8628 107.823 48.5162 108.092 48.2215C108.365 47.9268 108.694 47.695 109.08 47.526C109.47 47.3527 109.91 47.266 110.399 47.266C110.807 47.266 111.184 47.3332 111.53 47.4675C111.877 47.5975 112.176 47.7903 112.427 48.046C112.679 48.3017 112.874 48.6158 113.012 48.9885C113.155 49.3568 113.227 49.7772 113.227 50.2495C113.227 50.4662 113.203 50.6113 113.155 50.685C113.108 50.7587 113.021 50.7955 112.895 50.7955H108.638ZM118.073 51.101C117.574 51.1183 117.154 51.1595 116.812 51.2245C116.469 51.2852 116.192 51.3653 115.98 51.465C115.767 51.5603 115.614 51.6752 115.518 51.8095C115.427 51.9438 115.382 52.0912 115.382 52.2515C115.382 52.4075 115.406 52.5418 115.453 52.6545C115.505 52.7628 115.575 52.8538 115.661 52.9275C115.752 52.9968 115.856 53.0488 115.973 53.0835C116.095 53.1138 116.227 53.129 116.37 53.129C116.734 53.129 117.046 53.0618 117.306 52.9275C117.57 52.7888 117.826 52.5895 118.073 52.3295V51.101ZM114.368 48.293C115.117 47.5953 116.01 47.2465 117.046 47.2465C117.427 47.2465 117.765 47.3093 118.06 47.435C118.359 47.5563 118.608 47.7297 118.807 47.955C119.011 48.1803 119.165 48.449 119.269 48.761C119.377 49.0687 119.431 49.411 119.431 49.788V54H118.807C118.673 54 118.571 53.9805 118.502 53.9415C118.432 53.8982 118.374 53.8137 118.326 53.688L118.19 53.1485C118.021 53.3002 117.854 53.4367 117.689 53.558C117.525 53.675 117.353 53.7747 117.176 53.857C117.002 53.9393 116.814 54 116.61 54.039C116.411 54.0823 116.19 54.104 115.947 54.104C115.679 54.104 115.427 54.0672 115.193 53.9935C114.964 53.9198 114.764 53.8093 114.595 53.662C114.426 53.5103 114.292 53.324 114.192 53.103C114.097 52.882 114.049 52.622 114.049 52.323C114.049 52.0673 114.116 51.8182 114.251 51.5755C114.389 51.3328 114.615 51.1162 114.927 50.9255C115.243 50.7305 115.657 50.5702 116.168 50.4445C116.684 50.3188 117.319 50.2473 118.073 50.23V49.788C118.073 49.3113 117.971 48.956 117.767 48.722C117.564 48.488 117.265 48.371 116.87 48.371C116.602 48.371 116.376 48.4057 116.194 48.475C116.012 48.54 115.854 48.6115 115.72 48.6895C115.585 48.7675 115.466 48.8412 115.362 48.9105C115.258 48.9755 115.148 49.008 115.031 49.008C114.935 49.008 114.853 48.9842 114.784 48.9365C114.719 48.8845 114.665 48.8217 114.621 48.748L114.368 48.293ZM122.492 44.38V54H121.094V44.38H122.492ZM133.558 52.7715L133.551 54H127.714V44.64H133.551V45.8685H129.242V48.6895H132.687V49.879H129.242V52.7715H133.558ZM138.801 48.5725C138.767 48.6332 138.728 48.6765 138.684 48.7025C138.641 48.7285 138.587 48.7415 138.522 48.7415C138.448 48.7415 138.368 48.7198 138.281 48.6765C138.195 48.6288 138.093 48.5768 137.976 48.5205C137.859 48.4642 137.72 48.4143 137.56 48.371C137.404 48.3233 137.22 48.2995 137.007 48.2995C136.834 48.2995 136.676 48.3212 136.533 48.3645C136.394 48.4035 136.275 48.462 136.175 48.54C136.08 48.6137 136.006 48.7025 135.954 48.8065C135.902 48.9062 135.876 49.0145 135.876 49.1315C135.876 49.2875 135.924 49.4175 136.019 49.5215C136.115 49.6255 136.24 49.7165 136.396 49.7945C136.552 49.8682 136.73 49.9353 136.929 49.996C137.129 50.0567 137.332 50.1217 137.54 50.191C137.748 50.2603 137.952 50.3405 138.151 50.4315C138.351 50.5225 138.528 50.6352 138.684 50.7695C138.84 50.8995 138.966 51.0598 139.061 51.2505C139.157 51.4368 139.204 51.6643 139.204 51.933C139.204 52.245 139.148 52.5332 139.035 52.7975C138.923 53.0618 138.758 53.2915 138.541 53.4865C138.325 53.6815 138.054 53.8332 137.729 53.9415C137.408 54.0498 137.04 54.104 136.624 54.104C136.394 54.104 136.171 54.0823 135.954 54.039C135.742 54 135.538 53.9458 135.343 53.8765C135.153 53.8028 134.973 53.7162 134.804 53.6165C134.639 53.5168 134.492 53.4085 134.362 53.2915L134.687 52.7585C134.726 52.6935 134.773 52.6437 134.83 52.609C134.89 52.57 134.964 52.5505 135.051 52.5505C135.142 52.5505 135.231 52.5808 135.317 52.6415C135.408 52.6978 135.512 52.7607 135.629 52.83C135.751 52.8993 135.896 52.9643 136.065 53.025C136.234 53.0813 136.444 53.1095 136.695 53.1095C136.903 53.1095 137.083 53.0857 137.235 53.038C137.386 52.986 137.512 52.9167 137.612 52.83C137.711 52.7433 137.785 52.6458 137.833 52.5375C137.88 52.4248 137.904 52.3057 137.904 52.18C137.904 52.011 137.857 51.8723 137.761 51.764C137.666 51.6557 137.538 51.5625 137.378 51.4845C137.222 51.4065 137.042 51.3372 136.838 51.2765C136.639 51.2158 136.435 51.1508 136.227 51.0815C136.019 51.0122 135.813 50.932 135.61 50.841C135.41 50.75 135.231 50.6352 135.07 50.4965C134.914 50.3535 134.789 50.1823 134.693 49.983C134.598 49.7793 134.55 49.5323 134.55 49.242C134.55 48.9777 134.602 48.7263 134.706 48.488C134.815 48.2497 134.971 48.0395 135.174 47.8575C135.382 47.6755 135.636 47.5325 135.935 47.4285C136.238 47.3202 136.587 47.266 136.981 47.266C137.428 47.266 137.833 47.3375 138.197 47.4805C138.561 47.6235 138.866 47.8185 139.113 48.0655L138.801 48.5725ZM142.643 54.104C142.093 54.104 141.668 53.9502 141.369 53.6425C141.074 53.3305 140.927 52.8928 140.927 52.3295V48.4685H140.199C140.121 48.4685 140.054 48.4447 139.998 48.397C139.941 48.345 139.913 48.2692 139.913 48.1695V47.604L140.986 47.448L141.291 45.5305C141.313 45.4568 141.35 45.3983 141.402 45.355C141.454 45.3073 141.523 45.2835 141.61 45.2835H142.325V47.461H144.164V48.4685H142.325V52.232C142.325 52.4703 142.383 52.6523 142.5 52.778C142.617 52.9037 142.773 52.9665 142.968 52.9665C143.076 52.9665 143.17 52.9535 143.248 52.9275C143.326 52.8972 143.393 52.8668 143.449 52.8365C143.505 52.8018 143.553 52.7715 143.592 52.7455C143.635 52.7152 143.677 52.7 143.716 52.7C143.794 52.7 143.856 52.7433 143.904 52.83L144.32 53.5125C144.103 53.7032 143.848 53.8505 143.553 53.9545C143.258 54.0542 142.955 54.104 142.643 54.104ZM148.808 51.101C148.31 51.1183 147.889 51.1595 147.547 51.2245C147.205 51.2852 146.927 51.3653 146.715 51.465C146.503 51.5603 146.349 51.6752 146.254 51.8095C146.163 51.9438 146.117 52.0912 146.117 52.2515C146.117 52.4075 146.141 52.5418 146.189 52.6545C146.241 52.7628 146.31 52.8538 146.397 52.9275C146.488 52.9968 146.592 53.0488 146.709 53.0835C146.83 53.1138 146.962 53.129 147.105 53.129C147.469 53.129 147.781 53.0618 148.041 52.9275C148.305 52.7888 148.561 52.5895 148.808 52.3295V51.101ZM145.103 48.293C145.853 47.5953 146.745 47.2465 147.781 47.2465C148.162 47.2465 148.5 47.3093 148.795 47.435C149.094 47.5563 149.343 47.7297 149.543 47.955C149.746 48.1803 149.9 48.449 150.004 48.761C150.112 49.0687 150.167 49.411 150.167 49.788V54H149.543C149.408 54 149.306 53.9805 149.237 53.9415C149.168 53.8982 149.109 53.8137 149.062 53.688L148.925 53.1485C148.756 53.3002 148.589 53.4367 148.425 53.558C148.26 53.675 148.089 53.7747 147.911 53.857C147.738 53.9393 147.549 54 147.346 54.039C147.146 54.0823 146.925 54.104 146.683 54.104C146.414 54.104 146.163 54.0672 145.929 53.9935C145.699 53.9198 145.5 53.8093 145.331 53.662C145.162 53.5103 145.027 53.324 144.928 53.103C144.832 52.882 144.785 52.622 144.785 52.323C144.785 52.0673 144.852 51.8182 144.986 51.5755C145.125 51.3328 145.35 51.1162 145.662 50.9255C145.978 50.7305 146.392 50.5702 146.904 50.4445C147.419 50.3188 148.054 50.2473 148.808 50.23V49.788C148.808 49.3113 148.706 48.956 148.503 48.722C148.299 48.488 148 48.371 147.606 48.371C147.337 48.371 147.112 48.4057 146.93 48.475C146.748 48.54 146.589 48.6115 146.455 48.6895C146.321 48.7675 146.202 48.8412 146.098 48.9105C145.994 48.9755 145.883 49.008 145.766 49.008C145.671 49.008 145.588 48.9842 145.519 48.9365C145.454 48.8845 145.4 48.8217 145.357 48.748L145.103 48.293ZM153.84 54.104C153.29 54.104 152.865 53.9502 152.566 53.6425C152.272 53.3305 152.124 52.8928 152.124 52.3295V48.4685H151.396C151.318 48.4685 151.251 48.4447 151.195 48.397C151.138 48.345 151.11 48.2692 151.11 48.1695V47.604L152.183 47.448L152.488 45.5305C152.51 45.4568 152.547 45.3983 152.599 45.355C152.651 45.3073 152.72 45.2835 152.807 45.2835H153.522V47.461H155.361V48.4685H153.522V52.232C153.522 52.4703 153.58 52.6523 153.697 52.778C153.814 52.9037 153.97 52.9665 154.165 52.9665C154.274 52.9665 154.367 52.9535 154.445 52.9275C154.523 52.8972 154.59 52.8668 154.646 52.8365C154.703 52.8018 154.75 52.7715 154.789 52.7455C154.833 52.7152 154.874 52.7 154.913 52.7C154.991 52.7 155.054 52.7433 155.101 52.83L155.517 53.5125C155.301 53.7032 155.045 53.8505 154.75 53.9545C154.456 54.0542 154.152 54.104 153.84 54.104ZM160.761 49.9375C160.761 49.7035 160.726 49.4868 160.657 49.2875C160.592 49.0838 160.494 48.9083 160.364 48.761C160.234 48.6093 160.072 48.4923 159.877 48.41C159.686 48.3233 159.465 48.28 159.214 48.28C158.707 48.28 158.308 48.4252 158.018 48.7155C157.727 49.0058 157.543 49.4132 157.465 49.9375H160.761ZM157.426 50.7955C157.443 51.1725 157.502 51.4997 157.602 51.777C157.701 52.05 157.833 52.2775 157.998 52.4595C158.167 52.6415 158.366 52.778 158.596 52.869C158.83 52.9557 159.09 52.999 159.376 52.999C159.649 52.999 159.885 52.9687 160.085 52.908C160.284 52.843 160.457 52.7737 160.605 52.7C160.752 52.622 160.878 52.5527 160.982 52.492C161.086 52.427 161.181 52.3945 161.268 52.3945C161.38 52.3945 161.467 52.4378 161.528 52.5245L161.924 53.038C161.759 53.233 161.573 53.3977 161.365 53.532C161.157 53.6663 160.936 53.7768 160.702 53.8635C160.468 53.9458 160.228 54.0043 159.981 54.039C159.734 54.078 159.493 54.0975 159.259 54.0975C158.8 54.0975 158.373 54.0217 157.979 53.87C157.589 53.714 157.248 53.4865 156.958 53.1875C156.672 52.8885 156.447 52.518 156.282 52.076C156.122 51.634 156.042 51.1248 156.042 50.5485C156.042 50.0892 156.113 49.6602 156.256 49.2615C156.403 48.8628 156.611 48.5162 156.88 48.2215C157.153 47.9268 157.482 47.695 157.868 47.526C158.258 47.3527 158.698 47.266 159.188 47.266C159.595 47.266 159.972 47.3332 160.319 47.4675C160.665 47.5975 160.964 47.7903 161.216 48.046C161.467 48.3017 161.662 48.6158 161.801 48.9885C161.944 49.3568 162.015 49.7772 162.015 50.2495C162.015 50.4662 161.991 50.6113 161.944 50.685C161.896 50.7587 161.809 50.7955 161.684 50.7955H157.426Z" fill="white"/>
<path d="M19.3333 48.3333H24.6666V33.6667H19.3333V48.3333ZM44.6666 41.6667H35.3333L32.5466 40.6933L32.9866 39.44L35.3333 40.3333H39.0933C39.96 40.3333 40.6666 39.6267 40.6666 38.76C40.6666 38.1067 40.2533 37.52 39.64 37.28L29.96 33.6667H27.3333V45.6933L36.6666 48.3333L47.3333 44.3333C47.32 42.8667 46.1466 41.6667 44.6666 41.6667ZM36.6666 21L27.3333 27.6667V31H30L40.8533 35.3467C42.3466 35.9467 43.3333 37.3867 43.3333 39H46V27.6667L36.6666 21ZM36 32.3333H34.6666V31H36V32.3333ZM36 29.6667H34.6666V28.3333H36V29.6667ZM38.6666 32.3333H37.3333V31H38.6666V32.3333ZM38.6666 29.6667H37.3333V28.3333H38.6666V29.6667Z" fill="white"/>
</svg>
