<svg width="168" height="69" viewBox="0 0 168 69" fill="none" xmlns="http://www.w3.org/2000/svg">
<rect width="168" height="69" rx="8" fill="#F77F00"/>
<path d="M71.2225 21.2V32H70.33C70.195 32 70.08 31.9775 69.985 31.9325C69.89 31.8825 69.8 31.8025 69.715 31.6925L63.7825 24.0725C63.7975 24.2175 63.8075 24.3625 63.8125 24.5075C63.8225 24.6475 63.8275 24.7775 63.8275 24.8975V32H62.2825V21.2H63.1975C63.2725 21.2 63.335 21.205 63.385 21.215C63.44 21.22 63.49 21.2325 63.535 21.2525C63.58 21.2725 63.6225 21.3025 63.6625 21.3425C63.7025 21.3825 63.745 21.4325 63.79 21.4925L69.73 29.12C69.715 28.965 69.7025 28.8125 69.6925 28.6625C69.6875 28.5125 69.685 28.3725 69.685 28.2425V21.2H71.2225ZM75.5587 22.6175V26.075H79.7812V27.4925H75.5587V32H73.7962V21.2H80.5312V22.6175H75.5587ZM89.7101 22.6625H86.3426V32H84.5951V22.6625H81.2201V21.2H89.7101V22.6625ZM96.2569 22.6175V26.075H100.479V27.4925H96.2569V32H94.4944V21.2H101.229V22.6175H96.2569ZM105.324 24.23C105.889 24.23 106.399 24.3225 106.854 24.5075C107.314 24.6925 107.704 24.955 108.024 25.295C108.349 25.635 108.599 26.0475 108.774 26.5325C108.949 27.0175 109.037 27.5625 109.037 28.1675C109.037 28.7725 108.949 29.3175 108.774 29.8025C108.599 30.2875 108.349 30.7025 108.024 31.0475C107.704 31.3875 107.314 31.65 106.854 31.835C106.399 32.02 105.889 32.1125 105.324 32.1125C104.754 32.1125 104.239 32.02 103.779 31.835C103.324 31.65 102.934 31.3875 102.609 31.0475C102.284 30.7025 102.034 30.2875 101.859 29.8025C101.684 29.3175 101.597 28.7725 101.597 28.1675C101.597 27.5625 101.684 27.0175 101.859 26.5325C102.034 26.0475 102.284 25.635 102.609 25.295C102.934 24.955 103.324 24.6925 103.779 24.5075C104.239 24.3225 104.754 24.23 105.324 24.23ZM105.324 30.8525C106.014 30.8525 106.527 30.6225 106.862 30.1625C107.202 29.6975 107.372 29.035 107.372 28.175C107.372 27.315 107.202 26.6525 106.862 26.1875C106.527 25.7175 106.014 25.4825 105.324 25.4825C104.624 25.4825 104.104 25.7175 103.764 26.1875C103.424 26.6525 103.254 27.315 103.254 28.175C103.254 29.035 103.424 29.6975 103.764 30.1625C104.104 30.6225 104.624 30.8525 105.324 30.8525ZM112.109 25.7675C112.349 25.2825 112.639 24.9025 112.979 24.6275C113.319 24.3475 113.726 24.2075 114.201 24.2075C114.366 24.2075 114.521 24.2275 114.666 24.2675C114.811 24.3025 114.941 24.3575 115.056 24.4325L114.944 25.6475C114.924 25.7325 114.891 25.7925 114.846 25.8275C114.806 25.8575 114.751 25.8725 114.681 25.8725C114.606 25.8725 114.499 25.86 114.359 25.835C114.219 25.805 114.071 25.79 113.916 25.79C113.691 25.79 113.491 25.8225 113.316 25.8875C113.146 25.9525 112.991 26.0475 112.851 26.1725C112.716 26.2975 112.596 26.45 112.491 26.63C112.386 26.81 112.289 27.015 112.199 27.245V32H110.586V24.35H111.524C111.694 24.35 111.811 24.3825 111.876 24.4475C111.941 24.5075 111.986 24.615 112.011 24.77L112.109 25.7675ZM65.4175 44.375C65.8175 44.375 66.1675 44.3275 66.4675 44.2325C66.7675 44.1325 67.0175 43.995 67.2175 43.82C67.4175 43.645 67.5675 43.4375 67.6675 43.1975C67.7675 42.9525 67.8175 42.6825 67.8175 42.3875C67.8175 41.7975 67.6225 41.3475 67.2325 41.0375C66.8425 40.7275 66.2525 40.5725 65.4625 40.5725H64.0375V44.375H65.4175ZM70.5025 50H68.935C68.625 50 68.4 49.88 68.26 49.64L65.74 46.0025C65.655 45.8775 65.5625 45.7875 65.4625 45.7325C65.3625 45.6775 65.2125 45.65 65.0125 45.65H64.0375V50H62.2825V39.2H65.4625C66.1725 39.2 66.7825 39.2725 67.2925 39.4175C67.8075 39.5625 68.23 39.77 68.56 40.04C68.89 40.305 69.1325 40.625 69.2875 41C69.4475 41.375 69.5275 41.7925 69.5275 42.2525C69.5275 42.6275 69.47 42.9775 69.355 43.3025C69.245 43.6275 69.0825 43.9225 68.8675 44.1875C68.6575 44.4525 68.3975 44.6825 68.0875 44.8775C67.7775 45.0725 67.425 45.225 67.03 45.335C67.245 45.465 67.43 45.6475 67.585 45.8825L70.5025 50ZM76.0234 45.3125C76.0234 45.0425 75.9834 44.7925 75.9034 44.5625C75.8284 44.3275 75.7159 44.125 75.5659 43.955C75.4159 43.78 75.2284 43.645 75.0034 43.55C74.7834 43.45 74.5284 43.4 74.2384 43.4C73.6534 43.4 73.1934 43.5675 72.8584 43.9025C72.5234 44.2375 72.3109 44.7075 72.2209 45.3125H76.0234ZM72.1759 46.3025C72.1959 46.7375 72.2634 47.115 72.3784 47.435C72.4934 47.75 72.6459 48.0125 72.8359 48.2225C73.0309 48.4325 73.2609 48.59 73.5259 48.695C73.7959 48.795 74.0959 48.845 74.4259 48.845C74.7409 48.845 75.0134 48.81 75.2434 48.74C75.4734 48.665 75.6734 48.585 75.8434 48.5C76.0134 48.41 76.1584 48.33 76.2784 48.26C76.3984 48.185 76.5084 48.1475 76.6084 48.1475C76.7384 48.1475 76.8384 48.1975 76.9084 48.2975L77.3659 48.89C77.1759 49.115 76.9609 49.305 76.7209 49.46C76.4809 49.615 76.2259 49.7425 75.9559 49.8425C75.6859 49.9375 75.4084 50.005 75.1234 50.045C74.8384 50.09 74.5609 50.1125 74.2909 50.1125C73.7609 50.1125 73.2684 50.025 72.8134 49.85C72.3634 49.67 71.9709 49.4075 71.6359 49.0625C71.3059 48.7175 71.0459 48.29 70.8559 47.78C70.6709 47.27 70.5784 46.6825 70.5784 46.0175C70.5784 45.4875 70.6609 44.9925 70.8259 44.5325C70.9959 44.0725 71.2359 43.6725 71.5459 43.3325C71.8609 42.9925 72.2409 42.725 72.6859 42.53C73.1359 42.33 73.6434 42.23 74.2084 42.23C74.6784 42.23 75.1134 42.3075 75.5134 42.4625C75.9134 42.6125 76.2584 42.835 76.5484 43.13C76.8384 43.425 77.0634 43.7875 77.2234 44.2175C77.3884 44.6425 77.4709 45.1275 77.4709 45.6725C77.4709 45.9225 77.4434 46.09 77.3884 46.175C77.3334 46.26 77.2334 46.3025 77.0884 46.3025H72.1759ZM83.0622 46.655C82.4872 46.675 82.0022 46.7225 81.6072 46.7975C81.2122 46.8675 80.8922 46.96 80.6472 47.075C80.4022 47.185 80.2247 47.3175 80.1147 47.4725C80.0097 47.6275 79.9572 47.7975 79.9572 47.9825C79.9572 48.1625 79.9847 48.3175 80.0397 48.4475C80.0997 48.5725 80.1797 48.6775 80.2797 48.7625C80.3847 48.8425 80.5047 48.9025 80.6397 48.9425C80.7797 48.9775 80.9322 48.995 81.0972 48.995C81.5172 48.995 81.8772 48.9175 82.1772 48.7625C82.4822 48.6025 82.7772 48.3725 83.0622 48.0725V46.655ZM78.7872 43.415C79.6522 42.61 80.6822 42.2075 81.8772 42.2075C82.3172 42.2075 82.7072 42.28 83.0472 42.425C83.3922 42.565 83.6797 42.765 83.9097 43.025C84.1447 43.285 84.3222 43.595 84.4422 43.955C84.5672 44.31 84.6297 44.705 84.6297 45.14V50H83.9097C83.7547 50 83.6372 49.9775 83.5572 49.9325C83.4772 49.8825 83.4097 49.785 83.3547 49.64L83.1972 49.0175C83.0022 49.1925 82.8097 49.35 82.6197 49.49C82.4297 49.625 82.2322 49.74 82.0272 49.835C81.8272 49.93 81.6097 50 81.3747 50.045C81.1447 50.095 80.8897 50.12 80.6097 50.12C80.2997 50.12 80.0097 50.0775 79.7397 49.9925C79.4747 49.9075 79.2447 49.78 79.0497 49.61C78.8547 49.435 78.6997 49.22 78.5847 48.965C78.4747 48.71 78.4197 48.41 78.4197 48.065C78.4197 47.77 78.4972 47.4825 78.6522 47.2025C78.8122 46.9225 79.0722 46.6725 79.4322 46.4525C79.7972 46.2275 80.2747 46.0425 80.8647 45.8975C81.4597 45.7525 82.1922 45.67 83.0622 45.65V45.14C83.0622 44.59 82.9447 44.18 82.7097 43.91C82.4747 43.64 82.1297 43.505 81.6747 43.505C81.3647 43.505 81.1047 43.545 80.8947 43.625C80.6847 43.7 80.5022 43.7825 80.3472 43.8725C80.1922 43.9625 80.0547 44.0475 79.9347 44.1275C79.8147 44.2025 79.6872 44.24 79.5522 44.24C79.4422 44.24 79.3472 44.2125 79.2672 44.1575C79.1922 44.0975 79.1297 44.025 79.0797 43.94L78.7872 43.415ZM88.1611 38.9V50H86.5486V38.9H88.1611ZM100.929 48.5825L100.922 50H94.1868V39.2H100.922V40.6175H95.9493V43.8725H99.9243V45.245H95.9493V48.5825H100.929ZM106.98 43.7375C106.94 43.8075 106.895 43.8575 106.845 43.8875C106.795 43.9175 106.732 43.9325 106.657 43.9325C106.572 43.9325 106.48 43.9075 106.38 43.8575C106.28 43.8025 106.162 43.7425 106.027 43.6775C105.892 43.6125 105.732 43.555 105.547 43.505C105.367 43.45 105.155 43.4225 104.91 43.4225C104.71 43.4225 104.527 43.4475 104.362 43.4975C104.202 43.5425 104.065 43.61 103.95 43.7C103.84 43.785 103.755 43.8875 103.695 44.0075C103.635 44.1225 103.605 44.2475 103.605 44.3825C103.605 44.5625 103.66 44.7125 103.77 44.8325C103.88 44.9525 104.025 45.0575 104.205 45.1475C104.385 45.2325 104.59 45.31 104.82 45.38C105.05 45.45 105.285 45.525 105.525 45.605C105.765 45.685 106 45.7775 106.23 45.8825C106.46 45.9875 106.665 46.1175 106.845 46.2725C107.025 46.4225 107.17 46.6075 107.28 46.8275C107.39 47.0425 107.445 47.305 107.445 47.615C107.445 47.975 107.38 48.3075 107.25 48.6125C107.12 48.9175 106.93 49.1825 106.68 49.4075C106.43 49.6325 106.117 49.8075 105.742 49.9325C105.372 50.0575 104.947 50.12 104.467 50.12C104.202 50.12 103.945 50.095 103.695 50.045C103.45 50 103.215 49.9375 102.99 49.8575C102.77 49.7725 102.562 49.6725 102.367 49.5575C102.177 49.4425 102.007 49.3175 101.857 49.1825L102.232 48.5675C102.277 48.4925 102.332 48.435 102.397 48.395C102.467 48.35 102.552 48.3275 102.652 48.3275C102.757 48.3275 102.86 48.3625 102.96 48.4325C103.065 48.4975 103.185 48.57 103.32 48.65C103.46 48.73 103.627 48.805 103.822 48.875C104.017 48.94 104.26 48.9725 104.55 48.9725C104.79 48.9725 104.997 48.945 105.172 48.89C105.347 48.83 105.492 48.75 105.607 48.65C105.722 48.55 105.807 48.4375 105.862 48.3125C105.917 48.1825 105.945 48.045 105.945 47.9C105.945 47.705 105.89 47.545 105.78 47.42C105.67 47.295 105.522 47.1875 105.337 47.0975C105.157 47.0075 104.95 46.9275 104.715 46.8575C104.485 46.7875 104.25 46.7125 104.01 46.6325C103.77 46.5525 103.532 46.46 103.297 46.355C103.067 46.25 102.86 46.1175 102.675 45.9575C102.495 45.7925 102.35 45.595 102.24 45.365C102.13 45.13 102.075 44.845 102.075 44.51C102.075 44.205 102.135 43.915 102.255 43.64C102.38 43.365 102.56 43.1225 102.795 42.9125C103.035 42.7025 103.327 42.5375 103.672 42.4175C104.022 42.2925 104.425 42.23 104.88 42.23C105.395 42.23 105.862 42.3125 106.282 42.4775C106.702 42.6425 107.055 42.8675 107.34 43.1525L106.98 43.7375ZM111.413 50.12C110.778 50.12 110.288 49.9425 109.943 49.5875C109.603 49.2275 109.433 48.7225 109.433 48.0725V43.6175H108.593C108.503 43.6175 108.425 43.59 108.36 43.535C108.295 43.475 108.263 43.3875 108.263 43.2725V42.62L109.5 42.44L109.853 40.2275C109.878 40.1425 109.92 40.075 109.98 40.025C110.04 39.97 110.12 39.9425 110.22 39.9425H111.045V42.455H113.168V43.6175H111.045V47.96C111.045 48.235 111.113 48.445 111.248 48.59C111.383 48.735 111.563 48.8075 111.788 48.8075C111.913 48.8075 112.02 48.7925 112.11 48.7625C112.2 48.7275 112.278 48.6925 112.343 48.6575C112.408 48.6175 112.463 48.5825 112.508 48.5525C112.558 48.5175 112.605 48.5 112.65 48.5C112.74 48.5 112.813 48.55 112.868 48.65L113.348 49.4375C113.098 49.6575 112.803 49.8275 112.463 49.9475C112.123 50.0625 111.773 50.12 111.413 50.12ZM118.526 46.655C117.951 46.675 117.466 46.7225 117.071 46.7975C116.676 46.8675 116.356 46.96 116.111 47.075C115.866 47.185 115.689 47.3175 115.579 47.4725C115.474 47.6275 115.421 47.7975 115.421 47.9825C115.421 48.1625 115.449 48.3175 115.504 48.4475C115.564 48.5725 115.644 48.6775 115.744 48.7625C115.849 48.8425 115.969 48.9025 116.104 48.9425C116.244 48.9775 116.396 48.995 116.561 48.995C116.981 48.995 117.341 48.9175 117.641 48.7625C117.946 48.6025 118.241 48.3725 118.526 48.0725V46.655ZM114.251 43.415C115.116 42.61 116.146 42.2075 117.341 42.2075C117.781 42.2075 118.171 42.28 118.511 42.425C118.856 42.565 119.144 42.765 119.374 43.025C119.609 43.285 119.786 43.595 119.906 43.955C120.031 44.31 120.094 44.705 120.094 45.14V50H119.374C119.219 50 119.101 49.9775 119.021 49.9325C118.941 49.8825 118.874 49.785 118.819 49.64L118.661 49.0175C118.466 49.1925 118.274 49.35 118.084 49.49C117.894 49.625 117.696 49.74 117.491 49.835C117.291 49.93 117.074 50 116.839 50.045C116.609 50.095 116.354 50.12 116.074 50.12C115.764 50.12 115.474 50.0775 115.204 49.9925C114.939 49.9075 114.709 49.78 114.514 49.61C114.319 49.435 114.164 49.22 114.049 48.965C113.939 48.71 113.884 48.41 113.884 48.065C113.884 47.77 113.961 47.4825 114.116 47.2025C114.276 46.9225 114.536 46.6725 114.896 46.4525C115.261 46.2275 115.739 46.0425 116.329 45.8975C116.924 45.7525 117.656 45.67 118.526 45.65V45.14C118.526 44.59 118.409 44.18 118.174 43.91C117.939 43.64 117.594 43.505 117.139 43.505C116.829 43.505 116.569 43.545 116.359 43.625C116.149 43.7 115.966 43.7825 115.811 43.8725C115.656 43.9625 115.519 44.0475 115.399 44.1275C115.279 44.2025 115.151 44.24 115.016 44.24C114.906 44.24 114.811 44.2125 114.731 44.1575C114.656 44.0975 114.594 44.025 114.544 43.94L114.251 43.415ZM124.332 50.12C123.697 50.12 123.207 49.9425 122.862 49.5875C122.522 49.2275 122.352 48.7225 122.352 48.0725V43.6175H121.512C121.422 43.6175 121.345 43.59 121.28 43.535C121.215 43.475 121.182 43.3875 121.182 43.2725V42.62L122.42 42.44L122.772 40.2275C122.797 40.1425 122.84 40.075 122.9 40.025C122.96 39.97 123.04 39.9425 123.14 39.9425H123.965V42.455H126.087V43.6175H123.965V47.96C123.965 48.235 124.032 48.445 124.167 48.59C124.302 48.735 124.482 48.8075 124.707 48.8075C124.832 48.8075 124.94 48.7925 125.03 48.7625C125.12 48.7275 125.197 48.6925 125.262 48.6575C125.327 48.6175 125.382 48.5825 125.427 48.5525C125.477 48.5175 125.525 48.5 125.57 48.5C125.66 48.5 125.732 48.55 125.787 48.65L126.267 49.4375C126.017 49.6575 125.722 49.8275 125.382 49.9475C125.042 50.0625 124.692 50.12 124.332 50.12ZM132.317 45.3125C132.317 45.0425 132.277 44.7925 132.197 44.5625C132.122 44.3275 132.01 44.125 131.86 43.955C131.71 43.78 131.522 43.645 131.297 43.55C131.077 43.45 130.822 43.4 130.532 43.4C129.947 43.4 129.487 43.5675 129.152 43.9025C128.817 44.2375 128.605 44.7075 128.515 45.3125H132.317ZM128.47 46.3025C128.49 46.7375 128.557 47.115 128.672 47.435C128.787 47.75 128.94 48.0125 129.13 48.2225C129.325 48.4325 129.555 48.59 129.82 48.695C130.09 48.795 130.39 48.845 130.72 48.845C131.035 48.845 131.307 48.81 131.537 48.74C131.767 48.665 131.967 48.585 132.137 48.5C132.307 48.41 132.452 48.33 132.572 48.26C132.692 48.185 132.802 48.1475 132.902 48.1475C133.032 48.1475 133.132 48.1975 133.202 48.2975L133.66 48.89C133.47 49.115 133.255 49.305 133.015 49.46C132.775 49.615 132.52 49.7425 132.25 49.8425C131.98 49.9375 131.702 50.005 131.417 50.045C131.132 50.09 130.855 50.1125 130.585 50.1125C130.055 50.1125 129.562 50.025 129.107 49.85C128.657 49.67 128.265 49.4075 127.93 49.0625C127.6 48.7175 127.34 48.29 127.15 47.78C126.965 47.27 126.872 46.6825 126.872 46.0175C126.872 45.4875 126.955 44.9925 127.12 44.5325C127.29 44.0725 127.53 43.6725 127.84 43.3325C128.155 42.9925 128.535 42.725 128.98 42.53C129.43 42.33 129.937 42.23 130.502 42.23C130.972 42.23 131.407 42.3075 131.807 42.4625C132.207 42.6125 132.552 42.835 132.842 43.13C133.132 43.425 133.357 43.7875 133.517 44.2175C133.682 44.6425 133.765 45.1275 133.765 45.6725C133.765 45.9225 133.737 46.09 133.682 46.175C133.627 46.26 133.527 46.3025 133.382 46.3025H128.47Z" fill="white"/>
<path d="M19.3333 48.3333H24.6666V33.6667H19.3333V48.3333ZM44.6666 41.6667H35.3333L32.5466 40.6933L32.9866 39.44L35.3333 40.3333H39.0933C39.96 40.3333 40.6666 39.6267 40.6666 38.76C40.6666 38.1067 40.2533 37.52 39.64 37.28L29.96 33.6667H27.3333V45.6933L36.6666 48.3333L47.3333 44.3333C47.32 42.8667 46.1466 41.6667 44.6666 41.6667ZM36.6666 21L27.3333 27.6667V31H30L40.8533 35.3467C42.3466 35.9467 43.3333 37.3867 43.3333 39H46V27.6667L36.6666 21ZM36 32.3333H34.6666V31H36V32.3333ZM36 29.6667H34.6666V28.3333H36V29.6667ZM38.6666 32.3333H37.3333V31H38.6666V32.3333ZM38.6666 29.6667H37.3333V28.3333H38.6666V29.6667Z" fill="white"/>
</svg>
