<svg width="168" height="69" viewBox="0 0 168 69" fill="none" xmlns="http://www.w3.org/2000/svg">
<rect width="168" height="69" rx="8" fill="#C4C4C4"/>
<rect width="168" height="69" rx="8" fill="#C4C4C4"/>
<rect width="168" height="69" rx="8" fill="#7528D6"/>
<path d="M67.2225 29.2V40H66.33C66.195 40 66.08 39.9775 65.985 39.9325C65.89 39.8825 65.8 39.8025 65.715 39.6925L59.7825 32.0725C59.7975 32.2175 59.8075 32.3625 59.8125 32.5075C59.8225 32.6475 59.8275 32.7775 59.8275 32.8975V40H58.2825V29.2H59.1975C59.2725 29.2 59.335 29.205 59.385 29.215C59.44 29.22 59.49 29.2325 59.535 29.2525C59.58 29.2725 59.6225 29.3025 59.6625 29.3425C59.7025 29.3825 59.745 29.4325 59.79 29.4925L65.73 37.12C65.715 36.965 65.7025 36.8125 65.6925 36.6625C65.6875 36.5125 65.685 36.3725 65.685 36.2425V29.2H67.2225ZM71.5587 30.6175V34.075H75.7812V35.4925H71.5587V40H69.7962V29.2H76.5312V30.6175H71.5587ZM85.7101 30.6625H82.3426V40H80.5951V30.6625H77.2201V29.2H85.7101V30.6625ZM92.2569 30.6175V34.075H96.4794V35.4925H92.2569V40H90.4944V29.2H97.2294V30.6175H92.2569ZM101.324 32.23C101.889 32.23 102.399 32.3225 102.854 32.5075C103.314 32.6925 103.704 32.955 104.024 33.295C104.349 33.635 104.599 34.0475 104.774 34.5325C104.949 35.0175 105.037 35.5625 105.037 36.1675C105.037 36.7725 104.949 37.3175 104.774 37.8025C104.599 38.2875 104.349 38.7025 104.024 39.0475C103.704 39.3875 103.314 39.65 102.854 39.835C102.399 40.02 101.889 40.1125 101.324 40.1125C100.754 40.1125 100.239 40.02 99.7792 39.835C99.3242 39.65 98.9342 39.3875 98.6092 39.0475C98.2842 38.7025 98.0342 38.2875 97.8592 37.8025C97.6842 37.3175 97.5967 36.7725 97.5967 36.1675C97.5967 35.5625 97.6842 35.0175 97.8592 34.5325C98.0342 34.0475 98.2842 33.635 98.6092 33.295C98.9342 32.955 99.3242 32.6925 99.7792 32.5075C100.239 32.3225 100.754 32.23 101.324 32.23ZM101.324 38.8525C102.014 38.8525 102.527 38.6225 102.862 38.1625C103.202 37.6975 103.372 37.035 103.372 36.175C103.372 35.315 103.202 34.6525 102.862 34.1875C102.527 33.7175 102.014 33.4825 101.324 33.4825C100.624 33.4825 100.104 33.7175 99.7642 34.1875C99.4242 34.6525 99.2542 35.315 99.2542 36.175C99.2542 37.035 99.4242 37.6975 99.7642 38.1625C100.104 38.6225 100.624 38.8525 101.324 38.8525ZM108.109 33.7675C108.349 33.2825 108.639 32.9025 108.979 32.6275C109.319 32.3475 109.726 32.2075 110.201 32.2075C110.366 32.2075 110.521 32.2275 110.666 32.2675C110.811 32.3025 110.941 32.3575 111.056 32.4325L110.944 33.6475C110.924 33.7325 110.891 33.7925 110.846 33.8275C110.806 33.8575 110.751 33.8725 110.681 33.8725C110.606 33.8725 110.499 33.86 110.359 33.835C110.219 33.805 110.071 33.79 109.916 33.79C109.691 33.79 109.491 33.8225 109.316 33.8875C109.146 33.9525 108.991 34.0475 108.851 34.1725C108.716 34.2975 108.596 34.45 108.491 34.63C108.386 34.81 108.289 35.015 108.199 35.245V40H106.586V32.35H107.524C107.694 32.35 107.811 32.3825 107.876 32.4475C107.941 32.5075 107.986 32.615 108.011 32.77L108.109 33.7675ZM124.679 34.6825V38.9575C123.604 39.7325 122.354 40.12 120.929 40.12C120.054 40.12 119.261 39.985 118.551 39.715C117.846 39.44 117.244 39.06 116.744 38.575C116.244 38.085 115.859 37.5025 115.589 36.8275C115.319 36.1525 115.184 35.41 115.184 34.6C115.184 33.785 115.314 33.04 115.574 32.365C115.834 31.685 116.206 31.1025 116.691 30.6175C117.176 30.1275 117.761 29.75 118.446 29.485C119.131 29.215 119.901 29.08 120.756 29.08C121.191 29.08 121.594 29.115 121.964 29.185C122.339 29.25 122.686 29.3425 123.006 29.4625C123.326 29.5825 123.621 29.7275 123.891 29.8975C124.161 30.0675 124.409 30.2575 124.634 30.4675L124.131 31.27C124.051 31.395 123.949 31.4725 123.824 31.5025C123.699 31.5325 123.564 31.5025 123.419 31.4125C123.274 31.3275 123.119 31.2375 122.954 31.1425C122.794 31.0475 122.609 30.96 122.399 30.88C122.189 30.795 121.946 30.7275 121.671 30.6775C121.396 30.6225 121.071 30.595 120.696 30.595C120.126 30.595 119.611 30.69 119.151 30.88C118.696 31.065 118.306 31.3325 117.981 31.6825C117.656 32.0275 117.406 32.4475 117.231 32.9425C117.056 33.4375 116.969 33.99 116.969 34.6C116.969 35.245 117.061 35.8225 117.246 36.3325C117.431 36.8375 117.694 37.2675 118.034 37.6225C118.374 37.9725 118.784 38.24 119.264 38.425C119.749 38.61 120.289 38.7025 120.884 38.7025C121.329 38.7025 121.724 38.655 122.069 38.56C122.419 38.465 122.761 38.3325 123.096 38.1625V36.0175H121.589C121.474 36.0175 121.384 35.9875 121.319 35.9275C121.254 35.8625 121.221 35.78 121.221 35.68V34.6825H124.679ZM130.508 36.655C129.933 36.675 129.448 36.7225 129.053 36.7975C128.658 36.8675 128.338 36.96 128.093 37.075C127.848 37.185 127.67 37.3175 127.56 37.4725C127.455 37.6275 127.403 37.7975 127.403 37.9825C127.403 38.1625 127.43 38.3175 127.485 38.4475C127.545 38.5725 127.625 38.6775 127.725 38.7625C127.83 38.8425 127.95 38.9025 128.085 38.9425C128.225 38.9775 128.378 38.995 128.543 38.995C128.963 38.995 129.323 38.9175 129.623 38.7625C129.928 38.6025 130.223 38.3725 130.508 38.0725V36.655ZM126.233 33.415C127.098 32.61 128.128 32.2075 129.323 32.2075C129.763 32.2075 130.153 32.28 130.493 32.425C130.838 32.565 131.125 32.765 131.355 33.025C131.59 33.285 131.768 33.595 131.888 33.955C132.013 34.31 132.075 34.705 132.075 35.14V40H131.355C131.2 40 131.083 39.9775 131.003 39.9325C130.923 39.8825 130.855 39.785 130.8 39.64L130.643 39.0175C130.448 39.1925 130.255 39.35 130.065 39.49C129.875 39.625 129.678 39.74 129.473 39.835C129.273 39.93 129.055 40 128.82 40.045C128.59 40.095 128.335 40.12 128.055 40.12C127.745 40.12 127.455 40.0775 127.185 39.9925C126.92 39.9075 126.69 39.78 126.495 39.61C126.3 39.435 126.145 39.22 126.03 38.965C125.92 38.71 125.865 38.41 125.865 38.065C125.865 37.77 125.943 37.4825 126.098 37.2025C126.258 36.9225 126.518 36.6725 126.878 36.4525C127.243 36.2275 127.72 36.0425 128.31 35.8975C128.905 35.7525 129.638 35.67 130.508 35.65V35.14C130.508 34.59 130.39 34.18 130.155 33.91C129.92 33.64 129.575 33.505 129.12 33.505C128.81 33.505 128.55 33.545 128.34 33.625C128.13 33.7 127.948 33.7825 127.793 33.8725C127.638 33.9625 127.5 34.0475 127.38 34.1275C127.26 34.2025 127.133 34.24 126.998 34.24C126.888 34.24 126.793 34.2125 126.713 34.1575C126.638 34.0975 126.575 34.025 126.525 33.94L126.233 33.415ZM133.964 40V32.35H134.939C135.159 32.35 135.299 32.4525 135.359 32.6575L135.464 33.325C135.604 33.165 135.749 33.02 135.899 32.89C136.049 32.755 136.209 32.64 136.379 32.545C136.554 32.445 136.739 32.3675 136.934 32.3125C137.134 32.2575 137.349 32.23 137.579 32.23C137.824 32.23 138.049 32.265 138.254 32.335C138.459 32.405 138.639 32.505 138.794 32.635C138.954 32.765 139.091 32.9225 139.206 33.1075C139.321 33.2925 139.416 33.5 139.491 33.73C139.606 33.465 139.751 33.2375 139.926 33.0475C140.101 32.8575 140.296 32.7025 140.511 32.5825C140.726 32.4625 140.954 32.375 141.194 32.32C141.439 32.26 141.686 32.23 141.936 32.23C142.346 32.23 142.711 32.295 143.031 32.425C143.356 32.555 143.629 32.745 143.849 32.995C144.074 33.24 144.244 33.5425 144.359 33.9025C144.474 34.2625 144.531 34.6725 144.531 35.1325V40H142.919V35.1325C142.919 34.5925 142.801 34.1875 142.566 33.9175C142.336 33.6425 141.994 33.505 141.539 33.505C141.334 33.505 141.141 33.54 140.961 33.61C140.781 33.68 140.624 33.7825 140.489 33.9175C140.354 34.0525 140.246 34.2225 140.166 34.4275C140.091 34.6275 140.054 34.8625 140.054 35.1325V40H138.441V35.1325C138.441 34.5725 138.329 34.1625 138.104 33.9025C137.879 33.6375 137.549 33.505 137.114 33.505C136.814 33.505 136.536 33.5825 136.281 33.7375C136.026 33.8875 135.791 34.095 135.576 34.36V40H133.964ZM151.433 35.3125C151.433 35.0425 151.393 34.7925 151.313 34.5625C151.238 34.3275 151.125 34.125 150.975 33.955C150.825 33.78 150.638 33.645 150.413 33.55C150.193 33.45 149.938 33.4 149.648 33.4C149.063 33.4 148.603 33.5675 148.268 33.9025C147.933 34.2375 147.72 34.7075 147.63 35.3125H151.433ZM147.585 36.3025C147.605 36.7375 147.673 37.115 147.788 37.435C147.903 37.75 148.055 38.0125 148.245 38.2225C148.44 38.4325 148.67 38.59 148.935 38.695C149.205 38.795 149.505 38.845 149.835 38.845C150.15 38.845 150.423 38.81 150.653 38.74C150.883 38.665 151.083 38.585 151.253 38.5C151.423 38.41 151.568 38.33 151.688 38.26C151.808 38.185 151.918 38.1475 152.018 38.1475C152.148 38.1475 152.248 38.1975 152.318 38.2975L152.775 38.89C152.585 39.115 152.37 39.305 152.13 39.46C151.89 39.615 151.635 39.7425 151.365 39.8425C151.095 39.9375 150.818 40.005 150.533 40.045C150.248 40.09 149.97 40.1125 149.7 40.1125C149.17 40.1125 148.678 40.025 148.223 39.85C147.773 39.67 147.38 39.4075 147.045 39.0625C146.715 38.7175 146.455 38.29 146.265 37.78C146.08 37.27 145.988 36.6825 145.988 36.0175C145.988 35.4875 146.07 34.9925 146.235 34.5325C146.405 34.0725 146.645 33.6725 146.955 33.3325C147.27 32.9925 147.65 32.725 148.095 32.53C148.545 32.33 149.053 32.23 149.618 32.23C150.088 32.23 150.523 32.3075 150.923 32.4625C151.323 32.6125 151.668 32.835 151.958 33.13C152.248 33.425 152.473 33.7875 152.633 34.2175C152.798 34.6425 152.88 35.1275 152.88 35.6725C152.88 35.9225 152.853 36.09 152.798 36.175C152.743 36.26 152.643 36.3025 152.498 36.3025H147.585ZM158.951 33.7375C158.911 33.8075 158.866 33.8575 158.816 33.8875C158.766 33.9175 158.704 33.9325 158.629 33.9325C158.544 33.9325 158.451 33.9075 158.351 33.8575C158.251 33.8025 158.134 33.7425 157.999 33.6775C157.864 33.6125 157.704 33.555 157.519 33.505C157.339 33.45 157.126 33.4225 156.881 33.4225C156.681 33.4225 156.499 33.4475 156.334 33.4975C156.174 33.5425 156.036 33.61 155.921 33.7C155.811 33.785 155.726 33.8875 155.666 34.0075C155.606 34.1225 155.576 34.2475 155.576 34.3825C155.576 34.5625 155.631 34.7125 155.741 34.8325C155.851 34.9525 155.996 35.0575 156.176 35.1475C156.356 35.2325 156.561 35.31 156.791 35.38C157.021 35.45 157.256 35.525 157.496 35.605C157.736 35.685 157.971 35.7775 158.201 35.8825C158.431 35.9875 158.636 36.1175 158.816 36.2725C158.996 36.4225 159.141 36.6075 159.251 36.8275C159.361 37.0425 159.416 37.305 159.416 37.615C159.416 37.975 159.351 38.3075 159.221 38.6125C159.091 38.9175 158.901 39.1825 158.651 39.4075C158.401 39.6325 158.089 39.8075 157.714 39.9325C157.344 40.0575 156.919 40.12 156.439 40.12C156.174 40.12 155.916 40.095 155.666 40.045C155.421 40 155.186 39.9375 154.961 39.8575C154.741 39.7725 154.534 39.6725 154.339 39.5575C154.149 39.4425 153.979 39.3175 153.829 39.1825L154.204 38.5675C154.249 38.4925 154.304 38.435 154.369 38.395C154.439 38.35 154.524 38.3275 154.624 38.3275C154.729 38.3275 154.831 38.3625 154.931 38.4325C155.036 38.4975 155.156 38.57 155.291 38.65C155.431 38.73 155.599 38.805 155.794 38.875C155.989 38.94 156.231 38.9725 156.521 38.9725C156.761 38.9725 156.969 38.945 157.144 38.89C157.319 38.83 157.464 38.75 157.579 38.65C157.694 38.55 157.779 38.4375 157.834 38.3125C157.889 38.1825 157.916 38.045 157.916 37.9C157.916 37.705 157.861 37.545 157.751 37.42C157.641 37.295 157.494 37.1875 157.309 37.0975C157.129 37.0075 156.921 36.9275 156.686 36.8575C156.456 36.7875 156.221 36.7125 155.981 36.6325C155.741 36.5525 155.504 36.46 155.269 36.355C155.039 36.25 154.831 36.1175 154.646 35.9575C154.466 35.7925 154.321 35.595 154.211 35.365C154.101 35.13 154.046 34.845 154.046 34.51C154.046 34.205 154.106 33.915 154.226 33.64C154.351 33.365 154.531 33.1225 154.766 32.9125C155.006 32.7025 155.299 32.5375 155.644 32.4175C155.994 32.2925 156.396 32.23 156.851 32.23C157.366 32.23 157.834 32.3125 158.254 32.4775C158.674 32.6425 159.026 32.8675 159.311 33.1525L158.951 33.7375Z" fill="white"/>
<path d="M26.75 39.25L22.5453 43.4547C22.0774 43.9226 21.4812 44.2412 20.8322 44.3702C20.1831 44.4993 19.5104 44.4331 18.899 44.1798C18.2877 43.9266 17.7651 43.4978 17.3974 42.9476C17.0297 42.3975 16.8334 41.7506 16.8333 41.0889V39.25L18.7557 29.6394C19.0125 28.3548 19.7064 27.1988 20.7194 26.3682C21.7324 25.5375 23.0019 25.0835 24.3119 25.0834H37.6881C38.9981 25.0835 40.2676 25.5375 41.2806 26.3682C42.2936 27.1988 42.9875 28.3548 43.2442 29.6394L45.1667 39.25V41.0875C45.1666 41.7492 44.9703 42.396 44.6026 42.9462C44.2349 43.4964 43.7123 43.9252 43.1009 44.1784C42.4896 44.4316 41.8169 44.4979 41.1678 44.3688C40.5188 44.2398 39.9226 43.9212 39.4547 43.4533L35.25 39.25H26.75Z" stroke="white" stroke-width="2.66667" stroke-linecap="round" stroke-linejoin="round"/>
<path d="M26.75 25.0834L28.1667 27.9167H33.8333L35.25 25.0834" stroke="white" stroke-width="2.66667" stroke-linecap="round" stroke-linejoin="round"/>
</svg>
