<svg width="168" height="69" viewBox="0 0 168 69" fill="none" xmlns="http://www.w3.org/2000/svg">
<rect width="168" height="69" rx="8" fill="#D400F7"/>
<path d="M71.2225 21.2V32H70.33C70.195 32 70.08 31.9775 69.985 31.9325C69.89 31.8825 69.8 31.8025 69.715 31.6925L63.7825 24.0725C63.7975 24.2175 63.8075 24.3625 63.8125 24.5075C63.8225 24.6475 63.8275 24.7775 63.8275 24.8975V32H62.2825V21.2H63.1975C63.2725 21.2 63.335 21.205 63.385 21.215C63.44 21.22 63.49 21.2325 63.535 21.2525C63.58 21.2725 63.6225 21.3025 63.6625 21.3425C63.7025 21.3825 63.745 21.4325 63.79 21.4925L69.73 29.12C69.715 28.965 69.7025 28.8125 69.6925 28.6625C69.6875 28.5125 69.685 28.3725 69.685 28.2425V21.2H71.2225ZM75.5587 22.6175V26.075H79.7812V27.4925H75.5587V32H73.7962V21.2H80.5312V22.6175H75.5587ZM89.7101 22.6625H86.3426V32H84.5951V22.6625H81.2201V21.2H89.7101V22.6625ZM96.2569 22.6175V26.075H100.479V27.4925H96.2569V32H94.4944V21.2H101.229V22.6175H96.2569ZM105.324 24.23C105.889 24.23 106.399 24.3225 106.854 24.5075C107.314 24.6925 107.704 24.955 108.024 25.295C108.349 25.635 108.599 26.0475 108.774 26.5325C108.949 27.0175 109.037 27.5625 109.037 28.1675C109.037 28.7725 108.949 29.3175 108.774 29.8025C108.599 30.2875 108.349 30.7025 108.024 31.0475C107.704 31.3875 107.314 31.65 106.854 31.835C106.399 32.02 105.889 32.1125 105.324 32.1125C104.754 32.1125 104.239 32.02 103.779 31.835C103.324 31.65 102.934 31.3875 102.609 31.0475C102.284 30.7025 102.034 30.2875 101.859 29.8025C101.684 29.3175 101.597 28.7725 101.597 28.1675C101.597 27.5625 101.684 27.0175 101.859 26.5325C102.034 26.0475 102.284 25.635 102.609 25.295C102.934 24.955 103.324 24.6925 103.779 24.5075C104.239 24.3225 104.754 24.23 105.324 24.23ZM105.324 30.8525C106.014 30.8525 106.527 30.6225 106.862 30.1625C107.202 29.6975 107.372 29.035 107.372 28.175C107.372 27.315 107.202 26.6525 106.862 26.1875C106.527 25.7175 106.014 25.4825 105.324 25.4825C104.624 25.4825 104.104 25.7175 103.764 26.1875C103.424 26.6525 103.254 27.315 103.254 28.175C103.254 29.035 103.424 29.6975 103.764 30.1625C104.104 30.6225 104.624 30.8525 105.324 30.8525ZM112.109 25.7675C112.349 25.2825 112.639 24.9025 112.979 24.6275C113.319 24.3475 113.726 24.2075 114.201 24.2075C114.366 24.2075 114.521 24.2275 114.666 24.2675C114.811 24.3025 114.941 24.3575 115.056 24.4325L114.944 25.6475C114.924 25.7325 114.891 25.7925 114.846 25.8275C114.806 25.8575 114.751 25.8725 114.681 25.8725C114.606 25.8725 114.499 25.86 114.359 25.835C114.219 25.805 114.071 25.79 113.916 25.79C113.691 25.79 113.491 25.8225 113.316 25.8875C113.146 25.9525 112.991 26.0475 112.851 26.1725C112.716 26.2975 112.596 26.45 112.491 26.63C112.386 26.81 112.289 27.015 112.199 27.245V32H110.586V24.35H111.524C111.694 24.35 111.811 24.3825 111.876 24.4475C111.941 24.5075 111.986 24.615 112.011 24.77L112.109 25.7675ZM67.9975 45.95L66.5125 42.005C66.3925 41.7 66.27 41.3125 66.145 40.8425C66.09 41.0775 66.03 41.295 65.965 41.495C65.9 41.69 65.84 41.8625 65.785 42.0125L64.3 45.95H67.9975ZM71.32 50H69.9625C69.8075 50 69.6825 49.9625 69.5875 49.8875C69.4925 49.8075 69.42 49.71 69.37 49.595L68.47 47.21H63.82L62.92 49.595C62.88 49.695 62.81 49.7875 62.71 49.8725C62.61 49.9575 62.485 50 62.335 50H60.9775L65.26 39.2H67.0375L71.32 50ZM77.4828 43.85C77.4328 43.915 77.3853 43.965 77.3403 44C77.2953 44.035 77.2303 44.0525 77.1453 44.0525C77.0603 44.0525 76.9703 44.0225 76.8753 43.9625C76.7853 43.9025 76.6753 43.8375 76.5453 43.7675C76.4203 43.6925 76.2678 43.625 76.0878 43.565C75.9078 43.505 75.6828 43.475 75.4128 43.475C75.0628 43.475 74.7553 43.5375 74.4903 43.6625C74.2303 43.7875 74.0103 43.9675 73.8303 44.2025C73.6553 44.4325 73.5228 44.715 73.4328 45.05C73.3478 45.38 73.3053 45.7525 73.3053 46.1675C73.3053 46.5975 73.3528 46.98 73.4478 47.315C73.5428 47.65 73.6778 47.9325 73.8528 48.1625C74.0328 48.3925 74.2478 48.5675 74.4978 48.6875C74.7528 48.8075 75.0378 48.8675 75.3528 48.8675C75.6628 48.8675 75.9153 48.83 76.1103 48.755C76.3053 48.68 76.4678 48.5975 76.5978 48.5075C76.7278 48.4175 76.8378 48.335 76.9278 48.26C77.0228 48.185 77.1228 48.1475 77.2278 48.1475C77.3578 48.1475 77.4578 48.1975 77.5278 48.2975L77.9853 48.89C77.8003 49.115 77.5953 49.305 77.3703 49.46C77.1453 49.615 76.9078 49.7425 76.6578 49.8425C76.4078 49.9375 76.1478 50.005 75.8778 50.045C75.6078 50.09 75.3353 50.1125 75.0603 50.1125C74.5853 50.1125 74.1403 50.025 73.7253 49.85C73.3153 49.67 72.9553 49.4125 72.6453 49.0775C72.3403 48.7375 72.0978 48.325 71.9178 47.84C71.7428 47.35 71.6553 46.7925 71.6553 46.1675C71.6553 45.6025 71.7353 45.08 71.8953 44.6C72.0553 44.115 72.2878 43.6975 72.5928 43.3475C72.9028 42.9975 73.2853 42.725 73.7403 42.53C74.1953 42.33 74.7203 42.23 75.3153 42.23C75.8703 42.23 76.3578 42.32 76.7778 42.5C77.2028 42.68 77.5803 42.935 77.9103 43.265L77.4828 43.85ZM84.558 43.85C84.508 43.915 84.4605 43.965 84.4155 44C84.3705 44.035 84.3055 44.0525 84.2205 44.0525C84.1355 44.0525 84.0455 44.0225 83.9505 43.9625C83.8605 43.9025 83.7505 43.8375 83.6205 43.7675C83.4955 43.6925 83.343 43.625 83.163 43.565C82.983 43.505 82.758 43.475 82.488 43.475C82.138 43.475 81.8305 43.5375 81.5655 43.6625C81.3055 43.7875 81.0855 43.9675 80.9055 44.2025C80.7305 44.4325 80.598 44.715 80.508 45.05C80.423 45.38 80.3805 45.7525 80.3805 46.1675C80.3805 46.5975 80.428 46.98 80.523 47.315C80.618 47.65 80.753 47.9325 80.928 48.1625C81.108 48.3925 81.323 48.5675 81.573 48.6875C81.828 48.8075 82.113 48.8675 82.428 48.8675C82.738 48.8675 82.9905 48.83 83.1855 48.755C83.3805 48.68 83.543 48.5975 83.673 48.5075C83.803 48.4175 83.913 48.335 84.003 48.26C84.098 48.185 84.198 48.1475 84.303 48.1475C84.433 48.1475 84.533 48.1975 84.603 48.2975L85.0605 48.89C84.8755 49.115 84.6705 49.305 84.4455 49.46C84.2205 49.615 83.983 49.7425 83.733 49.8425C83.483 49.9375 83.223 50.005 82.953 50.045C82.683 50.09 82.4105 50.1125 82.1355 50.1125C81.6605 50.1125 81.2155 50.025 80.8005 49.85C80.3905 49.67 80.0305 49.4125 79.7205 49.0775C79.4155 48.7375 79.173 48.325 78.993 47.84C78.818 47.35 78.7305 46.7925 78.7305 46.1675C78.7305 45.6025 78.8105 45.08 78.9705 44.6C79.1305 44.115 79.363 43.6975 79.668 43.3475C79.978 42.9975 80.3605 42.725 80.8155 42.53C81.2705 42.33 81.7955 42.23 82.3905 42.23C82.9455 42.23 83.433 42.32 83.853 42.5C84.278 42.68 84.6555 42.935 84.9855 43.265L84.558 43.85ZM91.2432 45.3125C91.2432 45.0425 91.2032 44.7925 91.1232 44.5625C91.0482 44.3275 90.9357 44.125 90.7857 43.955C90.6357 43.78 90.4482 43.645 90.2232 43.55C90.0032 43.45 89.7482 43.4 89.4582 43.4C88.8732 43.4 88.4132 43.5675 88.0782 43.9025C87.7432 44.2375 87.5307 44.7075 87.4407 45.3125H91.2432ZM87.3957 46.3025C87.4157 46.7375 87.4832 47.115 87.5982 47.435C87.7132 47.75 87.8657 48.0125 88.0557 48.2225C88.2507 48.4325 88.4807 48.59 88.7457 48.695C89.0157 48.795 89.3157 48.845 89.6457 48.845C89.9607 48.845 90.2332 48.81 90.4632 48.74C90.6932 48.665 90.8932 48.585 91.0632 48.5C91.2332 48.41 91.3782 48.33 91.4982 48.26C91.6182 48.185 91.7282 48.1475 91.8282 48.1475C91.9582 48.1475 92.0582 48.1975 92.1282 48.2975L92.5857 48.89C92.3957 49.115 92.1807 49.305 91.9407 49.46C91.7007 49.615 91.4457 49.7425 91.1757 49.8425C90.9057 49.9375 90.6282 50.005 90.3432 50.045C90.0582 50.09 89.7807 50.1125 89.5107 50.1125C88.9807 50.1125 88.4882 50.025 88.0332 49.85C87.5832 49.67 87.1907 49.4075 86.8557 49.0625C86.5257 48.7175 86.2657 48.29 86.0757 47.78C85.8907 47.27 85.7982 46.6825 85.7982 46.0175C85.7982 45.4875 85.8807 44.9925 86.0457 44.5325C86.2157 44.0725 86.4557 43.6725 86.7657 43.3325C87.0807 42.9925 87.4607 42.725 87.9057 42.53C88.3557 42.33 88.8632 42.23 89.4282 42.23C89.8982 42.23 90.3332 42.3075 90.7332 42.4625C91.1332 42.6125 91.4782 42.835 91.7682 43.13C92.0582 43.425 92.2832 43.7875 92.4432 44.2175C92.6082 44.6425 92.6907 45.1275 92.6907 45.6725C92.6907 45.9225 92.6632 46.09 92.6082 46.175C92.5532 46.26 92.4532 46.3025 92.3082 46.3025H87.3957ZM98.7619 43.7375C98.7219 43.8075 98.6769 43.8575 98.6269 43.8875C98.5769 43.9175 98.5144 43.9325 98.4394 43.9325C98.3544 43.9325 98.2619 43.9075 98.1619 43.8575C98.0619 43.8025 97.9444 43.7425 97.8094 43.6775C97.6744 43.6125 97.5144 43.555 97.3294 43.505C97.1494 43.45 96.9369 43.4225 96.6919 43.4225C96.4919 43.4225 96.3094 43.4475 96.1444 43.4975C95.9844 43.5425 95.8469 43.61 95.7319 43.7C95.6219 43.785 95.5369 43.8875 95.4769 44.0075C95.4169 44.1225 95.3869 44.2475 95.3869 44.3825C95.3869 44.5625 95.4419 44.7125 95.5519 44.8325C95.6619 44.9525 95.8069 45.0575 95.9869 45.1475C96.1669 45.2325 96.3719 45.31 96.6019 45.38C96.8319 45.45 97.0669 45.525 97.3069 45.605C97.5469 45.685 97.7819 45.7775 98.0119 45.8825C98.2419 45.9875 98.4469 46.1175 98.6269 46.2725C98.8069 46.4225 98.9519 46.6075 99.0619 46.8275C99.1719 47.0425 99.2269 47.305 99.2269 47.615C99.2269 47.975 99.1619 48.3075 99.0319 48.6125C98.9019 48.9175 98.7119 49.1825 98.4619 49.4075C98.2119 49.6325 97.8994 49.8075 97.5244 49.9325C97.1544 50.0575 96.7294 50.12 96.2494 50.12C95.9844 50.12 95.7269 50.095 95.4769 50.045C95.2319 50 94.9969 49.9375 94.7719 49.8575C94.5519 49.7725 94.3444 49.6725 94.1494 49.5575C93.9594 49.4425 93.7894 49.3175 93.6394 49.1825L94.0144 48.5675C94.0594 48.4925 94.1144 48.435 94.1794 48.395C94.2494 48.35 94.3344 48.3275 94.4344 48.3275C94.5394 48.3275 94.6419 48.3625 94.7419 48.4325C94.8469 48.4975 94.9669 48.57 95.1019 48.65C95.2419 48.73 95.4094 48.805 95.6044 48.875C95.7994 48.94 96.0419 48.9725 96.3319 48.9725C96.5719 48.9725 96.7794 48.945 96.9544 48.89C97.1294 48.83 97.2744 48.75 97.3894 48.65C97.5044 48.55 97.5894 48.4375 97.6444 48.3125C97.6994 48.1825 97.7269 48.045 97.7269 47.9C97.7269 47.705 97.6719 47.545 97.5619 47.42C97.4519 47.295 97.3044 47.1875 97.1194 47.0975C96.9394 47.0075 96.7319 46.9275 96.4969 46.8575C96.2669 46.7875 96.0319 46.7125 95.7919 46.6325C95.5519 46.5525 95.3144 46.46 95.0794 46.355C94.8494 46.25 94.6419 46.1175 94.4569 45.9575C94.2769 45.7925 94.1319 45.595 94.0219 45.365C93.9119 45.13 93.8569 44.845 93.8569 44.51C93.8569 44.205 93.9169 43.915 94.0369 43.64C94.1619 43.365 94.3419 43.1225 94.5769 42.9125C94.8169 42.7025 95.1094 42.5375 95.4544 42.4175C95.8044 42.2925 96.2069 42.23 96.6619 42.23C97.1769 42.23 97.6444 42.3125 98.0644 42.4775C98.4844 42.6425 98.8369 42.8675 99.1219 43.1525L98.7619 43.7375ZM105.31 43.7375C105.27 43.8075 105.225 43.8575 105.175 43.8875C105.125 43.9175 105.062 43.9325 104.987 43.9325C104.902 43.9325 104.81 43.9075 104.71 43.8575C104.61 43.8025 104.492 43.7425 104.357 43.6775C104.222 43.6125 104.062 43.555 103.877 43.505C103.697 43.45 103.485 43.4225 103.24 43.4225C103.04 43.4225 102.857 43.4475 102.692 43.4975C102.532 43.5425 102.395 43.61 102.28 43.7C102.17 43.785 102.085 43.8875 102.025 44.0075C101.965 44.1225 101.935 44.2475 101.935 44.3825C101.935 44.5625 101.99 44.7125 102.1 44.8325C102.21 44.9525 102.355 45.0575 102.535 45.1475C102.715 45.2325 102.92 45.31 103.15 45.38C103.38 45.45 103.615 45.525 103.855 45.605C104.095 45.685 104.33 45.7775 104.56 45.8825C104.79 45.9875 104.995 46.1175 105.175 46.2725C105.355 46.4225 105.5 46.6075 105.61 46.8275C105.72 47.0425 105.775 47.305 105.775 47.615C105.775 47.975 105.71 48.3075 105.58 48.6125C105.45 48.9175 105.26 49.1825 105.01 49.4075C104.76 49.6325 104.447 49.8075 104.072 49.9325C103.702 50.0575 103.277 50.12 102.797 50.12C102.532 50.12 102.275 50.095 102.025 50.045C101.78 50 101.545 49.9375 101.32 49.8575C101.1 49.7725 100.892 49.6725 100.697 49.5575C100.507 49.4425 100.337 49.3175 100.187 49.1825L100.562 48.5675C100.607 48.4925 100.662 48.435 100.727 48.395C100.797 48.35 100.882 48.3275 100.982 48.3275C101.087 48.3275 101.19 48.3625 101.29 48.4325C101.395 48.4975 101.515 48.57 101.65 48.65C101.79 48.73 101.957 48.805 102.152 48.875C102.347 48.94 102.59 48.9725 102.88 48.9725C103.12 48.9725 103.327 48.945 103.502 48.89C103.677 48.83 103.822 48.75 103.937 48.65C104.052 48.55 104.137 48.4375 104.192 48.3125C104.247 48.1825 104.275 48.045 104.275 47.9C104.275 47.705 104.22 47.545 104.11 47.42C104 47.295 103.852 47.1875 103.667 47.0975C103.487 47.0075 103.28 46.9275 103.045 46.8575C102.815 46.7875 102.58 46.7125 102.34 46.6325C102.1 46.5525 101.862 46.46 101.627 46.355C101.397 46.25 101.19 46.1175 101.005 45.9575C100.825 45.7925 100.68 45.595 100.57 45.365C100.46 45.13 100.405 44.845 100.405 44.51C100.405 44.205 100.465 43.915 100.585 43.64C100.71 43.365 100.89 43.1225 101.125 42.9125C101.365 42.7025 101.657 42.5375 102.002 42.4175C102.352 42.2925 102.755 42.23 103.21 42.23C103.725 42.23 104.192 42.3125 104.612 42.4775C105.032 42.6425 105.385 42.8675 105.67 43.1525L105.31 43.7375ZM110.598 42.23C111.163 42.23 111.673 42.3225 112.128 42.5075C112.588 42.6925 112.978 42.955 113.298 43.295C113.623 43.635 113.873 44.0475 114.048 44.5325C114.223 45.0175 114.31 45.5625 114.31 46.1675C114.31 46.7725 114.223 47.3175 114.048 47.8025C113.873 48.2875 113.623 48.7025 113.298 49.0475C112.978 49.3875 112.588 49.65 112.128 49.835C111.673 50.02 111.163 50.1125 110.598 50.1125C110.028 50.1125 109.513 50.02 109.053 49.835C108.598 49.65 108.208 49.3875 107.883 49.0475C107.558 48.7025 107.308 48.2875 107.133 47.8025C106.958 47.3175 106.87 46.7725 106.87 46.1675C106.87 45.5625 106.958 45.0175 107.133 44.5325C107.308 44.0475 107.558 43.635 107.883 43.295C108.208 42.955 108.598 42.6925 109.053 42.5075C109.513 42.3225 110.028 42.23 110.598 42.23ZM110.598 48.8525C111.288 48.8525 111.8 48.6225 112.135 48.1625C112.475 47.6975 112.645 47.035 112.645 46.175C112.645 45.315 112.475 44.6525 112.135 44.1875C111.8 43.7175 111.288 43.4825 110.598 43.4825C109.898 43.4825 109.378 43.7175 109.038 44.1875C108.698 44.6525 108.528 45.315 108.528 46.175C108.528 47.035 108.698 47.6975 109.038 48.1625C109.378 48.6225 109.898 48.8525 110.598 48.8525ZM117.382 43.7675C117.622 43.2825 117.912 42.9025 118.252 42.6275C118.592 42.3475 118.999 42.2075 119.474 42.2075C119.639 42.2075 119.794 42.2275 119.939 42.2675C120.084 42.3025 120.214 42.3575 120.329 42.4325L120.217 43.6475C120.197 43.7325 120.164 43.7925 120.119 43.8275C120.079 43.8575 120.024 43.8725 119.954 43.8725C119.879 43.8725 119.772 43.86 119.632 43.835C119.492 43.805 119.344 43.79 119.189 43.79C118.964 43.79 118.764 43.8225 118.589 43.8875C118.419 43.9525 118.264 44.0475 118.124 44.1725C117.989 44.2975 117.869 44.45 117.764 44.63C117.659 44.81 117.562 45.015 117.472 45.245V50H115.859V42.35H116.797C116.967 42.35 117.084 42.3825 117.149 42.4475C117.214 42.5075 117.259 42.615 117.284 42.77L117.382 43.7675ZM123.077 42.35V50H121.464V42.35H123.077ZM123.347 40.04C123.347 40.185 123.317 40.3225 123.257 40.4525C123.202 40.5825 123.124 40.6975 123.024 40.7975C122.924 40.8925 122.807 40.97 122.672 41.03C122.542 41.085 122.402 41.1125 122.252 41.1125C122.107 41.1125 121.969 41.085 121.839 41.03C121.714 40.97 121.604 40.8925 121.509 40.7975C121.414 40.6975 121.337 40.5825 121.277 40.4525C121.222 40.3225 121.194 40.185 121.194 40.04C121.194 39.89 121.222 39.75 121.277 39.62C121.337 39.49 121.414 39.3775 121.509 39.2825C121.604 39.1825 121.714 39.105 121.839 39.05C121.969 38.99 122.107 38.96 122.252 38.96C122.402 38.96 122.542 38.99 122.672 39.05C122.807 39.105 122.924 39.1825 123.024 39.2825C123.124 39.3775 123.202 39.49 123.257 39.62C123.317 39.75 123.347 39.89 123.347 40.04ZM130.12 45.3125C130.12 45.0425 130.08 44.7925 130 44.5625C129.925 44.3275 129.813 44.125 129.663 43.955C129.513 43.78 129.325 43.645 129.1 43.55C128.88 43.45 128.625 43.4 128.335 43.4C127.75 43.4 127.29 43.5675 126.955 43.9025C126.62 44.2375 126.408 44.7075 126.318 45.3125H130.12ZM126.273 46.3025C126.293 46.7375 126.36 47.115 126.475 47.435C126.59 47.75 126.743 48.0125 126.933 48.2225C127.128 48.4325 127.358 48.59 127.623 48.695C127.893 48.795 128.193 48.845 128.523 48.845C128.838 48.845 129.11 48.81 129.34 48.74C129.57 48.665 129.77 48.585 129.94 48.5C130.11 48.41 130.255 48.33 130.375 48.26C130.495 48.185 130.605 48.1475 130.705 48.1475C130.835 48.1475 130.935 48.1975 131.005 48.2975L131.463 48.89C131.273 49.115 131.058 49.305 130.818 49.46C130.578 49.615 130.323 49.7425 130.053 49.8425C129.783 49.9375 129.505 50.005 129.22 50.045C128.935 50.09 128.658 50.1125 128.388 50.1125C127.858 50.1125 127.365 50.025 126.91 49.85C126.46 49.67 126.068 49.4075 125.733 49.0625C125.403 48.7175 125.143 48.29 124.953 47.78C124.768 47.27 124.675 46.6825 124.675 46.0175C124.675 45.4875 124.758 44.9925 124.923 44.5325C125.093 44.0725 125.333 43.6725 125.643 43.3325C125.958 42.9925 126.338 42.725 126.783 42.53C127.233 42.33 127.74 42.23 128.305 42.23C128.775 42.23 129.21 42.3075 129.61 42.4625C130.01 42.6125 130.355 42.835 130.645 43.13C130.935 43.425 131.16 43.7875 131.32 44.2175C131.485 44.6425 131.568 45.1275 131.568 45.6725C131.568 45.9225 131.54 46.09 131.485 46.175C131.43 46.26 131.33 46.3025 131.185 46.3025H126.273ZM137.639 43.7375C137.599 43.8075 137.554 43.8575 137.504 43.8875C137.454 43.9175 137.391 43.9325 137.316 43.9325C137.231 43.9325 137.139 43.9075 137.039 43.8575C136.939 43.8025 136.821 43.7425 136.686 43.6775C136.551 43.6125 136.391 43.555 136.206 43.505C136.026 43.45 135.814 43.4225 135.569 43.4225C135.369 43.4225 135.186 43.4475 135.021 43.4975C134.861 43.5425 134.724 43.61 134.609 43.7C134.499 43.785 134.414 43.8875 134.354 44.0075C134.294 44.1225 134.264 44.2475 134.264 44.3825C134.264 44.5625 134.319 44.7125 134.429 44.8325C134.539 44.9525 134.684 45.0575 134.864 45.1475C135.044 45.2325 135.249 45.31 135.479 45.38C135.709 45.45 135.944 45.525 136.184 45.605C136.424 45.685 136.659 45.7775 136.889 45.8825C137.119 45.9875 137.324 46.1175 137.504 46.2725C137.684 46.4225 137.829 46.6075 137.939 46.8275C138.049 47.0425 138.104 47.305 138.104 47.615C138.104 47.975 138.039 48.3075 137.909 48.6125C137.779 48.9175 137.589 49.1825 137.339 49.4075C137.089 49.6325 136.776 49.8075 136.401 49.9325C136.031 50.0575 135.606 50.12 135.126 50.12C134.861 50.12 134.604 50.095 134.354 50.045C134.109 50 133.874 49.9375 133.649 49.8575C133.429 49.7725 133.221 49.6725 133.026 49.5575C132.836 49.4425 132.666 49.3175 132.516 49.1825L132.891 48.5675C132.936 48.4925 132.991 48.435 133.056 48.395C133.126 48.35 133.211 48.3275 133.311 48.3275C133.416 48.3275 133.519 48.3625 133.619 48.4325C133.724 48.4975 133.844 48.57 133.979 48.65C134.119 48.73 134.286 48.805 134.481 48.875C134.676 48.94 134.919 48.9725 135.209 48.9725C135.449 48.9725 135.656 48.945 135.831 48.89C136.006 48.83 136.151 48.75 136.266 48.65C136.381 48.55 136.466 48.4375 136.521 48.3125C136.576 48.1825 136.604 48.045 136.604 47.9C136.604 47.705 136.549 47.545 136.439 47.42C136.329 47.295 136.181 47.1875 135.996 47.0975C135.816 47.0075 135.609 46.9275 135.374 46.8575C135.144 46.7875 134.909 46.7125 134.669 46.6325C134.429 46.5525 134.191 46.46 133.956 46.355C133.726 46.25 133.519 46.1175 133.334 45.9575C133.154 45.7925 133.009 45.595 132.899 45.365C132.789 45.13 132.734 44.845 132.734 44.51C132.734 44.205 132.794 43.915 132.914 43.64C133.039 43.365 133.219 43.1225 133.454 42.9125C133.694 42.7025 133.986 42.5375 134.331 42.4175C134.681 42.2925 135.084 42.23 135.539 42.23C136.054 42.23 136.521 42.3125 136.941 42.4775C137.361 42.6425 137.714 42.8675 137.999 43.1525L137.639 43.7375Z" fill="white"/>
<path d="M47.6037 30.0502L47.5948 29.9815C47.5787 29.8955 47.5495 29.8125 47.5085 29.7353L43.2 22.8C43.2 22.8 42.6505 22.12 42.52 22.12H24.16L18.6384 29.5L18.5731 29.568L18.5643 29.6C18.5176 29.6749 18.4793 29.7547 18.45 29.838L18.4276 29.904C18.364 30.1151 18.367 30.3407 18.4364 30.55L18.4623 30.6241C18.4969 30.7118 18.5398 30.792 18.5901 30.8634L31.9392 47.773L31.9664 47.8118C32.0351 47.9002 32.1187 47.9784 32.2207 48.0498L32.2982 48.098C32.3744 48.1456 32.4539 48.1837 32.5695 48.2259L32.645 48.251C32.7756 48.2844 32.8891 48.3 33 48.3C33.1122 48.3 33.2217 48.285 33.3692 48.247L33.4597 48.215C33.5481 48.1837 33.6276 48.145 33.7235 48.0858L33.7833 48.0484C33.886 47.9756 33.9683 47.8968 34.0139 47.8349L47.3799 30.9076C47.4981 30.75 47.5752 30.5653 47.6043 30.3704L47.6145 30.2827L47.62 30.2134L47.6037 30.0502ZM40.4365 29.6L42.3391 26.1572L44.2404 29.6H40.4365ZM39.2954 31.64H43.8093L36.2857 41.1702L39.2954 31.64ZM38.1789 28.5678L35.431 24.84H40.2386L38.1789 28.5678ZM29.3769 31.64H36.6251L33 43.1164L29.3769 31.64ZM30.0957 29.6L33 25.6587L35.9043 29.6H30.0957ZM28.0503 28.259L26.7909 24.84H30.5697L28.0503 28.259ZM29.7156 41.1709L22.1914 31.64H26.7059L29.7156 41.1709ZM24.6122 26.181L25.8722 29.6H22.0928L24.6122 26.181Z" fill="white"/>
</svg>
