<svg width="168" height="69" viewBox="0 0 168 69" fill="none" xmlns="http://www.w3.org/2000/svg">
<rect width="168" height="69" rx="8" fill="#FCBF49"/>
<path d="M82.2225 21.2V32H81.33C81.195 32 81.08 31.9775 80.985 31.9325C80.89 31.8825 80.8 31.8025 80.715 31.6925L74.7825 24.0725C74.7975 24.2175 74.8075 24.3625 74.8125 24.5075C74.8225 24.6475 74.8275 24.7775 74.8275 24.8975V32H73.2825V21.2H74.1975C74.2725 21.2 74.335 21.205 74.385 21.215C74.44 21.22 74.49 21.2325 74.535 21.2525C74.58 21.2725 74.6225 21.3025 74.6625 21.3425C74.7025 21.3825 74.745 21.4325 74.79 21.4925L80.73 29.12C80.715 28.965 80.7025 28.8125 80.6925 28.6625C80.6875 28.5125 80.685 28.3725 80.685 28.2425V21.2H82.2225ZM86.5587 22.6175V26.075H90.7812V27.4925H86.5587V32H84.7962V21.2H91.5312V22.6175H86.5587ZM100.71 22.6625H97.3426V32H95.5951V22.6625H92.2201V21.2H100.71V22.6625ZM107.257 22.6175V26.075H111.479V27.4925H107.257V32H105.494V21.2H112.229V22.6175H107.257ZM116.324 24.23C116.889 24.23 117.399 24.3225 117.854 24.5075C118.314 24.6925 118.704 24.955 119.024 25.295C119.349 25.635 119.599 26.0475 119.774 26.5325C119.949 27.0175 120.037 27.5625 120.037 28.1675C120.037 28.7725 119.949 29.3175 119.774 29.8025C119.599 30.2875 119.349 30.7025 119.024 31.0475C118.704 31.3875 118.314 31.65 117.854 31.835C117.399 32.02 116.889 32.1125 116.324 32.1125C115.754 32.1125 115.239 32.02 114.779 31.835C114.324 31.65 113.934 31.3875 113.609 31.0475C113.284 30.7025 113.034 30.2875 112.859 29.8025C112.684 29.3175 112.597 28.7725 112.597 28.1675C112.597 27.5625 112.684 27.0175 112.859 26.5325C113.034 26.0475 113.284 25.635 113.609 25.295C113.934 24.955 114.324 24.6925 114.779 24.5075C115.239 24.3225 115.754 24.23 116.324 24.23ZM116.324 30.8525C117.014 30.8525 117.527 30.6225 117.862 30.1625C118.202 29.6975 118.372 29.035 118.372 28.175C118.372 27.315 118.202 26.6525 117.862 26.1875C117.527 25.7175 117.014 25.4825 116.324 25.4825C115.624 25.4825 115.104 25.7175 114.764 26.1875C114.424 26.6525 114.254 27.315 114.254 28.175C114.254 29.035 114.424 29.6975 114.764 30.1625C115.104 30.6225 115.624 30.8525 116.324 30.8525ZM123.109 25.7675C123.349 25.2825 123.639 24.9025 123.979 24.6275C124.319 24.3475 124.726 24.2075 125.201 24.2075C125.366 24.2075 125.521 24.2275 125.666 24.2675C125.811 24.3025 125.941 24.3575 126.056 24.4325L125.944 25.6475C125.924 25.7325 125.891 25.7925 125.846 25.8275C125.806 25.8575 125.751 25.8725 125.681 25.8725C125.606 25.8725 125.499 25.86 125.359 25.835C125.219 25.805 125.071 25.79 124.916 25.79C124.691 25.79 124.491 25.8225 124.316 25.8875C124.146 25.9525 123.991 26.0475 123.851 26.1725C123.716 26.2975 123.596 26.45 123.491 26.63C123.386 26.81 123.289 27.015 123.199 27.245V32H121.586V24.35H122.524C122.694 24.35 122.811 24.3825 122.876 24.4475C122.941 24.5075 122.986 24.615 123.011 24.77L123.109 25.7675ZM82.32 39.2L77.94 50H76.3575L71.9775 39.2H73.38C73.535 39.2 73.66 39.24 73.755 39.32C73.85 39.395 73.9225 39.49 73.9725 39.605L76.755 46.6475C76.905 47.0425 77.0425 47.4975 77.1675 48.0125C77.2225 47.7575 77.28 47.515 77.34 47.285C77.405 47.055 77.475 46.8425 77.55 46.6475L80.325 39.605C80.365 39.505 80.435 39.4125 80.535 39.3275C80.635 39.2425 80.76 39.2 80.91 39.2H82.32ZM84.9604 42.35V50H83.3479V42.35H84.9604ZM85.2304 40.04C85.2304 40.185 85.2004 40.3225 85.1404 40.4525C85.0854 40.5825 85.0079 40.6975 84.9079 40.7975C84.8079 40.8925 84.6904 40.97 84.5554 41.03C84.4254 41.085 84.2854 41.1125 84.1354 41.1125C83.9904 41.1125 83.8529 41.085 83.7229 41.03C83.5979 40.97 83.4879 40.8925 83.3929 40.7975C83.2979 40.6975 83.2204 40.5825 83.1604 40.4525C83.1054 40.3225 83.0779 40.185 83.0779 40.04C83.0779 39.89 83.1054 39.75 83.1604 39.62C83.2204 39.49 83.2979 39.3775 83.3929 39.2825C83.4879 39.1825 83.5979 39.105 83.7229 39.05C83.8529 38.99 83.9904 38.96 84.1354 38.96C84.2854 38.96 84.4254 38.99 84.5554 39.05C84.6904 39.105 84.8079 39.1825 84.9079 39.2825C85.0079 39.3775 85.0854 39.49 85.1404 39.62C85.2004 39.75 85.2304 39.89 85.2304 40.04ZM91.8689 44.2325C91.6439 43.9425 91.3964 43.74 91.1264 43.625C90.8564 43.51 90.5639 43.4525 90.2489 43.4525C89.6189 43.4525 89.1264 43.685 88.7714 44.15C88.4164 44.61 88.2389 45.2925 88.2389 46.1975C88.2389 46.6675 88.2789 47.07 88.3589 47.405C88.4389 47.735 88.5539 48.005 88.7039 48.215C88.8539 48.425 89.0364 48.5775 89.2514 48.6725C89.4664 48.7675 89.7089 48.815 89.9789 48.815C90.3889 48.815 90.7414 48.7275 91.0364 48.5525C91.3364 48.3725 91.6139 48.12 91.8689 47.795V44.2325ZM93.4814 38.9V50H92.5064C92.2914 50 92.1539 49.8975 92.0939 49.6925L91.9514 48.86C91.6314 49.235 91.2664 49.5375 90.8564 49.7675C90.4514 49.9975 89.9789 50.1125 89.4389 50.1125C89.0089 50.1125 88.6189 50.0275 88.2689 49.8575C87.9189 49.6825 87.6189 49.43 87.3689 49.1C87.1189 48.77 86.9239 48.3625 86.7839 47.8775C86.6489 47.3875 86.5814 46.8275 86.5814 46.1975C86.5814 45.6275 86.6564 45.1 86.8064 44.615C86.9614 44.13 87.1814 43.71 87.4664 43.355C87.7514 42.995 88.0964 42.715 88.5014 42.515C88.9114 42.31 89.3689 42.2075 89.8739 42.2075C90.3239 42.2075 90.7064 42.28 91.0214 42.425C91.3364 42.565 91.6189 42.7625 91.8689 43.0175V38.9H93.4814ZM100.471 45.3125C100.471 45.0425 100.431 44.7925 100.351 44.5625C100.276 44.3275 100.163 44.125 100.013 43.955C99.8632 43.78 99.6757 43.645 99.4507 43.55C99.2307 43.45 98.9757 43.4 98.6857 43.4C98.1007 43.4 97.6407 43.5675 97.3057 43.9025C96.9707 44.2375 96.7582 44.7075 96.6682 45.3125H100.471ZM96.6232 46.3025C96.6432 46.7375 96.7107 47.115 96.8257 47.435C96.9407 47.75 97.0932 48.0125 97.2832 48.2225C97.4782 48.4325 97.7082 48.59 97.9732 48.695C98.2432 48.795 98.5432 48.845 98.8732 48.845C99.1882 48.845 99.4607 48.81 99.6907 48.74C99.9207 48.665 100.121 48.585 100.291 48.5C100.461 48.41 100.606 48.33 100.726 48.26C100.846 48.185 100.956 48.1475 101.056 48.1475C101.186 48.1475 101.286 48.1975 101.356 48.2975L101.813 48.89C101.623 49.115 101.408 49.305 101.168 49.46C100.928 49.615 100.673 49.7425 100.403 49.8425C100.133 49.9375 99.8557 50.005 99.5707 50.045C99.2857 50.09 99.0082 50.1125 98.7382 50.1125C98.2082 50.1125 97.7157 50.025 97.2607 49.85C96.8107 49.67 96.4182 49.4075 96.0832 49.0625C95.7532 48.7175 95.4932 48.29 95.3032 47.78C95.1182 47.27 95.0257 46.6825 95.0257 46.0175C95.0257 45.4875 95.1082 44.9925 95.2732 44.5325C95.4432 44.0725 95.6832 43.6725 95.9932 43.3325C96.3082 42.9925 96.6882 42.725 97.1332 42.53C97.5832 42.33 98.0907 42.23 98.6557 42.23C99.1257 42.23 99.5607 42.3075 99.9607 42.4625C100.361 42.6125 100.706 42.835 100.996 43.13C101.286 43.425 101.511 43.7875 101.671 44.2175C101.836 44.6425 101.918 45.1275 101.918 45.6725C101.918 45.9225 101.891 46.09 101.836 46.175C101.781 46.26 101.681 46.3025 101.536 46.3025H96.6232ZM106.729 42.23C107.294 42.23 107.804 42.3225 108.259 42.5075C108.719 42.6925 109.109 42.955 109.429 43.295C109.754 43.635 110.004 44.0475 110.179 44.5325C110.354 45.0175 110.442 45.5625 110.442 46.1675C110.442 46.7725 110.354 47.3175 110.179 47.8025C110.004 48.2875 109.754 48.7025 109.429 49.0475C109.109 49.3875 108.719 49.65 108.259 49.835C107.804 50.02 107.294 50.1125 106.729 50.1125C106.159 50.1125 105.644 50.02 105.184 49.835C104.729 49.65 104.339 49.3875 104.014 49.0475C103.689 48.7025 103.439 48.2875 103.264 47.8025C103.089 47.3175 103.002 46.7725 103.002 46.1675C103.002 45.5625 103.089 45.0175 103.264 44.5325C103.439 44.0475 103.689 43.635 104.014 43.295C104.339 42.955 104.729 42.6925 105.184 42.5075C105.644 42.3225 106.159 42.23 106.729 42.23ZM106.729 48.8525C107.419 48.8525 107.932 48.6225 108.267 48.1625C108.607 47.6975 108.777 47.035 108.777 46.175C108.777 45.315 108.607 44.6525 108.267 44.1875C107.932 43.7175 107.419 43.4825 106.729 43.4825C106.029 43.4825 105.509 43.7175 105.169 44.1875C104.829 44.6525 104.659 45.315 104.659 46.175C104.659 47.035 104.829 47.6975 105.169 48.1625C105.509 48.6225 106.029 48.8525 106.729 48.8525ZM123.527 47.5925C123.622 47.5925 123.704 47.63 123.774 47.705L124.472 48.4625C124.032 48.9925 123.492 49.4025 122.852 49.6925C122.212 49.9775 121.447 50.12 120.557 50.12C119.767 50.12 119.052 49.985 118.412 49.715C117.777 49.44 117.234 49.06 116.784 48.575C116.334 48.085 115.987 47.5025 115.742 46.8275C115.502 46.1525 115.382 45.41 115.382 44.6C115.382 43.79 115.509 43.0475 115.764 42.3725C116.024 41.6925 116.387 41.11 116.852 40.625C117.322 40.135 117.882 39.755 118.532 39.485C119.187 39.215 119.907 39.08 120.692 39.08C121.472 39.08 122.159 39.2075 122.754 39.4625C123.354 39.7125 123.874 40.0475 124.314 40.4675L123.737 41.285C123.697 41.34 123.649 41.3875 123.594 41.4275C123.539 41.4675 123.464 41.4875 123.369 41.4875C123.269 41.4875 123.154 41.4425 123.024 41.3525C122.899 41.2575 122.737 41.155 122.537 41.045C122.342 40.93 122.094 40.8275 121.794 40.7375C121.499 40.6425 121.129 40.595 120.684 40.595C120.169 40.595 119.697 40.685 119.267 40.865C118.837 41.045 118.467 41.3075 118.157 41.6525C117.847 41.9975 117.604 42.4175 117.429 42.9125C117.259 43.4075 117.174 43.97 117.174 44.6C117.174 45.235 117.264 45.8025 117.444 46.3025C117.624 46.7975 117.872 47.2175 118.187 47.5625C118.502 47.9025 118.872 48.1625 119.297 48.3425C119.722 48.5225 120.179 48.6125 120.669 48.6125C120.969 48.6125 121.237 48.5975 121.472 48.5675C121.712 48.5325 121.932 48.48 122.132 48.41C122.332 48.335 122.519 48.2425 122.694 48.1325C122.874 48.0225 123.052 47.8875 123.227 47.7275C123.327 47.6375 123.427 47.5925 123.527 47.5925ZM127.33 38.9V50H125.718V38.9H127.33ZM131 42.35V50H129.388V42.35H131ZM131.27 40.04C131.27 40.185 131.24 40.3225 131.18 40.4525C131.125 40.5825 131.048 40.6975 130.948 40.7975C130.848 40.8925 130.73 40.97 130.595 41.03C130.465 41.085 130.325 41.1125 130.175 41.1125C130.03 41.1125 129.893 41.085 129.763 41.03C129.638 40.97 129.528 40.8925 129.433 40.7975C129.338 40.6975 129.26 40.5825 129.2 40.4525C129.145 40.3225 129.118 40.185 129.118 40.04C129.118 39.89 129.145 39.75 129.2 39.62C129.26 39.49 129.338 39.3775 129.433 39.2825C129.528 39.1825 129.638 39.105 129.763 39.05C129.893 38.99 130.03 38.96 130.175 38.96C130.325 38.96 130.465 38.99 130.595 39.05C130.73 39.105 130.848 39.1825 130.948 39.2825C131.048 39.3775 131.125 39.49 131.18 39.62C131.24 39.75 131.27 39.89 131.27 40.04ZM134.639 48.08C134.864 48.37 135.109 48.575 135.374 48.695C135.644 48.81 135.941 48.8675 136.266 48.8675C136.896 48.8675 137.386 48.6375 137.736 48.1775C138.091 47.7175 138.269 47.0325 138.269 46.1225C138.269 45.6525 138.229 45.2525 138.149 44.9225C138.069 44.5875 137.954 44.315 137.804 44.105C137.654 43.895 137.471 43.7425 137.256 43.6475C137.041 43.5525 136.799 43.505 136.529 43.505C136.119 43.505 135.764 43.595 135.464 43.775C135.169 43.95 134.894 44.2025 134.639 44.5325V48.08ZM134.556 43.46C134.876 43.085 135.239 42.7825 135.644 42.5525C136.054 42.3225 136.529 42.2075 137.069 42.2075C137.499 42.2075 137.889 42.295 138.239 42.47C138.589 42.64 138.889 42.89 139.139 43.22C139.389 43.55 139.581 43.96 139.716 44.45C139.856 44.935 139.926 45.4925 139.926 46.1225C139.926 46.6875 139.849 47.215 139.694 47.705C139.544 48.19 139.326 48.6125 139.041 48.9725C138.756 49.3275 138.411 49.6075 138.006 49.8125C137.601 50.0125 137.144 50.1125 136.634 50.1125C136.184 50.1125 135.801 50.04 135.486 49.895C135.176 49.75 134.894 49.55 134.639 49.295V52.5425H133.026V42.35H134.001C134.221 42.35 134.361 42.4525 134.421 42.6575L134.556 43.46Z" fill="white"/>
<path d="M54.5 21.5H27.5C25.85 21.5 24.5 22.85 24.5 24.5V42.5C24.5 44.15 25.85 45.5 27.5 45.5H35V47C35 47.825 35.675 48.5 36.5 48.5H45.5C46.325 48.5 47 47.825 47 47V45.5H54.5C56.15 45.5 57.485 44.15 57.485 42.5L57.5 24.5C57.5 23.7044 57.1839 22.9413 56.6213 22.3787C56.0587 21.8161 55.2956 21.5 54.5 21.5ZM53 42.5H29C28.175 42.5 27.5 41.825 27.5 41V26C27.5 25.175 28.175 24.5 29 24.5H53C53.825 24.5 54.5 25.175 54.5 26V41C54.5 41.825 53.825 42.5 53 42.5ZM44.72 34.805L38.75 38.225C37.745 38.795 36.5 38.06 36.5 36.92V30.08C36.5 28.925 37.745 28.205 38.75 28.775L44.72 32.195C45.725 32.78 45.725 34.22 44.72 34.805Z" fill="white"/>
</svg>
