<svg width="168" height="69" viewBox="0 0 168 69" fill="none" xmlns="http://www.w3.org/2000/svg">
<rect width="168" height="69" rx="8" fill="#143FFF"/>
<path d="M70.2225 19.2V30H69.33C69.195 30 69.08 29.9775 68.985 29.9325C68.89 29.8825 68.8 29.8025 68.715 29.6925L62.7825 22.0725C62.7975 22.2175 62.8075 22.3625 62.8125 22.5075C62.8225 22.6475 62.8275 22.7775 62.8275 22.8975V30H61.2825V19.2H62.1975C62.2725 19.2 62.335 19.205 62.385 19.215C62.44 19.22 62.49 19.2325 62.535 19.2525C62.58 19.2725 62.6225 19.3025 62.6625 19.3425C62.7025 19.3825 62.745 19.4325 62.79 19.4925L68.73 27.12C68.715 26.965 68.7025 26.8125 68.6925 26.6625C68.6875 26.5125 68.685 26.3725 68.685 26.2425V19.2H70.2225ZM74.5587 20.6175V24.075H78.7812V25.4925H74.5587V30H72.7962V19.2H79.5312V20.6175H74.5587ZM88.7101 20.6625H85.3426V30H83.5951V20.6625H80.2201V19.2H88.7101V20.6625ZM95.2569 20.6175V24.075H99.4794V25.4925H95.2569V30H93.4944V19.2H100.229V20.6175H95.2569ZM104.324 22.23C104.889 22.23 105.399 22.3225 105.854 22.5075C106.314 22.6925 106.704 22.955 107.024 23.295C107.349 23.635 107.599 24.0475 107.774 24.5325C107.949 25.0175 108.037 25.5625 108.037 26.1675C108.037 26.7725 107.949 27.3175 107.774 27.8025C107.599 28.2875 107.349 28.7025 107.024 29.0475C106.704 29.3875 106.314 29.65 105.854 29.835C105.399 30.02 104.889 30.1125 104.324 30.1125C103.754 30.1125 103.239 30.02 102.779 29.835C102.324 29.65 101.934 29.3875 101.609 29.0475C101.284 28.7025 101.034 28.2875 100.859 27.8025C100.684 27.3175 100.597 26.7725 100.597 26.1675C100.597 25.5625 100.684 25.0175 100.859 24.5325C101.034 24.0475 101.284 23.635 101.609 23.295C101.934 22.955 102.324 22.6925 102.779 22.5075C103.239 22.3225 103.754 22.23 104.324 22.23ZM104.324 28.8525C105.014 28.8525 105.527 28.6225 105.862 28.1625C106.202 27.6975 106.372 27.035 106.372 26.175C106.372 25.315 106.202 24.6525 105.862 24.1875C105.527 23.7175 105.014 23.4825 104.324 23.4825C103.624 23.4825 103.104 23.7175 102.764 24.1875C102.424 24.6525 102.254 25.315 102.254 26.175C102.254 27.035 102.424 27.6975 102.764 28.1625C103.104 28.6225 103.624 28.8525 104.324 28.8525ZM111.109 23.7675C111.349 23.2825 111.639 22.9025 111.979 22.6275C112.319 22.3475 112.726 22.2075 113.201 22.2075C113.366 22.2075 113.521 22.2275 113.666 22.2675C113.811 22.3025 113.941 22.3575 114.056 22.4325L113.944 23.6475C113.924 23.7325 113.891 23.7925 113.846 23.8275C113.806 23.8575 113.751 23.8725 113.681 23.8725C113.606 23.8725 113.499 23.86 113.359 23.835C113.219 23.805 113.071 23.79 112.916 23.79C112.691 23.79 112.491 23.8225 112.316 23.8875C112.146 23.9525 111.991 24.0475 111.851 24.1725C111.716 24.2975 111.596 24.45 111.491 24.63C111.386 24.81 111.289 25.015 111.199 25.245V30H109.586V22.35H110.524C110.694 22.35 110.811 22.3825 110.876 22.4475C110.941 22.5075 110.986 22.615 111.011 22.77L111.109 23.7675ZM70.7625 42.6C70.7625 43.4 70.6325 44.1325 70.3725 44.7975C70.1125 45.4575 69.745 46.025 69.27 46.5C68.8 46.975 68.2325 47.345 67.5675 47.61C66.9075 47.87 66.1725 48 65.3625 48H61.2825V37.2H65.3625C66.1725 37.2 66.9075 37.3325 67.5675 37.5975C68.2325 37.8575 68.8 38.225 69.27 38.7C69.745 39.175 70.1125 39.745 70.3725 40.41C70.6325 41.07 70.7625 41.8 70.7625 42.6ZM68.97 42.6C68.97 41.98 68.885 41.4225 68.715 40.9275C68.55 40.4325 68.31 40.015 67.995 39.675C67.685 39.335 67.3075 39.075 66.8625 38.895C66.4175 38.71 65.9175 38.6175 65.3625 38.6175H63.045V46.5825H65.3625C65.9175 46.5825 66.4175 46.4925 66.8625 46.3125C67.3075 46.1325 67.685 45.8725 67.995 45.5325C68.31 45.1875 68.55 44.77 68.715 44.28C68.885 43.785 68.97 43.225 68.97 42.6ZM75.5986 40.23C76.1636 40.23 76.6736 40.3225 77.1286 40.5075C77.5886 40.6925 77.9786 40.955 78.2986 41.295C78.6236 41.635 78.8736 42.0475 79.0486 42.5325C79.2236 43.0175 79.3111 43.5625 79.3111 44.1675C79.3111 44.7725 79.2236 45.3175 79.0486 45.8025C78.8736 46.2875 78.6236 46.7025 78.2986 47.0475C77.9786 47.3875 77.5886 47.65 77.1286 47.835C76.6736 48.02 76.1636 48.1125 75.5986 48.1125C75.0286 48.1125 74.5136 48.02 74.0536 47.835C73.5986 47.65 73.2086 47.3875 72.8836 47.0475C72.5586 46.7025 72.3086 46.2875 72.1336 45.8025C71.9586 45.3175 71.8711 44.7725 71.8711 44.1675C71.8711 43.5625 71.9586 43.0175 72.1336 42.5325C72.3086 42.0475 72.5586 41.635 72.8836 41.295C73.2086 40.955 73.5986 40.6925 74.0536 40.5075C74.5136 40.3225 75.0286 40.23 75.5986 40.23ZM75.5986 46.8525C76.2886 46.8525 76.8011 46.6225 77.1361 46.1625C77.4761 45.6975 77.6461 45.035 77.6461 44.175C77.6461 43.315 77.4761 42.6525 77.1361 42.1875C76.8011 41.7175 76.2886 41.4825 75.5986 41.4825C74.8986 41.4825 74.3786 41.7175 74.0386 42.1875C73.6986 42.6525 73.5286 43.315 73.5286 44.175C73.5286 45.035 73.6986 45.6975 74.0386 46.1625C74.3786 46.6225 74.8986 46.8525 75.5986 46.8525ZM80.8604 48V40.35H81.8354C82.0554 40.35 82.1954 40.4525 82.2554 40.6575L82.3604 41.325C82.5004 41.165 82.6454 41.02 82.7954 40.89C82.9454 40.755 83.1054 40.64 83.2754 40.545C83.4504 40.445 83.6354 40.3675 83.8304 40.3125C84.0304 40.2575 84.2454 40.23 84.4754 40.23C84.7204 40.23 84.9454 40.265 85.1504 40.335C85.3554 40.405 85.5354 40.505 85.6904 40.635C85.8504 40.765 85.9879 40.9225 86.1029 41.1075C86.2179 41.2925 86.3129 41.5 86.3879 41.73C86.5029 41.465 86.6479 41.2375 86.8229 41.0475C86.9979 40.8575 87.1929 40.7025 87.4079 40.5825C87.6229 40.4625 87.8504 40.375 88.0904 40.32C88.3354 40.26 88.5829 40.23 88.8329 40.23C89.2429 40.23 89.6079 40.295 89.9279 40.425C90.2529 40.555 90.5254 40.745 90.7454 40.995C90.9704 41.24 91.1404 41.5425 91.2554 41.9025C91.3704 42.2625 91.4279 42.6725 91.4279 43.1325V48H89.8154V43.1325C89.8154 42.5925 89.6979 42.1875 89.4629 41.9175C89.2329 41.6425 88.8904 41.505 88.4354 41.505C88.2304 41.505 88.0379 41.54 87.8579 41.61C87.6779 41.68 87.5204 41.7825 87.3854 41.9175C87.2504 42.0525 87.1429 42.2225 87.0629 42.4275C86.9879 42.6275 86.9504 42.8625 86.9504 43.1325V48H85.3379V43.1325C85.3379 42.5725 85.2254 42.1625 85.0004 41.9025C84.7754 41.6375 84.4454 41.505 84.0104 41.505C83.7104 41.505 83.4329 41.5825 83.1779 41.7375C82.9229 41.8875 82.6879 42.095 82.4729 42.36V48H80.8604ZM97.3991 44.655C96.8241 44.675 96.3391 44.7225 95.9441 44.7975C95.5491 44.8675 95.2291 44.96 94.9841 45.075C94.7391 45.185 94.5616 45.3175 94.4516 45.4725C94.3466 45.6275 94.2941 45.7975 94.2941 45.9825C94.2941 46.1625 94.3216 46.3175 94.3766 46.4475C94.4366 46.5725 94.5166 46.6775 94.6166 46.7625C94.7216 46.8425 94.8416 46.9025 94.9766 46.9425C95.1166 46.9775 95.2691 46.995 95.4341 46.995C95.8541 46.995 96.2141 46.9175 96.5141 46.7625C96.8191 46.6025 97.1141 46.3725 97.3991 46.0725V44.655ZM93.1241 41.415C93.9891 40.61 95.0191 40.2075 96.2141 40.2075C96.6541 40.2075 97.0441 40.28 97.3841 40.425C97.7291 40.565 98.0166 40.765 98.2466 41.025C98.4816 41.285 98.6591 41.595 98.7791 41.955C98.9041 42.31 98.9666 42.705 98.9666 43.14V48H98.2466C98.0916 48 97.9741 47.9775 97.8941 47.9325C97.8141 47.8825 97.7466 47.785 97.6916 47.64L97.5341 47.0175C97.3391 47.1925 97.1466 47.35 96.9566 47.49C96.7666 47.625 96.5691 47.74 96.3641 47.835C96.1641 47.93 95.9466 48 95.7116 48.045C95.4816 48.095 95.2266 48.12 94.9466 48.12C94.6366 48.12 94.3466 48.0775 94.0766 47.9925C93.8116 47.9075 93.5816 47.78 93.3866 47.61C93.1916 47.435 93.0366 47.22 92.9216 46.965C92.8116 46.71 92.7566 46.41 92.7566 46.065C92.7566 45.77 92.8341 45.4825 92.9891 45.2025C93.1491 44.9225 93.4091 44.6725 93.7691 44.4525C94.1341 44.2275 94.6116 44.0425 95.2016 43.8975C95.7966 43.7525 96.5291 43.67 97.3991 43.65V43.14C97.3991 42.59 97.2816 42.18 97.0466 41.91C96.8116 41.64 96.4666 41.505 96.0116 41.505C95.7016 41.505 95.4416 41.545 95.2316 41.625C95.0216 41.7 94.8391 41.7825 94.6841 41.8725C94.5291 41.9625 94.3916 42.0475 94.2716 42.1275C94.1516 42.2025 94.0241 42.24 93.8891 42.24C93.7791 42.24 93.6841 42.2125 93.6041 42.1575C93.5291 42.0975 93.4666 42.025 93.4166 41.94L93.1241 41.415ZM102.536 40.35V48H100.923V40.35H102.536ZM102.806 38.04C102.806 38.185 102.776 38.3225 102.716 38.4525C102.661 38.5825 102.583 38.6975 102.483 38.7975C102.383 38.8925 102.266 38.97 102.131 39.03C102.001 39.085 101.861 39.1125 101.711 39.1125C101.566 39.1125 101.428 39.085 101.298 39.03C101.173 38.97 101.063 38.8925 100.968 38.7975C100.873 38.6975 100.796 38.5825 100.736 38.4525C100.681 38.3225 100.653 38.185 100.653 38.04C100.653 37.89 100.681 37.75 100.736 37.62C100.796 37.49 100.873 37.3775 100.968 37.2825C101.063 37.1825 101.173 37.105 101.298 37.05C101.428 36.99 101.566 36.96 101.711 36.96C101.861 36.96 102.001 36.99 102.131 37.05C102.266 37.105 102.383 37.1825 102.483 37.2825C102.583 37.3775 102.661 37.49 102.716 37.62C102.776 37.75 102.806 37.89 102.806 38.04ZM106.069 41.3625C106.234 41.1925 106.404 41.04 106.579 40.905C106.759 40.765 106.949 40.645 107.149 40.545C107.349 40.445 107.562 40.3675 107.787 40.3125C108.012 40.2575 108.257 40.23 108.522 40.23C108.942 40.23 109.309 40.3 109.624 40.44C109.944 40.58 110.212 40.7775 110.427 41.0325C110.647 41.2875 110.812 41.595 110.922 41.955C111.032 42.31 111.087 42.7025 111.087 43.1325V48H109.482V43.1325C109.482 42.6175 109.362 42.2175 109.122 41.9325C108.887 41.6475 108.527 41.505 108.042 41.505C107.682 41.505 107.347 41.5875 107.037 41.7525C106.732 41.9175 106.444 42.1425 106.174 42.4275V48H104.562V40.35H105.537C105.757 40.35 105.897 40.4525 105.957 40.6575L106.069 41.3625ZM118.213 41.3625C118.378 41.1925 118.548 41.04 118.723 40.905C118.903 40.765 119.093 40.645 119.293 40.545C119.493 40.445 119.705 40.3675 119.93 40.3125C120.155 40.2575 120.4 40.23 120.665 40.23C121.085 40.23 121.453 40.3 121.768 40.44C122.088 40.58 122.355 40.7775 122.57 41.0325C122.79 41.2875 122.955 41.595 123.065 41.955C123.175 42.31 123.23 42.7025 123.23 43.1325V48H121.625V43.1325C121.625 42.6175 121.505 42.2175 121.265 41.9325C121.03 41.6475 120.67 41.505 120.185 41.505C119.825 41.505 119.49 41.5875 119.18 41.7525C118.875 41.9175 118.588 42.1425 118.318 42.4275V48H116.705V40.35H117.68C117.9 40.35 118.04 40.4525 118.1 40.6575L118.213 41.3625ZM129.201 44.655C128.626 44.675 128.141 44.7225 127.746 44.7975C127.351 44.8675 127.031 44.96 126.786 45.075C126.541 45.185 126.363 45.3175 126.253 45.4725C126.148 45.6275 126.096 45.7975 126.096 45.9825C126.096 46.1625 126.123 46.3175 126.178 46.4475C126.238 46.5725 126.318 46.6775 126.418 46.7625C126.523 46.8425 126.643 46.9025 126.778 46.9425C126.918 46.9775 127.071 46.995 127.236 46.995C127.656 46.995 128.016 46.9175 128.316 46.7625C128.621 46.6025 128.916 46.3725 129.201 46.0725V44.655ZM124.926 41.415C125.791 40.61 126.821 40.2075 128.016 40.2075C128.456 40.2075 128.846 40.28 129.186 40.425C129.531 40.565 129.818 40.765 130.048 41.025C130.283 41.285 130.461 41.595 130.581 41.955C130.706 42.31 130.768 42.705 130.768 43.14V48H130.048C129.893 48 129.776 47.9775 129.696 47.9325C129.616 47.8825 129.548 47.785 129.493 47.64L129.336 47.0175C129.141 47.1925 128.948 47.35 128.758 47.49C128.568 47.625 128.371 47.74 128.166 47.835C127.966 47.93 127.748 48 127.513 48.045C127.283 48.095 127.028 48.12 126.748 48.12C126.438 48.12 126.148 48.0775 125.878 47.9925C125.613 47.9075 125.383 47.78 125.188 47.61C124.993 47.435 124.838 47.22 124.723 46.965C124.613 46.71 124.558 46.41 124.558 46.065C124.558 45.77 124.636 45.4825 124.791 45.2025C124.951 44.9225 125.211 44.6725 125.571 44.4525C125.936 44.2275 126.413 44.0425 127.003 43.8975C127.598 43.7525 128.331 43.67 129.201 43.65V43.14C129.201 42.59 129.083 42.18 128.848 41.91C128.613 41.64 128.268 41.505 127.813 41.505C127.503 41.505 127.243 41.545 127.033 41.625C126.823 41.7 126.641 41.7825 126.486 41.8725C126.331 41.9625 126.193 42.0475 126.073 42.1275C125.953 42.2025 125.826 42.24 125.691 42.24C125.581 42.24 125.486 42.2125 125.406 42.1575C125.331 42.0975 125.268 42.025 125.218 41.94L124.926 41.415ZM132.657 48V40.35H133.632C133.852 40.35 133.992 40.4525 134.052 40.6575L134.157 41.325C134.297 41.165 134.442 41.02 134.592 40.89C134.742 40.755 134.902 40.64 135.072 40.545C135.247 40.445 135.432 40.3675 135.627 40.3125C135.827 40.2575 136.042 40.23 136.272 40.23C136.517 40.23 136.742 40.265 136.947 40.335C137.152 40.405 137.332 40.505 137.487 40.635C137.647 40.765 137.785 40.9225 137.9 41.1075C138.015 41.2925 138.11 41.5 138.185 41.73C138.3 41.465 138.445 41.2375 138.62 41.0475C138.795 40.8575 138.99 40.7025 139.205 40.5825C139.42 40.4625 139.647 40.375 139.887 40.32C140.132 40.26 140.38 40.23 140.63 40.23C141.04 40.23 141.405 40.295 141.725 40.425C142.05 40.555 142.322 40.745 142.542 40.995C142.767 41.24 142.937 41.5425 143.052 41.9025C143.167 42.2625 143.225 42.6725 143.225 43.1325V48H141.612V43.1325C141.612 42.5925 141.495 42.1875 141.26 41.9175C141.03 41.6425 140.687 41.505 140.232 41.505C140.027 41.505 139.835 41.54 139.655 41.61C139.475 41.68 139.317 41.7825 139.182 41.9175C139.047 42.0525 138.94 42.2225 138.86 42.4275C138.785 42.6275 138.747 42.8625 138.747 43.1325V48H137.135V43.1325C137.135 42.5725 137.022 42.1625 136.797 41.9025C136.572 41.6375 136.242 41.505 135.807 41.505C135.507 41.505 135.23 41.5825 134.975 41.7375C134.72 41.8875 134.485 42.095 134.27 42.36V48H132.657ZM150.126 43.3125C150.126 43.0425 150.086 42.7925 150.006 42.5625C149.931 42.3275 149.818 42.125 149.668 41.955C149.518 41.78 149.331 41.645 149.106 41.55C148.886 41.45 148.631 41.4 148.341 41.4C147.756 41.4 147.296 41.5675 146.961 41.9025C146.626 42.2375 146.413 42.7075 146.323 43.3125H150.126ZM146.278 44.3025C146.298 44.7375 146.366 45.115 146.481 45.435C146.596 45.75 146.748 46.0125 146.938 46.2225C147.133 46.4325 147.363 46.59 147.628 46.695C147.898 46.795 148.198 46.845 148.528 46.845C148.843 46.845 149.116 46.81 149.346 46.74C149.576 46.665 149.776 46.585 149.946 46.5C150.116 46.41 150.261 46.33 150.381 46.26C150.501 46.185 150.611 46.1475 150.711 46.1475C150.841 46.1475 150.941 46.1975 151.011 46.2975L151.468 46.89C151.278 47.115 151.063 47.305 150.823 47.46C150.583 47.615 150.328 47.7425 150.058 47.8425C149.788 47.9375 149.511 48.005 149.226 48.045C148.941 48.09 148.663 48.1125 148.393 48.1125C147.863 48.1125 147.371 48.025 146.916 47.85C146.466 47.67 146.073 47.4075 145.738 47.0625C145.408 46.7175 145.148 46.29 144.958 45.78C144.773 45.27 144.681 44.6825 144.681 44.0175C144.681 43.4875 144.763 42.9925 144.928 42.5325C145.098 42.0725 145.338 41.6725 145.648 41.3325C145.963 40.9925 146.343 40.725 146.788 40.53C147.238 40.33 147.746 40.23 148.311 40.23C148.781 40.23 149.216 40.3075 149.616 40.4625C150.016 40.6125 150.361 40.835 150.651 41.13C150.941 41.425 151.166 41.7875 151.326 42.2175C151.491 42.6425 151.573 43.1275 151.573 43.6725C151.573 43.9225 151.546 44.09 151.491 44.175C151.436 44.26 151.336 44.3025 151.191 44.3025H146.278ZM157.645 41.7375C157.605 41.8075 157.56 41.8575 157.51 41.8875C157.46 41.9175 157.397 41.9325 157.322 41.9325C157.237 41.9325 157.145 41.9075 157.045 41.8575C156.945 41.8025 156.827 41.7425 156.692 41.6775C156.557 41.6125 156.397 41.555 156.212 41.505C156.032 41.45 155.82 41.4225 155.575 41.4225C155.375 41.4225 155.192 41.4475 155.027 41.4975C154.867 41.5425 154.73 41.61 154.615 41.7C154.505 41.785 154.42 41.8875 154.36 42.0075C154.3 42.1225 154.27 42.2475 154.27 42.3825C154.27 42.5625 154.325 42.7125 154.435 42.8325C154.545 42.9525 154.69 43.0575 154.87 43.1475C155.05 43.2325 155.255 43.31 155.485 43.38C155.715 43.45 155.95 43.525 156.19 43.605C156.43 43.685 156.665 43.7775 156.895 43.8825C157.125 43.9875 157.33 44.1175 157.51 44.2725C157.69 44.4225 157.835 44.6075 157.945 44.8275C158.055 45.0425 158.11 45.305 158.11 45.615C158.11 45.975 158.045 46.3075 157.915 46.6125C157.785 46.9175 157.595 47.1825 157.345 47.4075C157.095 47.6325 156.782 47.8075 156.407 47.9325C156.037 48.0575 155.612 48.12 155.132 48.12C154.867 48.12 154.61 48.095 154.36 48.045C154.115 48 153.88 47.9375 153.655 47.8575C153.435 47.7725 153.227 47.6725 153.032 47.5575C152.842 47.4425 152.672 47.3175 152.522 47.1825L152.897 46.5675C152.942 46.4925 152.997 46.435 153.062 46.395C153.132 46.35 153.217 46.3275 153.317 46.3275C153.422 46.3275 153.525 46.3625 153.625 46.4325C153.73 46.4975 153.85 46.57 153.985 46.65C154.125 46.73 154.292 46.805 154.487 46.875C154.682 46.94 154.925 46.9725 155.215 46.9725C155.455 46.9725 155.662 46.945 155.837 46.89C156.012 46.83 156.157 46.75 156.272 46.65C156.387 46.55 156.472 46.4375 156.527 46.3125C156.582 46.1825 156.61 46.045 156.61 45.9C156.61 45.705 156.555 45.545 156.445 45.42C156.335 45.295 156.187 45.1875 156.002 45.0975C155.822 45.0075 155.615 44.9275 155.38 44.8575C155.15 44.7875 154.915 44.7125 154.675 44.6325C154.435 44.5525 154.197 44.46 153.962 44.355C153.732 44.25 153.525 44.1175 153.34 43.9575C153.16 43.7925 153.015 43.595 152.905 43.365C152.795 43.13 152.74 42.845 152.74 42.51C152.74 42.205 152.8 41.915 152.92 41.64C153.045 41.365 153.225 41.1225 153.46 40.9125C153.7 40.7025 153.992 40.5375 154.337 40.4175C154.687 40.2925 155.09 40.23 155.545 40.23C156.06 40.23 156.527 40.3125 156.947 40.4775C157.367 40.6425 157.72 40.8675 158.005 41.1525L157.645 41.7375Z" fill="white"/>
<path d="M49 40C49 41.8125 48.5521 43.4844 47.6562 45.0156C46.7604 46.5469 45.5469 47.7604 44.0156 48.6562C42.4844 49.5521 40.8125 50 39 50C37.3958 50 35.8958 49.6406 34.5 48.9219C33.1042 48.2031 31.9375 47.2292 31 46C29.1042 46 27.2917 45.6302 25.5625 44.8906C23.8333 44.151 22.3438 43.1562 21.0938 41.9062C19.8438 40.6562 18.849 39.1667 18.1094 37.4375C17.3698 35.7083 17 33.8958 17 32C17 30.1042 17.3698 28.2917 18.1094 26.5625C18.849 24.8333 19.8438 23.3438 21.0938 22.0938C22.3438 20.8438 23.8333 19.849 25.5625 19.1094C27.2917 18.3698 29.1042 18 31 18C32.8958 18 34.7083 18.3698 36.4375 19.1094C38.1667 19.849 39.6562 20.8438 40.9062 22.0938C42.1562 23.3438 43.151 24.8333 43.8906 26.5625C44.6302 28.2917 45 30.1042 45 32C46.2292 32.9375 47.2031 34.1042 47.9219 35.5C48.6406 36.8958 49 38.3958 49 40ZM33 32C32.6875 31.8542 32.4427 31.526 32.2656 31.0156C32.0885 30.5052 31.8438 30.1771 31.5312 30.0312C31.4896 29.9062 31.4479 29.8125 31.4062 29.75C31.4062 29.6458 31.3385 29.3542 31.2031 28.875C31.0677 28.3958 31 28.1042 31 28C31.2292 27.9375 31.5625 27.9375 32 28C32.4375 28.0625 32.7708 28.0625 33 28C32.875 27.75 32.7917 27.401 32.75 26.9531C32.7083 26.5052 32.625 26.1458 32.5 25.875C32.5417 25.8125 32.6042 25.7135 32.6875 25.5781C32.7708 25.4427 32.8333 25.3438 32.875 25.2812C33.2708 25.2396 33.6302 25.1927 33.9531 25.1406C34.276 25.0885 34.625 25.0417 35 25V24H37C35.6667 23 34.1771 22.375 32.5312 22.125C32.5938 22.3333 32.6719 22.6406 32.7656 23.0469C32.8594 23.4531 32.9271 23.75 32.9688 23.9375C32.8021 24 32.6146 24.0729 32.4062 24.1562C32.4271 24.1562 32.4583 24.1719 32.5 24.2031C32.5417 24.2344 32.5729 24.25 32.5938 24.25C32.4896 24.2708 32.224 24.2292 31.7969 24.125C31.3698 24.0208 31.1042 23.9792 31 24C31.0417 23.8333 31.0521 23.4948 31.0312 22.9844C31.0104 22.474 31.0521 22.1458 31.1562 22H31C28.6875 22 26.625 22.7188 24.8125 24.1562C25.4792 25.2604 25.875 25.875 26 26C25.8333 25.9167 25.6667 26.0312 25.5 26.3438C25.3333 26.6562 25.2083 26.9844 25.125 27.3281C25.0417 27.6719 25 27.8958 25 28C24.625 28.1667 24.1562 28.224 23.5938 28.1719C23.0312 28.1198 22.5625 28.1667 22.1875 28.3125C22.125 28.7292 21.9271 29.3438 21.5938 30.1562C21.2604 30.9688 21.0625 31.5833 21 32C21.125 32.1042 21.3021 32.1562 21.5312 32.1562C21.7604 32.1562 21.9896 32.125 22.2188 32.0625C22.4479 32 22.6406 32.0417 22.7969 32.1875C22.9531 32.3333 23.0208 32.6042 23 33C22.9583 33.0417 22.9167 33.224 22.875 33.5469C22.8333 33.8698 22.7917 34.0417 22.75 34.0625H21.2188C21.6354 36.0417 22.5677 37.7396 24.0156 39.1562C25.4635 40.5729 27.1875 41.4688 29.1875 41.8438C29.0625 41.1979 29 40.5833 29 40C29 37.5208 29.8021 35.349 31.4062 33.4844C33.0104 31.6198 35.0208 30.5 37.4375 30.125C36.5625 28.8542 36.0833 28.1458 36 28C35.875 28.0417 35.7083 28.0417 35.5 28C35.2917 27.9583 35.125 27.9583 35 28C34.9375 28.0417 34.875 28.1979 34.8125 28.4688C34.75 28.7396 34.6979 28.8958 34.6562 28.9375C34.7812 29.75 34.875 30.3229 34.9375 30.6562C34.875 30.7396 34.5521 30.9635 33.9688 31.3281C33.3854 31.6927 33.0625 31.9167 33 32ZM40.2812 28.3125C40.1979 28.1875 40.1042 28.0833 40 28H38C38 28.0625 38.0052 28.2292 38.0156 28.5C38.026 28.7708 38.0208 28.9375 38 29C38.2083 29.1458 38.5417 29.3125 39 29.5C39.4583 29.6875 39.7917 29.8542 40 30L39.9688 30.0156L39.9375 30.0312C40.2083 30.0729 40.5 30.125 40.8125 30.1875C40.7083 29.5208 40.5312 28.8958 40.2812 28.3125ZM39.0156 34C37.3594 34 35.9427 34.5833 34.7656 35.75C33.5885 36.9167 33 38.3333 33 40C33 41.6667 33.5885 43.0833 34.7656 44.25C35.9427 45.4167 37.3594 46 39.0156 46C40.6719 46 42.0833 45.4167 43.25 44.25C44.4167 43.0833 45 41.6667 45 40C45 38.3333 44.4167 36.9167 43.25 35.75C42.0833 34.5833 40.6719 34 39.0156 34Z" fill="white"/>
</svg>
