<svg width="168" height="69" viewBox="0 0 168 69" fill="none" xmlns="http://www.w3.org/2000/svg">
<rect width="168" height="69" rx="8" fill="#126692"/>
<path d="M74.2225 30.2V41H73.33C73.195 41 73.08 40.9775 72.985 40.9325C72.89 40.8825 72.8 40.8025 72.715 40.6925L66.7825 33.0725C66.7975 33.2175 66.8075 33.3625 66.8125 33.5075C66.8225 33.6475 66.8275 33.7775 66.8275 33.8975V41H65.2825V30.2H66.1975C66.2725 30.2 66.335 30.205 66.385 30.215C66.44 30.22 66.49 30.2325 66.535 30.2525C66.58 30.2725 66.6225 30.3025 66.6625 30.3425C66.7025 30.3825 66.745 30.4325 66.79 30.4925L72.73 38.12C72.715 37.965 72.7025 37.8125 72.6925 37.6625C72.6875 37.5125 72.685 37.3725 72.685 37.2425V30.2H74.2225ZM78.5587 31.6175V35.075H82.7812V36.4925H78.5587V41H76.7962V30.2H83.5312V31.6175H78.5587ZM92.7101 31.6625H89.3426V41H87.5951V31.6625H84.2201V30.2H92.7101V31.6625ZM99.2569 31.6175V35.075H103.479V36.4925H99.2569V41H97.4944V30.2H104.229V31.6175H99.2569ZM108.324 33.23C108.889 33.23 109.399 33.3225 109.854 33.5075C110.314 33.6925 110.704 33.955 111.024 34.295C111.349 34.635 111.599 35.0475 111.774 35.5325C111.949 36.0175 112.037 36.5625 112.037 37.1675C112.037 37.7725 111.949 38.3175 111.774 38.8025C111.599 39.2875 111.349 39.7025 111.024 40.0475C110.704 40.3875 110.314 40.65 109.854 40.835C109.399 41.02 108.889 41.1125 108.324 41.1125C107.754 41.1125 107.239 41.02 106.779 40.835C106.324 40.65 105.934 40.3875 105.609 40.0475C105.284 39.7025 105.034 39.2875 104.859 38.8025C104.684 38.3175 104.597 37.7725 104.597 37.1675C104.597 36.5625 104.684 36.0175 104.859 35.5325C105.034 35.0475 105.284 34.635 105.609 34.295C105.934 33.955 106.324 33.6925 106.779 33.5075C107.239 33.3225 107.754 33.23 108.324 33.23ZM108.324 39.8525C109.014 39.8525 109.527 39.6225 109.862 39.1625C110.202 38.6975 110.372 38.035 110.372 37.175C110.372 36.315 110.202 35.6525 109.862 35.1875C109.527 34.7175 109.014 34.4825 108.324 34.4825C107.624 34.4825 107.104 34.7175 106.764 35.1875C106.424 35.6525 106.254 36.315 106.254 37.175C106.254 38.035 106.424 38.6975 106.764 39.1625C107.104 39.6225 107.624 39.8525 108.324 39.8525ZM115.109 34.7675C115.349 34.2825 115.639 33.9025 115.979 33.6275C116.319 33.3475 116.726 33.2075 117.201 33.2075C117.366 33.2075 117.521 33.2275 117.666 33.2675C117.811 33.3025 117.941 33.3575 118.056 33.4325L117.944 34.6475C117.924 34.7325 117.891 34.7925 117.846 34.8275C117.806 34.8575 117.751 34.8725 117.681 34.8725C117.606 34.8725 117.499 34.86 117.359 34.835C117.219 34.805 117.071 34.79 116.916 34.79C116.691 34.79 116.491 34.8225 116.316 34.8875C116.146 34.9525 115.991 35.0475 115.851 35.1725C115.716 35.2975 115.596 35.45 115.491 35.63C115.386 35.81 115.289 36.015 115.199 36.245V41H113.586V33.35H114.524C114.694 33.35 114.811 33.3825 114.876 33.4475C114.941 33.5075 114.986 33.615 115.011 33.77L115.109 34.7675ZM128.053 36.95L126.568 33.005C126.448 32.7 126.326 32.3125 126.201 31.8425C126.146 32.0775 126.086 32.295 126.021 32.495C125.956 32.69 125.896 32.8625 125.841 33.0125L124.356 36.95H128.053ZM131.376 41H130.018C129.863 41 129.738 40.9625 129.643 40.8875C129.548 40.8075 129.476 40.71 129.426 40.595L128.526 38.21H123.876L122.976 40.595C122.936 40.695 122.866 40.7875 122.766 40.8725C122.666 40.9575 122.541 41 122.391 41H121.033L125.316 30.2H127.093L131.376 41ZM133.829 34.7675C134.069 34.2825 134.359 33.9025 134.699 33.6275C135.039 33.3475 135.447 33.2075 135.922 33.2075C136.087 33.2075 136.242 33.2275 136.387 33.2675C136.532 33.3025 136.662 33.3575 136.777 33.4325L136.664 34.6475C136.644 34.7325 136.612 34.7925 136.567 34.8275C136.527 34.8575 136.472 34.8725 136.402 34.8725C136.327 34.8725 136.219 34.86 136.079 34.835C135.939 34.805 135.792 34.79 135.637 34.79C135.412 34.79 135.212 34.8225 135.037 34.8875C134.867 34.9525 134.712 35.0475 134.572 35.1725C134.437 35.2975 134.317 35.45 134.212 35.63C134.107 35.81 134.009 36.015 133.919 36.245V41H132.307V33.35H133.244C133.414 33.35 133.532 33.3825 133.597 33.4475C133.662 33.5075 133.707 33.615 133.732 33.77L133.829 34.7675ZM140.296 41.12C139.661 41.12 139.171 40.9425 138.826 40.5875C138.486 40.2275 138.316 39.7225 138.316 39.0725V34.6175H137.476C137.386 34.6175 137.309 34.59 137.244 34.535C137.179 34.475 137.146 34.3875 137.146 34.2725V33.62L138.384 33.44L138.736 31.2275C138.761 31.1425 138.804 31.075 138.864 31.025C138.924 30.97 139.004 30.9425 139.104 30.9425H139.929V33.455H142.051V34.6175H139.929V38.96C139.929 39.235 139.996 39.445 140.131 39.59C140.266 39.735 140.446 39.8075 140.671 39.8075C140.796 39.8075 140.904 39.7925 140.994 39.7625C141.084 39.7275 141.161 39.6925 141.226 39.6575C141.291 39.6175 141.346 39.5825 141.391 39.5525C141.441 39.5175 141.489 39.5 141.534 39.5C141.624 39.5 141.696 39.55 141.751 39.65L142.231 40.4375C141.981 40.6575 141.686 40.8275 141.346 40.9475C141.006 41.0625 140.656 41.12 140.296 41.12ZM147.89 34.7375C147.85 34.8075 147.805 34.8575 147.755 34.8875C147.705 34.9175 147.642 34.9325 147.567 34.9325C147.482 34.9325 147.39 34.9075 147.29 34.8575C147.19 34.8025 147.072 34.7425 146.937 34.6775C146.802 34.6125 146.642 34.555 146.457 34.505C146.277 34.45 146.065 34.4225 145.82 34.4225C145.62 34.4225 145.437 34.4475 145.272 34.4975C145.112 34.5425 144.975 34.61 144.86 34.7C144.75 34.785 144.665 34.8875 144.605 35.0075C144.545 35.1225 144.515 35.2475 144.515 35.3825C144.515 35.5625 144.57 35.7125 144.68 35.8325C144.79 35.9525 144.935 36.0575 145.115 36.1475C145.295 36.2325 145.5 36.31 145.73 36.38C145.96 36.45 146.195 36.525 146.435 36.605C146.675 36.685 146.91 36.7775 147.14 36.8825C147.37 36.9875 147.575 37.1175 147.755 37.2725C147.935 37.4225 148.08 37.6075 148.19 37.8275C148.3 38.0425 148.355 38.305 148.355 38.615C148.355 38.975 148.29 39.3075 148.16 39.6125C148.03 39.9175 147.84 40.1825 147.59 40.4075C147.34 40.6325 147.027 40.8075 146.652 40.9325C146.282 41.0575 145.857 41.12 145.377 41.12C145.112 41.12 144.855 41.095 144.605 41.045C144.36 41 144.125 40.9375 143.9 40.8575C143.68 40.7725 143.472 40.6725 143.277 40.5575C143.087 40.4425 142.917 40.3175 142.767 40.1825L143.142 39.5675C143.187 39.4925 143.242 39.435 143.307 39.395C143.377 39.35 143.462 39.3275 143.562 39.3275C143.667 39.3275 143.77 39.3625 143.87 39.4325C143.975 39.4975 144.095 39.57 144.23 39.65C144.37 39.73 144.537 39.805 144.732 39.875C144.927 39.94 145.17 39.9725 145.46 39.9725C145.7 39.9725 145.907 39.945 146.082 39.89C146.257 39.83 146.402 39.75 146.517 39.65C146.632 39.55 146.717 39.4375 146.772 39.3125C146.827 39.1825 146.855 39.045 146.855 38.9C146.855 38.705 146.8 38.545 146.69 38.42C146.58 38.295 146.432 38.1875 146.247 38.0975C146.067 38.0075 145.86 37.9275 145.625 37.8575C145.395 37.7875 145.16 37.7125 144.92 37.6325C144.68 37.5525 144.442 37.46 144.207 37.355C143.977 37.25 143.77 37.1175 143.585 36.9575C143.405 36.7925 143.26 36.595 143.15 36.365C143.04 36.13 142.985 35.845 142.985 35.51C142.985 35.205 143.045 34.915 143.165 34.64C143.29 34.365 143.47 34.1225 143.705 33.9125C143.945 33.7025 144.237 33.5375 144.582 33.4175C144.932 33.2925 145.335 33.23 145.79 33.23C146.305 33.23 146.772 33.3125 147.192 33.4775C147.612 33.6425 147.965 33.8675 148.25 34.1525L147.89 34.7375Z" fill="white"/>
<path d="M34.5 33.5L41.7917 26.2083C41.7917 22.1811 38.5272 18.9166 34.5 18.9166C30.4728 18.9166 27.2083 22.1811 27.2083 26.2083L34.5 33.5Z" stroke="white" stroke-width="2.66667" stroke-linecap="round" stroke-linejoin="round"/>
<path d="M27.2083 40.7916L34.5 33.4999L27.2083 26.2083C23.1811 26.2083 19.9167 29.4727 19.9167 33.4999C19.9167 37.5271 23.1811 40.7916 27.2083 40.7916ZM41.7917 40.7916C45.8189 40.7916 49.0833 37.5271 49.0833 33.4999C49.0833 29.4727 45.8189 26.2083 41.7917 26.2083L34.5 33.4999L41.7917 40.7916Z" stroke="white" stroke-width="2.66667" stroke-linecap="round" stroke-linejoin="round"/>
<path d="M34.5 48.0833C38.5272 48.0833 41.7917 44.8189 41.7917 40.7917L34.5 33.5L27.2083 40.7917C27.2083 44.8189 30.4728 48.0833 34.5 48.0833Z" stroke="white" stroke-width="2.66667" stroke-linecap="round" stroke-linejoin="round"/>
</svg>
