<svg width="21" height="21" viewBox="0 0 21 21" fill="none" xmlns="http://www.w3.org/2000/svg">
<path d="M10.5 0.34375C8.49129 0.34375 6.52768 0.939404 4.85749 2.05539C3.18731 3.17137 1.88556 4.75756 1.11685 6.61337C0.348151 8.46918 0.147023 10.5113 0.538904 12.4814C0.930785 14.4515 1.89807 16.2612 3.31845 17.6816C4.73883 19.1019 6.5485 20.0692 8.51862 20.4611C10.4887 20.853 12.5308 20.6519 14.3866 19.8832C16.2424 19.1144 17.8286 17.8127 18.9446 16.1425C20.0606 14.4723 20.6563 12.5087 20.6563 10.5C20.6532 7.80735 19.5821 5.22587 17.6781 3.32187C15.7741 1.41788 13.1927 0.346852 10.5 0.34375ZM15.337 8.72168L9.60733 14.1904C9.46165 14.329 9.26827 14.4063 9.06719 14.4063C8.86611 14.4063 8.67273 14.329 8.52705 14.1904L5.66299 11.4561C5.51303 11.3128 5.42612 11.1158 5.42138 10.9085C5.41663 10.7012 5.49445 10.5005 5.6377 10.3505C5.78095 10.2005 5.97791 10.1136 6.18524 10.1089C6.39258 10.1041 6.5933 10.1819 6.74327 10.3252L9.06719 12.5447L14.2566 7.59092C14.4068 7.44902 14.6071 7.37234 14.8136 7.37762C15.0202 7.3829 15.2162 7.46971 15.359 7.6191C15.5017 7.76849 15.5795 7.9683 15.5754 8.17487C15.5713 8.38145 15.4856 8.578 15.337 8.72158V8.72168Z" fill="#5AC6CA"/>
</svg>
