<svg width="27" height="27" viewBox="0 0 27 27" fill="none" xmlns="http://www.w3.org/2000/svg">
<path d="M22.2456 3.69971H5.22803C4.94594 3.69971 4.67541 3.81176 4.47595 4.01123C4.27649 4.21069 4.16443 4.48122 4.16443 4.7633V21.7808C4.16443 22.0629 4.27649 22.3335 4.47595 22.5329C4.67541 22.7324 4.94594 22.8444 5.22803 22.8444H22.2456C22.5277 22.8444 22.7982 22.7324 22.9976 22.5329C23.1971 22.3335 23.3092 22.0629 23.3092 21.7808V4.7633C23.3092 4.48122 23.1971 4.21069 22.9976 4.01123C22.7982 3.81176 22.5277 3.69971 22.2456 3.69971ZM20.0695 8.23595L19.042 9.21977C18.9986 9.25287 18.9651 9.29726 18.9453 9.34809C18.9254 9.39893 18.9198 9.45425 18.9293 9.50801V16.7415C18.9198 16.7953 18.9254 16.8506 18.9453 16.9014C18.9651 16.9523 18.9986 16.9967 19.042 17.0298L20.0439 18.0147V18.2316H15.0014V18.0147L16.0405 17.0064C16.1437 16.9043 16.1437 16.8734 16.1437 16.7181V10.8705L13.255 18.205H12.8636L9.50156 10.8705V15.7864C9.48828 15.8886 9.49822 15.9924 9.53063 16.0902C9.56304 16.188 9.61709 16.2772 9.68875 16.3512L11.0406 17.9902V18.2061H7.20738V17.9902L8.55921 16.3512C8.63036 16.2772 8.6832 16.1876 8.71349 16.0895C8.74378 15.9914 8.75068 15.8876 8.73364 15.7864V10.1026C8.74159 10.0248 8.7311 9.94617 8.70301 9.87318C8.67492 9.80019 8.63003 9.73484 8.57197 9.68244L7.37011 8.23595V8.02004H11.0991L13.9814 14.341L16.5149 8.02004H20.0705V8.23595H20.0695Z" fill="white"/>
</svg>
