<svg width="29" height="28" viewBox="0 0 29 28" fill="none" xmlns="http://www.w3.org/2000/svg">
<path d="M21.1234 12.4804C17.493 10.3248 11.4234 10.0979 7.96314 11.1757C7.39589 11.3459 6.82864 11.0055 6.65846 10.495C6.48829 9.92774 6.82864 9.36049 7.33916 9.19032C11.3666 7.99909 18.0035 8.22599 22.2012 10.7219C22.7117 11.0055 22.8819 11.6862 22.5982 12.1968C22.3146 12.5938 21.6339 12.764 21.1234 12.4804ZM21.0099 15.657C20.7263 16.0541 20.2158 16.2242 19.8187 15.9406C16.7555 14.0687 12.1041 13.5014 8.53039 14.6359C8.07659 14.7494 7.56606 14.5225 7.45261 14.0687C7.33916 13.6149 7.56606 13.1044 8.01987 12.9909C12.1608 11.743 17.2661 12.3669 20.783 14.5225C21.1234 14.6927 21.2935 15.2599 21.0099 15.657ZM19.6485 18.7769C19.4216 19.1172 19.0245 19.2307 18.6842 19.0038C16.0181 17.3587 12.6713 17.0184 8.70057 17.926C8.30349 18.0394 7.96314 17.7558 7.84969 17.4155C7.73624 17.0184 8.01987 16.678 8.36022 16.5646C12.6713 15.6003 16.4152 15.9973 19.3649 17.8125C19.762 17.9827 19.8187 18.4365 19.6485 18.7769ZM14.4298 2.3833C12.94 2.3833 11.4647 2.67675 10.0883 3.24689C8.71181 3.81703 7.46114 4.6527 6.40766 5.70618C4.28005 7.83379 3.08478 10.7194 3.08478 13.7283C3.08478 16.7372 4.28005 19.6229 6.40766 21.7505C7.46114 22.804 8.71181 23.6396 10.0883 24.2098C11.4647 24.7799 12.94 25.0734 14.4298 25.0734C17.4387 25.0734 20.3243 23.8781 22.452 21.7505C24.5796 19.6229 25.7748 16.7372 25.7748 13.7283C25.7748 12.2385 25.4814 10.7632 24.9112 9.38677C24.3411 8.01033 23.5054 6.75967 22.452 5.70618C21.3985 4.6527 20.1478 3.81703 18.7714 3.24689C17.3949 2.67675 15.9197 2.3833 14.4298 2.3833Z" fill="white"/>
</svg>
