<svg width="22" height="22" viewBox="0 0 22 22" fill="none" xmlns="http://www.w3.org/2000/svg">
<g clip-path="url(#clip0)">
<path d="M11.1228 0.912109C5.48406 0.912109 0.912292 5.48387 0.912292 11.1226C0.912292 16.7614 5.48406 21.3332 11.1228 21.3332C16.7616 21.3332 21.3333 16.7614 21.3333 11.1226C21.3333 5.48387 16.7616 0.912109 11.1228 0.912109ZM16.1379 7.90717L14.4617 15.8033C14.3383 16.3632 14.0047 16.4993 13.5393 16.2356L10.9867 14.3551L9.75631 15.5412C9.69603 15.6193 9.61867 15.6825 9.53018 15.726C9.44168 15.7695 9.3444 15.7922 9.24578 15.7923H9.24153L9.42277 13.1937L14.1536 8.92057C14.3579 8.73933 14.1077 8.63637 13.8363 8.81761L7.99159 12.4985L5.47299 11.7123C4.92843 11.5396 4.91312 11.1677 5.58786 10.9006L15.4291 7.10735C15.8869 6.94057 16.2851 7.21626 16.137 7.90802L16.1379 7.90717Z" fill="white"/>
</g>
<defs>
<clipPath id="clip0">
<rect width="20.4211" height="20.4211" fill="white" transform="translate(0.912292 0.912109)"/>
</clipPath>
</defs>
</svg>
