<svg width="23" height="19" viewBox="0 0 23 19" fill="none" xmlns="http://www.w3.org/2000/svg">
<g clip-path="url(#clip0)">
<path d="M22.1762 2.73613C21.5586 3.64817 20.8119 4.42526 19.9362 5.0674C19.9454 5.19769 19.9501 5.39313 19.9501 5.65371C19.9501 6.86355 19.7749 8.07107 19.4246 9.27625C19.0744 10.4814 18.542 11.6378 17.8276 12.7452C17.1133 13.8527 16.2629 14.8322 15.2766 15.6838C14.2903 16.5353 13.1012 17.2147 11.7093 17.7219C10.3174 18.2291 8.82873 18.4827 7.24326 18.4827C4.74523 18.4827 2.45921 17.808 0.385193 16.4585C0.707817 16.4957 1.06731 16.5144 1.46368 16.5144C3.53769 16.5144 5.38587 15.8722 7.00821 14.5879C6.04034 14.5693 5.17386 14.2692 4.40878 13.6875C3.6437 13.1059 3.11828 12.3637 2.83253 11.4609C3.13672 11.5075 3.41786 11.5307 3.67596 11.5307C4.07233 11.5307 4.46409 11.4796 4.85123 11.3772C3.81884 11.1631 2.96388 10.6443 2.28637 9.82068C1.60886 8.99706 1.27011 8.04082 1.27011 6.95196V6.89612C1.89692 7.24977 2.56982 7.44055 3.28881 7.46847C2.68043 7.05899 2.1965 6.52387 1.837 5.86311C1.47751 5.20235 1.29776 4.48575 1.29776 3.71331C1.29776 2.89434 1.50055 2.13587 1.90614 1.43788C3.02149 2.82454 4.37882 3.93434 5.97811 4.76727C7.57741 5.6002 9.28962 6.0632 11.1148 6.15626C11.041 5.80261 11.0041 5.45828 11.0041 5.12324C11.0041 3.87618 11.4397 2.81291 12.3108 1.93345C13.1819 1.05399 14.235 0.614258 15.4702 0.614258C16.7607 0.614258 17.8484 1.08889 18.7333 2.03815C19.738 1.84271 20.6829 1.47976 21.5678 0.949291C21.2267 2.01953 20.5723 2.84781 19.6044 3.43412C20.4616 3.34105 21.3189 3.10839 22.1762 2.73613Z" fill="white"/>
</g>
<defs>
<clipPath id="clip0">
<rect width="22.1228" height="17.8684" fill="white" transform="translate(0.219299 0.614258)"/>
</clipPath>
</defs>
</svg>
