<svg width="21" height="16" viewBox="0 0 21 16" fill="none" xmlns="http://www.w3.org/2000/svg">
<g clip-path="url(#clip0)">
<path d="M18.4989 14.7479C15.6706 15.1734 13.0207 15.3861 10.5492 15.3861C9.45352 15.3861 8.24321 15.3329 6.91825 15.2266C5.59329 15.1202 4.54224 15.0138 3.7651 14.9075L2.59939 14.7479C2.25541 14.6815 1.95284 14.4322 1.69167 14.0001C1.4305 13.568 1.2394 13.0462 1.11837 12.4346C0.997337 11.8231 0.908157 11.2514 0.850827 10.7196C0.793497 10.1878 0.764832 9.70251 0.764832 9.26377V6.19264C0.764832 2.80243 1.37635 0.974369 2.59939 0.70847C5.42767 0.283032 8.07759 0.0703125 10.5492 0.0703125C11.6448 0.0703125 12.8551 0.123492 14.1801 0.229852C15.505 0.336212 16.5561 0.442571 17.3332 0.548931L18.4989 0.70847C18.8684 0.76165 19.1837 1.00428 19.4449 1.43637C19.706 1.86846 19.8939 2.39693 20.0086 3.02179C20.1233 3.64666 20.2061 4.21834 20.257 4.73684C20.308 5.25534 20.3335 5.74061 20.3335 6.19264V9.26377C20.3335 9.74239 20.3144 10.2277 20.2761 10.7196C20.2379 11.2115 20.1615 11.7765 20.0468 12.4147C19.9322 13.0528 19.7411 13.5846 19.4735 14.0101C19.206 14.4355 18.8811 14.6815 18.4989 14.7479ZM14.0081 7.22965L9.00124 4.03886C8.8611 3.90591 8.67637 3.86935 8.44705 3.92917C8.21773 3.989 8.10307 4.08539 8.10307 4.21834V11.2381C8.10307 11.3843 8.21773 11.484 8.44705 11.5372C8.67637 11.5904 8.8611 11.5505 9.00124 11.4176L14.0081 8.22677C14.1482 8.09382 14.2183 7.92763 14.2183 7.72821C14.2183 7.52878 14.1482 7.3626 14.0081 7.22965Z" fill="white"/>
</g>
<defs>
<clipPath id="clip0">
<rect width="19.5702" height="15.3158" fill="white" transform="translate(0.763184 0.0703125)"/>
</clipPath>
</defs>
</svg>
