<svg width="131" height="131" viewBox="0 0 131 131" fill="none" xmlns="http://www.w3.org/2000/svg">
<g filter="url(#filter0_d)">
<circle cx="65.5" cy="62.5" r="48.5" fill="white"/>
</g>
<g clip-path="url(#clip0)">
<path d="M89.5429 51.354C89.5429 49.047 87.6663 47.1704 85.3593 47.1704C84.1749 47.1704 83.1045 47.6661 82.3426 48.4598L66.0163 39.0339C65.7082 38.8561 65.3288 38.8561 65.0206 39.0339L48.694 48.4598C47.9321 47.6661 46.8621 47.1704 45.6777 47.1704C43.3707 47.1704 41.4941 49.047 41.4941 51.354C41.4941 53.3174 42.854 54.9683 44.6816 55.4166V74.2618C44.6816 74.6175 44.8715 74.9463 45.1796 75.1245L61.5008 84.5477C61.3927 84.9189 61.3335 85.3111 61.3335 85.717C61.3335 88.0235 63.2102 89.9006 65.5171 89.9006C67.8237 89.9006 69.7003 88.0235 69.7003 85.717C69.7003 85.3115 69.6416 84.9201 69.5334 84.5489L85.8573 75.1245C86.1655 74.9467 86.3554 74.6175 86.3554 74.2618V55.4166C88.183 54.9683 89.5429 53.3174 89.5429 51.354ZM43.4863 51.354C43.4863 50.1454 44.4691 49.1625 45.6777 49.1625C46.8858 49.1625 47.8687 50.1454 47.8687 51.354C47.8687 52.5621 46.8858 53.5454 45.6777 53.5454C44.4691 53.5454 43.4863 52.5621 43.4863 51.354ZM65.5171 87.9084C64.3086 87.9084 63.3257 86.9255 63.3257 85.717C63.3257 84.5088 64.3086 83.5255 65.5171 83.5255C66.7253 83.5255 67.7085 84.5088 67.7085 85.717C67.7085 86.9255 66.7253 87.9084 65.5171 87.9084ZM68.5358 82.8248C67.7735 82.0298 66.7027 81.5334 65.5171 81.5334C64.3323 81.5334 63.2615 82.0295 62.4997 82.8236L46.6738 73.6868V55.4166C48.501 54.9683 49.8609 53.3174 49.8609 51.354C49.8609 50.9477 49.8018 50.5551 49.6932 50.1832L65.5183 41.0467L81.3438 50.1832C81.2352 50.5551 81.1761 50.9473 81.1761 51.354C81.1761 53.3174 82.536 54.9683 84.3632 55.4166V73.6868L68.5358 82.8248ZM85.3593 53.5454C84.1511 53.5454 83.1679 52.5621 83.1679 51.354C83.1679 50.1454 84.1511 49.1625 85.3593 49.1625C86.5678 49.1625 87.5507 50.1454 87.5507 51.354C87.5507 52.5621 86.5678 53.5454 85.3593 53.5454Z" fill="#5AC6CA"/>
<path d="M79.1648 54.3527L66.0164 46.7618C65.7082 46.584 65.3288 46.584 65.0207 46.7618L51.8722 54.3527C51.564 54.5309 51.3741 54.8597 51.3741 55.2154V70.3977C51.3741 70.7533 51.564 71.0825 51.8722 71.2603L65.0207 78.8517C65.1748 78.9404 65.3463 78.9851 65.5183 78.9851C65.6907 78.9851 65.8623 78.9404 66.0164 78.8517L79.1648 71.2603C79.473 71.0825 79.6629 70.7533 79.6629 70.3977V55.2154C79.6629 54.8597 79.473 54.5309 79.1648 54.3527ZM65.5183 48.7746L76.6746 55.2154L65.5183 61.6565L54.3624 55.2154L65.5183 48.7746ZM66.5144 76.2638V71.7716C66.5144 71.2214 66.0685 70.7755 65.5183 70.7755C64.9685 70.7755 64.5226 71.2214 64.5226 71.7716V76.2638L53.3663 69.8226V56.9406L65.0207 63.6694C65.1748 63.7581 65.3463 63.8028 65.5183 63.8028C65.6907 63.8028 65.8623 63.7581 66.0164 63.6694L77.6707 56.9406V69.8226L66.5144 76.2638Z" fill="#5AC6CA"/>
<path d="M65.5175 66.2931C65.2545 66.2931 64.9985 66.3993 64.8121 66.5849C64.6269 66.7701 64.5203 67.0269 64.5203 67.2892C64.5203 67.5511 64.6269 67.8079 64.8121 67.9931C64.9985 68.1787 65.2545 68.2853 65.5175 68.2853C65.7794 68.2853 66.0366 68.1787 66.2218 67.9931C66.407 67.8079 66.5136 67.5511 66.5136 67.2892C66.5136 67.0269 66.407 66.7701 66.2218 66.5849C66.0366 66.3993 65.7794 66.2931 65.5175 66.2931Z" fill="#5AC6CA"/>
</g>
<defs>
<filter id="filter0_d" x="0" y="0" width="131" height="131" filterUnits="userSpaceOnUse" color-interpolation-filters="sRGB">
<feFlood flood-opacity="0" result="BackgroundImageFix"/>
<feColorMatrix in="SourceAlpha" type="matrix" values="0 0 0 0 0 0 0 0 0 0 0 0 0 0 0 0 0 0 127 0" result="hardAlpha"/>
<feMorphology radius="2" operator="dilate" in="SourceAlpha" result="effect1_dropShadow"/>
<feOffset dy="3"/>
<feGaussianBlur stdDeviation="7.5"/>
<feComposite in2="hardAlpha" operator="out"/>
<feColorMatrix type="matrix" values="0 0 0 0 0.660833 0 0 0 0 0.7442 0 0 0 0 0.7625 0 0 0 0.2 0"/>
<feBlend mode="normal" in2="BackgroundImageFix" result="effect1_dropShadow"/>
<feBlend mode="normal" in="SourceGraphic" in2="effect1_dropShadow" result="shape"/>
</filter>
<clipPath id="clip0">
<rect width="51" height="51" fill="white" transform="translate(40 39)"/>
</clipPath>
</defs>
</svg>
