<svg width="131" height="131" viewBox="0 0 131 131" fill="none" xmlns="http://www.w3.org/2000/svg">
<g filter="url(#filter0_d)">
<circle cx="65.5" cy="62.5" r="48.5" fill="white"/>
</g>
<path d="M72.2729 51.8737C71.3285 52.8581 69.6288 52.858 68.6844 51.8737C67.8831 51.1339 66.7833 52.2348 67.5228 53.0353C69.0788 54.6568 71.8785 54.6568 73.4345 53.0353C74.1743 52.234 73.0734 51.1341 72.2729 51.8737Z" fill="#5AC6CA"/>
<path d="M84.0689 67.9281C84.0689 65.5121 82.8981 63.3183 80.953 61.9811C83.3292 59.0769 82.4942 54.5158 79.275 52.6181C80.0163 49.136 76.7625 45.9105 73.2878 46.6776C72.1792 41.3424 64.5173 41.9873 64.3575 47.4778V59.7402C64.4009 60.8299 65.9572 60.829 66.0002 59.7402V47.4778C66.1348 43.7961 71.3473 43.6439 71.7106 47.2937C70.9738 47.7341 70.3645 48.352 69.9303 49.1039C69.7035 49.4967 69.8381 49.999 70.2309 50.2258C70.6168 50.4506 71.1248 50.3216 71.3528 49.9252C71.708 49.3101 72.2366 48.8278 72.8818 48.5305C72.8906 48.5265 72.8992 48.5222 72.9077 48.5179C75.6078 47.2927 78.5069 49.9269 77.5478 52.7321C77.5439 52.7419 77.5401 52.7518 77.5366 52.7619C77.2666 53.5336 76.728 54.1836 76.02 54.5924C75.6272 54.8192 75.4925 55.3215 75.7193 55.7144C75.9475 56.1108 76.4554 56.2397 76.8413 56.0151C77.6059 55.5736 78.2371 54.942 78.6779 54.1892C80.9668 55.7448 81.3673 59.1609 79.4672 61.1948C79.22 61.0984 78.9676 61.0156 78.712 60.9471C78.2738 60.8296 77.8235 61.0897 77.7061 61.5279C77.5887 61.966 77.8487 62.4164 78.2869 62.5337C78.6311 62.626 78.9681 62.752 79.2886 62.9082C79.3002 62.9138 79.3118 62.9191 79.3234 62.9242C83.602 65.0059 83.3794 71.3094 78.9729 73.0917C78.9601 73.0961 78.9473 73.101 78.9345 73.1061C77.8182 73.5607 76.5597 73.6365 75.3959 73.323C74.9576 73.2055 74.5074 73.4655 74.39 73.9037C74.2726 74.3418 74.5326 74.7922 74.9708 74.9096C76.1223 75.2197 77.3594 75.237 78.5163 74.9597C78.4851 77.2389 76.8492 79.1502 74.6003 79.5259C74.593 79.5268 74.5857 79.5279 74.5784 79.5291C73.9228 79.6367 73.2445 79.6028 72.6031 79.4309C72.1648 79.3136 71.7146 79.5735 71.5972 80.0117C71.4797 80.4497 71.7398 80.9001 72.1779 81.0176C72.6224 81.1367 73.0788 81.207 73.5381 81.2274C71.5941 84.8946 66.052 83.5811 66.0002 79.394V67.1319C65.9568 66.0422 64.4005 66.043 64.3575 67.1319V79.3936C64.4874 85.8647 73.3907 87.1546 75.3815 81.0385C76.639 80.719 77.778 80.015 78.6318 79.0205C79.7332 77.7418 80.2812 76.0456 80.1373 74.3622C82.5455 73.1327 84.0689 70.6722 84.0689 67.9281Z" fill="#5AC6CA"/>
<path d="M72.3012 71.3012C72.7393 71.1838 72.9993 70.7334 72.8819 70.2953C72.7646 69.8571 72.3143 69.5971 71.8761 69.7145C70.963 69.9591 70.1998 70.5446 69.7271 71.3634C69.2545 72.182 69.1289 73.1358 69.3736 74.0488C69.4894 74.4906 69.9531 74.7474 70.3794 74.6296C70.8175 74.5123 71.0775 74.0619 70.9602 73.6237C70.8291 73.1344 70.8964 72.6234 71.1496 72.1847C71.403 71.746 71.8119 71.4323 72.3012 71.3012Z" fill="#5AC6CA"/>
<path d="M74.4225 58.7422C74.1017 58.4215 73.5817 58.4215 73.2609 58.7422C71.6392 60.2983 71.6393 63.0979 73.2609 64.6539C74.0609 65.3942 75.1625 64.2916 74.4225 63.4923C73.438 62.5478 73.4381 60.8483 74.4225 59.9038C74.7432 59.5831 74.7432 59.063 74.4225 58.7422Z" fill="#5AC6CA"/>
<path d="M48.7525 63.1812C49.2061 63.1812 49.5738 62.8135 49.5738 62.3599V56.6107C49.5304 55.521 47.9741 55.5218 47.9312 56.6107V62.3599C47.9312 62.8135 48.2989 63.1812 48.7525 63.1812Z" fill="#5AC6CA"/>
<path d="M53.6803 55.7894C52.3217 55.7894 51.2164 56.8947 51.2164 58.2533V60.7172C51.3521 63.9867 56.0098 63.9842 56.1443 60.7172V58.2533C56.1443 56.8947 55.0389 55.7894 53.6803 55.7894ZM54.5016 60.7172C54.4564 61.807 52.9039 61.8062 52.859 60.7172V58.2533C52.859 57.8005 53.2275 57.432 53.6803 57.432H53.6804C54.1333 57.432 54.5017 57.8005 54.5017 58.2533V60.7172H54.5016Z" fill="#5AC6CA"/>
<path d="M60.2509 55.7894C58.8923 55.7894 57.787 56.8947 57.787 58.2533V60.7172C57.9227 63.9867 62.5804 63.9842 62.7148 60.7172V58.2533C62.7148 56.8947 61.6095 55.7894 60.2509 55.7894ZM61.0722 60.7172C61.027 61.807 59.4744 61.8062 59.4296 60.7172V58.2533C59.4296 57.8005 59.798 57.432 60.2509 57.432C60.7038 57.432 61.0722 57.8005 61.0722 58.2533V60.7172Z" fill="#5AC6CA"/>
<path d="M52.0376 54.1467C52.4912 54.1467 52.8589 53.779 52.8589 53.3254V47.5763C52.8156 46.4866 51.2593 46.4874 51.2163 47.5763V53.3254C51.2163 53.779 51.584 54.1467 52.0376 54.1467Z" fill="#5AC6CA"/>
<path d="M59.4294 51.6828V49.2189C59.2937 45.9495 54.636 45.9519 54.5016 49.2189V51.6828C54.6373 54.9523 59.295 54.9498 59.4294 51.6828ZM57.7868 51.6828C57.7416 52.7726 56.189 52.7719 56.1442 51.6828V49.2189C56.1442 48.7661 56.5126 48.3976 56.9655 48.3976C57.4184 48.3976 57.7868 48.7661 57.7868 49.2189V51.6828Z" fill="#5AC6CA"/>
<path d="M61.8934 54.1467C62.3471 54.1467 62.7148 53.779 62.7148 53.3254V47.5763C62.6714 46.4866 61.1151 46.4874 61.0721 47.5763V53.3254C61.0721 53.779 61.4398 54.1467 61.8934 54.1467Z" fill="#5AC6CA"/>
<path d="M55.3229 64.8239C54.8693 64.8239 54.5016 65.1915 54.5016 65.6452V71.3943C54.545 72.484 56.1012 72.4832 56.1442 71.3943V65.6452C56.1442 65.1915 55.7765 64.8239 55.3229 64.8239Z" fill="#5AC6CA"/>
<path d="M52.8589 69.7517V67.2878C52.7232 64.0184 48.0655 64.0208 47.931 67.2878V69.7517C48.0668 73.0213 52.7244 73.0187 52.8589 69.7517ZM51.2162 69.7517C51.171 70.8415 49.6185 70.8408 49.5736 69.7517V67.2878C49.5736 66.835 49.9421 66.4665 50.3949 66.4665C50.8478 66.4665 51.2162 66.835 51.2162 67.2878V69.7517Z" fill="#5AC6CA"/>
<path d="M60.2509 64.8239C58.8923 64.8239 57.787 65.9292 57.787 67.2878V69.7517C57.9227 73.0212 62.5804 73.0187 62.7148 69.7517V67.2878C62.7148 65.9292 61.6095 64.8239 60.2509 64.8239ZM61.0722 69.7517C61.027 70.8415 59.4744 70.8407 59.4296 69.7517V67.2878C59.4296 66.8349 59.798 66.4665 60.2509 66.4665C60.7038 66.4665 61.0722 66.8349 61.0722 67.2878V69.7517Z" fill="#5AC6CA"/>
<path d="M58.608 73.858C58.1544 73.858 57.7867 74.2257 57.7867 74.6793V80.4285C57.8301 81.5182 59.3864 81.5173 59.4294 80.4285V74.6793C59.4294 74.2257 59.0617 73.858 58.608 73.858Z" fill="#5AC6CA"/>
<path d="M53.6802 73.858C52.3216 73.858 51.2163 74.9633 51.2163 76.3219V78.7859C51.3521 82.0553 56.0096 82.0529 56.1441 78.7859V76.3219C56.1441 74.9633 55.0388 73.858 53.6802 73.858ZM54.5015 78.7859C54.4563 79.8757 52.9038 79.8748 52.8589 78.7859V76.3219C52.9042 75.2322 54.4567 75.233 54.5015 76.3219V78.7859Z" fill="#5AC6CA"/>
<path d="M61.8934 73.858C61.4398 73.858 61.0721 74.2257 61.0721 74.6793V80.4285C61.1155 81.5182 62.6718 81.5173 62.7148 80.4285V74.6793C62.7148 74.2257 62.3471 73.858 61.8934 73.858Z" fill="#5AC6CA"/>
<path d="M65.1789 64.2576C65.6325 64.2576 66.0002 63.8899 66.0002 63.4363V63.4357C66.0002 62.9821 65.6325 62.6147 65.1789 62.6147C64.0896 62.6581 64.0897 64.2146 65.1789 64.2576Z" fill="#5AC6CA"/>
<defs>
<filter id="filter0_d" x="0" y="0" width="131" height="131" filterUnits="userSpaceOnUse" color-interpolation-filters="sRGB">
<feFlood flood-opacity="0" result="BackgroundImageFix"/>
<feColorMatrix in="SourceAlpha" type="matrix" values="0 0 0 0 0 0 0 0 0 0 0 0 0 0 0 0 0 0 127 0" result="hardAlpha"/>
<feMorphology radius="2" operator="dilate" in="SourceAlpha" result="effect1_dropShadow"/>
<feOffset dy="3"/>
<feGaussianBlur stdDeviation="7.5"/>
<feComposite in2="hardAlpha" operator="out"/>
<feColorMatrix type="matrix" values="0 0 0 0 0.660833 0 0 0 0 0.7442 0 0 0 0 0.7625 0 0 0 0.2 0"/>
<feBlend mode="normal" in2="BackgroundImageFix" result="effect1_dropShadow"/>
<feBlend mode="normal" in="SourceGraphic" in2="effect1_dropShadow" result="shape"/>
</filter>
</defs>
</svg>
