<svg width="131" height="131" viewBox="0 0 131 131" fill="none" xmlns="http://www.w3.org/2000/svg">
<g filter="url(#filter0_d)">
<circle cx="65.5" cy="62.5" r="48.5" fill="white"/>
</g>
<path d="M90.906 79.0984C90.662 77.9241 89.9717 76.9208 88.962 76.2729C87.9523 75.6255 86.753 75.4164 85.5835 75.6838L80.1634 76.9248V74.709C81.2504 73.6851 82.3823 72.3481 83.1872 71.1262C84.5988 68.9835 85.5977 66.6305 86.1563 64.1339C86.8205 61.1635 86.8347 58.0191 86.1972 55.0392C86.0798 54.491 85.5398 54.1411 84.9915 54.2589C84.4429 54.3759 84.0938 54.9159 84.2108 55.4645C84.7876 58.1595 84.7749 61.0041 84.1739 63.6903C83.6693 65.9461 82.7663 68.0722 81.4908 70.0086C81.1127 70.5827 80.6541 71.1849 80.1634 71.7602V60.5026C80.1634 59.9416 79.7087 59.487 79.1477 59.487H71.1136V48.6412C71.1136 48.0818 70.6609 47.6276 70.1015 47.6256L61.0518 47.595C61.0506 47.595 61.0498 47.595 61.0486 47.595C60.7796 47.595 60.5217 47.7014 60.3317 47.8914C60.1405 48.0818 60.033 48.3405 60.033 48.6107V54.2525H51.9976C51.437 54.2525 50.982 54.7072 50.982 55.2682V65.3256H48.7191V63.9462C48.7191 63.3856 48.2644 62.931 47.7034 62.931H46.6616C46.4843 61.9546 46.3815 60.9628 46.3573 59.9726C46.2978 57.5648 46.6795 55.209 47.4912 52.9699C47.6804 52.4478 47.8954 51.9273 48.1299 51.4235C48.3668 50.9149 48.1462 50.3106 47.638 50.0738C47.1294 49.8377 46.5251 50.0575 46.2887 50.5661C46.0288 51.1239 45.7908 51.7 45.5817 52.2776C44.6835 54.7552 44.2614 57.3613 44.3265 60.0226C44.3507 60.9953 44.4435 61.9689 44.601 62.931H40.0156C39.4547 62.931 39 63.3856 39 63.9466V81.7986C39 82.3596 39.4547 82.8142 40.0156 82.8142H47.7034C48.2644 82.8142 48.7191 82.3596 48.7191 81.7986V80.8329H52.5396L68.0155 86.9029C69.4604 87.4698 70.9739 87.7551 72.4954 87.7551C73.5098 87.7551 74.5286 87.6281 75.532 87.373L87.6619 84.29C89.9645 83.7049 91.3892 81.4245 90.906 79.0984ZM78.1325 61.5182V77.3897L75.4173 78.0114C75.1253 78.0781 74.8301 78.1308 74.5334 78.1721C73.4019 78.328 72.2474 78.2951 71.1279 78.0733C71.1231 78.0721 71.1183 78.0713 71.1136 78.0701V76.53C71.888 75.3748 72.1447 73.91 71.7388 72.5731C71.6258 72.2001 71.4651 71.8403 71.2608 71.5082C71.2144 71.4329 71.166 71.3591 71.1156 71.2869C71.1152 71.2857 71.1144 71.2849 71.1136 71.2837V61.5178H78.1325V61.5182ZM62.0642 49.6299L69.0827 49.6533V69.6706L65.1603 68.0472L62.0642 66.7654V49.6299ZM53.0132 56.2838H60.0318V65.9239L58.7722 65.4026C58.6488 65.3514 58.5167 65.3252 58.3838 65.3252H53.0132V56.2838ZM46.6878 80.783H41.0312V64.9618H45.8229C45.8249 64.9618 45.8273 64.9622 45.8297 64.9622C45.8317 64.9622 45.8333 64.9618 45.8352 64.9618H46.6878V80.783ZM87.1617 82.3215L75.0317 85.4044C72.9377 85.9365 70.768 85.8004 68.757 85.0121L53.1025 78.8719C52.9843 78.8255 52.8585 78.8021 52.7316 78.8021H48.7191V67.3569H58.1814L64.7528 70.0768L68.3488 71.5654C69.6211 72.093 70.2301 73.5855 69.7084 74.8562C69.6036 75.1113 69.4739 75.3537 69.3017 75.5699C68.6658 76.3725 67.6188 76.7264 66.6397 76.4884C66.6317 76.4864 66.6238 76.4844 66.6159 76.4824C66.5572 76.4677 66.4988 76.4507 66.4409 76.4316L59.6073 73.8045C59.5517 73.7831 59.5224 73.772 59.5224 73.772C58.9991 73.5704 58.4115 73.8319 58.21 74.3556C58.0089 74.8788 58.2699 75.4668 58.7936 75.6679C58.7936 75.6679 62.6466 77.1493 65.5848 78.2824C65.6439 78.3054 65.7026 78.3268 65.7617 78.3466L68.0179 79.2143C68.6999 79.4765 69.3787 79.7376 70.0884 79.9189C71.2937 80.2267 72.5446 80.3505 73.7871 80.2827C74.4878 80.2446 75.1872 80.1478 75.8712 79.9915L79.3747 79.1897C79.3782 79.1889 79.3818 79.1873 79.3854 79.1865L86.0369 77.6639C86.6697 77.5191 87.3192 77.6321 87.8651 77.9825C88.4117 78.3332 88.7851 78.8763 88.9172 79.5118C89.179 80.7707 88.4078 82.0049 87.1617 82.3215Z" fill="#5AC6CA"/>
<path d="M51.9877 45.5439C52.2305 45.5439 52.4741 45.4575 52.6681 45.2821C54.4803 43.6452 56.6445 42.3396 58.9277 41.506C61.4013 40.6031 64.1129 40.2179 66.7698 40.3924C68.6713 40.5174 70.5343 40.9232 72.3069 41.5985C72.8306 41.798 73.4178 41.5354 73.6173 41.0109C73.8173 40.4868 73.5542 39.9001 73.0298 39.7005C71.0683 38.9531 69.0069 38.504 66.9031 38.3655C63.9665 38.1727 60.9676 38.5988 58.231 39.5982C55.705 40.5202 53.3108 41.9647 51.3069 43.7745C50.8903 44.1506 50.8578 44.7929 51.2339 45.2091C51.4342 45.4313 51.7104 45.5439 51.9877 45.5439Z" fill="#5AC6CA"/>
<path d="M75.0432 52.7922C75.2356 52.9592 75.4728 53.041 75.7089 53.041C75.9925 53.041 76.275 52.9227 76.4761 52.6918L84.832 43.0732C85.2002 42.6498 85.155 42.0083 84.7317 41.6406C84.308 41.2728 83.6668 41.3176 83.2991 41.7409L74.9428 51.3596C74.5746 51.7829 74.6199 52.4244 75.0432 52.7922Z" fill="#5AC6CA"/>
<path d="M82.5314 48.45C81.1254 48.45 79.9816 49.5938 79.9816 50.9998C79.9816 52.4058 81.1254 53.5496 82.5314 53.5496C83.9374 53.5496 85.0812 52.4054 85.0812 50.9998C85.0812 49.5938 83.9374 48.45 82.5314 48.45ZM82.5314 51.5183C82.2454 51.5183 82.0129 51.2858 82.0129 50.9998C82.0129 50.7141 82.2454 50.4813 82.5314 50.4813C82.817 50.4813 83.0499 50.7141 83.0499 50.9998C83.0499 51.2858 82.817 51.5183 82.5314 51.5183Z" fill="#5AC6CA"/>
<path d="M76.8915 46.189C78.2975 46.189 79.4413 45.0453 79.4413 43.6393C79.4413 42.2332 78.2975 41.0895 76.8915 41.0895C75.4855 41.0895 74.3418 42.2332 74.3418 43.6393C74.3418 45.0453 75.4855 46.189 76.8915 46.189ZM76.8915 43.1203C77.1776 43.1203 77.4101 43.3532 77.4101 43.6393C77.4101 43.9249 77.1776 44.1578 76.8915 44.1578C76.6055 44.1578 76.373 43.9249 76.373 43.6393C76.373 43.3532 76.6055 43.1203 76.8915 43.1203Z" fill="#5AC6CA"/>
<path d="M48.3771 47.9307C48.5397 48.3211 48.94 48.579 49.3642 48.5567C49.7835 48.5349 50.1509 48.2513 50.2806 47.8529C50.4115 47.4511 50.2687 46.9932 49.9327 46.7366C49.5903 46.4755 49.1095 46.4592 48.7508 46.6977C48.3529 46.9623 48.1934 47.4899 48.3771 47.9307Z" fill="#5AC6CA"/>
<defs>
<filter id="filter0_d" x="0" y="0" width="131" height="131" filterUnits="userSpaceOnUse" color-interpolation-filters="sRGB">
<feFlood flood-opacity="0" result="BackgroundImageFix"/>
<feColorMatrix in="SourceAlpha" type="matrix" values="0 0 0 0 0 0 0 0 0 0 0 0 0 0 0 0 0 0 127 0" result="hardAlpha"/>
<feMorphology radius="2" operator="dilate" in="SourceAlpha" result="effect1_dropShadow"/>
<feOffset dy="3"/>
<feGaussianBlur stdDeviation="7.5"/>
<feComposite in2="hardAlpha" operator="out"/>
<feColorMatrix type="matrix" values="0 0 0 0 0.660833 0 0 0 0 0.7442 0 0 0 0 0.7625 0 0 0 0.2 0"/>
<feBlend mode="normal" in2="BackgroundImageFix" result="effect1_dropShadow"/>
<feBlend mode="normal" in="SourceGraphic" in2="effect1_dropShadow" result="shape"/>
</filter>
</defs>
</svg>
