<svg width="131" height="131" viewBox="0 0 131 131" fill="none" xmlns="http://www.w3.org/2000/svg">
<g filter="url(#filter0_d)">
<circle cx="65.5" cy="62.5" r="48.5" fill="white"/>
</g>
<g clip-path="url(#clip0)">
<path d="M66 71.2501C65.425 71.2501 64.9583 70.7834 64.9583 70.2084V68.6438C64.9583 68.0688 65.425 67.6022 66 67.6022C66.575 67.6022 67.0417 68.0688 67.0417 68.6438V70.2084C67.0417 70.7834 66.575 71.2501 66 71.2501Z" fill="#5AC6CA"/>
<path d="M66.5208 69.1667H62.875C62.3 69.1667 61.8333 68.7 61.8333 68.125C61.8333 67.55 62.3 67.0834 62.875 67.0834H66.5208C67.3833 67.0834 68.0833 66.3813 68.0833 65.5209C68.0833 64.6604 67.3833 63.9584 66.5208 63.9584H65.4792C63.4688 63.9584 61.8333 62.3229 61.8333 60.3125C61.8333 58.3021 63.4688 56.6667 65.4792 56.6667H69.125C69.7 56.6667 70.1667 57.1334 70.1667 57.7084C70.1667 58.2834 69.7 58.75 69.125 58.75H65.4792C64.6167 58.75 63.9167 59.4521 63.9167 60.3125C63.9167 61.1729 64.6167 61.875 65.4792 61.875H66.5208C68.5313 61.875 70.1667 63.5104 70.1667 65.5209C70.1667 67.5313 68.5313 69.1667 66.5208 69.1667Z" fill="#5AC6CA"/>
<path d="M66 58.2313C65.425 58.2313 64.9583 57.7646 64.9583 57.1896V55.625C64.9583 55.05 65.425 54.5834 66 54.5834C66.575 54.5834 67.0417 55.05 67.0417 55.625V57.1896C67.0417 57.7646 66.575 58.2313 66 58.2313Z" fill="#5AC6CA"/>
<path d="M66 75.4166C59.1062 75.4166 53.5 69.8104 53.5 62.9166C53.5 56.0229 59.1062 50.4166 66 50.4166C72.8937 50.4166 78.5 56.0229 78.5 62.9166C78.5 69.8104 72.8937 75.4166 66 75.4166ZM66 52.5C60.2562 52.5 55.5833 57.1729 55.5833 62.9166C55.5833 68.6604 60.2562 73.3333 66 73.3333C71.7437 73.3333 76.4167 68.6604 76.4167 62.9166C76.4167 57.1729 71.7437 52.5 66 52.5Z" fill="#5AC6CA"/>
<path d="M66 85.8333C65.425 85.8333 64.9583 85.3667 64.9583 84.7917C64.9583 84.2167 65.425 83.75 66 83.75C77.4875 83.75 86.8333 74.4042 86.8333 62.9167C86.8333 62.3417 87.3 61.875 87.875 61.875C88.45 61.875 88.9167 62.3417 88.9167 62.9167C88.9167 75.5521 78.6354 85.8333 66 85.8333Z" fill="#5AC6CA"/>
<path d="M86.6458 56.7708C86.2146 56.7708 85.8104 56.5 85.6604 56.0708C82.7646 47.7042 74.8625 42.0833 66 42.0833C61.2583 42.0833 56.8167 43.6396 53.1521 46.5812C52.7042 46.9396 52.0479 46.8708 51.6875 46.4229C51.3271 45.9729 51.4 45.3187 51.8479 44.9583C55.8854 41.7146 60.7792 40 66 40C75.75 40 84.4437 46.1854 87.6312 55.3875C87.8187 55.9333 87.5312 56.525 86.9875 56.7146C86.875 56.7521 86.7583 56.7708 86.6458 56.7708Z" fill="#5AC6CA"/>
<path d="M58.7083 84.5625C58.5937 84.5625 58.4771 84.5437 58.3625 84.5042C49.225 81.3 43.0833 72.625 43.0833 62.9167C43.0833 58.2917 44.4583 53.8521 47.0583 50.0771C47.3833 49.6 48.0312 49.4854 48.5062 49.8083C48.9812 50.1354 49.1 50.7833 48.7729 51.2562C46.4146 54.6854 45.1667 58.7167 45.1667 62.9167C45.1667 71.7417 50.7479 79.6271 59.0542 82.5375C59.5958 82.7271 59.8812 83.3208 59.6917 83.8646C59.5417 84.2938 59.1396 84.5625 58.7083 84.5625Z" fill="#5AC6CA"/>
<path d="M69.125 89.9999C68.8584 89.9999 68.5917 89.8978 68.3875 89.6958L64.2209 85.5291C63.8146 85.1229 63.8146 84.4624 64.2209 84.0562L68.3875 79.8895C68.7938 79.4833 69.4542 79.4833 69.8604 79.8895C70.2667 80.2958 70.2667 80.9562 69.8604 81.3624L66.4313 84.7916L69.8604 88.2208C70.2667 88.627 70.2667 89.2874 69.8604 89.6937C69.6584 89.8978 69.3917 89.9999 69.125 89.9999Z" fill="#5AC6CA"/>
<path d="M49.6958 56.6666C49.2354 56.6666 48.8146 56.3604 48.6896 55.8958L47.3417 50.8645L42.3104 52.2125C41.7563 52.352 41.1833 52.0312 41.0354 51.475C40.8875 50.9187 41.2167 50.35 41.7729 50.2L47.8104 48.5833C48.3667 48.4437 48.9375 48.7645 49.0854 49.3187L50.7021 55.3541C50.8521 55.9125 50.5208 56.4812 49.9667 56.6312C49.875 56.6541 49.7854 56.6666 49.6958 56.6666Z" fill="#5AC6CA"/>
<path d="M86.8333 57.9125C86.6562 57.9125 86.4771 57.8687 86.3125 57.7729L80.9 54.6479C80.4021 54.3604 80.2313 53.725 80.5188 53.225C80.8063 52.7271 81.4417 52.5542 81.9417 52.8437L86.4521 55.4479L89.0562 50.9375C89.3437 50.4396 89.9812 50.2667 90.4792 50.5562C90.9771 50.8437 91.1479 51.4792 90.8604 51.9792L87.7354 57.3917C87.5417 57.725 87.1917 57.9125 86.8333 57.9125Z" fill="#5AC6CA"/>
</g>
<defs>
<filter id="filter0_d" x="0" y="0" width="131" height="131" filterUnits="userSpaceOnUse" color-interpolation-filters="sRGB">
<feFlood flood-opacity="0" result="BackgroundImageFix"/>
<feColorMatrix in="SourceAlpha" type="matrix" values="0 0 0 0 0 0 0 0 0 0 0 0 0 0 0 0 0 0 127 0" result="hardAlpha"/>
<feMorphology radius="2" operator="dilate" in="SourceAlpha" result="effect1_dropShadow"/>
<feOffset dy="3"/>
<feGaussianBlur stdDeviation="7.5"/>
<feComposite in2="hardAlpha" operator="out"/>
<feColorMatrix type="matrix" values="0 0 0 0 0.660833 0 0 0 0 0.7442 0 0 0 0 0.7625 0 0 0 0.2 0"/>
<feBlend mode="normal" in2="BackgroundImageFix" result="effect1_dropShadow"/>
<feBlend mode="normal" in="SourceGraphic" in2="effect1_dropShadow" result="shape"/>
</filter>
<clipPath id="clip0">
<rect width="50" height="50" fill="white" transform="translate(41 40)"/>
</clipPath>
</defs>
</svg>
